<svg width="34" height="34" viewBox="0 0 34 34" fill="none" xmlns="http://www.w3.org/2000/svg">
<path fill-rule="evenodd" clip-rule="evenodd" d="M10.4044 5.69112C14.7523 5.20517 19.2471 5.20517 23.5949 5.69112C26.0213 5.9623 27.9787 7.87396 28.2637 10.3099C28.7835 14.7549 28.7835 19.2453 28.2637 23.6903C27.9787 26.1262 26.0213 28.0379 23.5949 28.309C19.2471 28.795 14.7523 28.795 10.4044 28.309C7.97801 28.0379 6.02051 26.1262 5.73561 23.6903C5.21573 19.2453 5.21573 14.7549 5.73561 10.3099C6.02051 7.87396 7.97801 5.9623 10.4044 5.69112Z" fill="white"/>
<path fill-rule="evenodd" clip-rule="evenodd" d="M10.4044 5.69112C14.7523 5.20517 19.2471 5.20517 23.5949 5.69112C26.0213 5.9623 27.9787 7.87396 28.2637 10.3099C28.7835 14.7549 28.7835 19.2453 28.2637 23.6903C27.9787 26.1262 26.0213 28.0379 23.5949 28.309C19.2471 28.795 14.7523 28.795 10.4044 28.309C7.97801 28.0379 6.02051 26.1262 5.73561 23.6903C5.21573 19.2453 5.21573 14.7549 5.73561 10.3099C6.02051 7.87396 7.97801 5.9623 10.4044 5.69112ZM16.9997 9.92715C17.5864 9.92715 18.0622 10.4029 18.0622 10.9897V15.9376H23.0101C23.5969 15.9376 24.0726 16.4133 24.0726 17.0001C24.0726 17.5869 23.5969 18.0626 23.0101 18.0626H18.0622V23.0104C18.0622 23.5973 17.5864 24.0729 16.9997 24.0729C16.4129 24.0729 15.9372 23.5973 15.9372 23.0104V18.0626H10.9893C10.4025 18.0626 9.92679 17.5869 9.92679 17.0001C9.92679 16.4133 10.4025 15.9376 10.9893 15.9376H15.9372V10.9897C15.9372 10.4029 16.4129 9.92715 16.9997 9.92715Z" fill="#299B9B"/>
</svg>
