<svg width="24" height="24" viewBox="0 0 24 24" fill="none" xmlns="http://www.w3.org/2000/svg">
<rect width="24" height="24" rx="4" fill="black"/>
<path d="M10.4516 5C10.1309 5 9.87097 5.24881 9.87097 5.55573V6.11146H6.58065C6.25997 6.11146 6 6.36027 6 6.66719C6 6.97411 6.25997 7.22292 6.58065 7.22292H17.4194C17.74 7.22292 18 6.97411 18 6.66719C18 6.36027 17.74 6.11146 17.4194 6.11146H14.129V5.55573C14.129 5.24881 13.8691 5 13.5484 5H10.4516Z" fill="white"/>
<path d="M10.4516 11.2242C10.7723 11.2242 11.0323 11.473 11.0323 11.7799V16.9667C11.0323 17.2736 10.7723 17.5224 10.4516 17.5224C10.1309 17.5224 9.87097 17.2736 9.87097 16.9667V11.7799C9.87097 11.473 10.1309 11.2242 10.4516 11.2242Z" fill="white"/>
<path d="M14.129 11.7799C14.129 11.473 13.8691 11.2242 13.5484 11.2242C13.2277 11.2242 12.9677 11.473 12.9677 11.7799V16.9667C12.9677 17.2736 13.2277 17.5224 13.5484 17.5224C13.8691 17.5224 14.129 17.2736 14.129 16.9667V11.7799Z" fill="white"/>
<path fill-rule="evenodd" clip-rule="evenodd" d="M7.3482 9.19923C7.38087 8.91778 7.62943 8.70487 7.9253 8.70487H16.0747C16.3706 8.70487 16.6191 8.91778 16.6518 9.19923L16.8067 10.534C17.0876 12.9535 17.0876 15.3953 16.8067 17.8148L16.7915 17.9463C16.68 18.9067 15.9022 19.6725 14.9024 19.8065C12.9769 20.0645 11.0231 20.0645 9.09761 19.8065C8.09771 19.6725 7.32 18.9067 7.2085 17.9463L7.19325 17.8148C6.91236 15.3953 6.91236 12.9535 7.19325 10.534L7.3482 9.19923ZM8.445 9.81632L8.34743 10.6567C8.07602 12.9947 8.07602 15.3542 8.34743 17.6921L8.36268 17.8235C8.41557 18.279 8.7844 18.6422 9.25862 18.7058C11.0773 18.9494 12.9227 18.9494 14.7413 18.7058C15.2156 18.6422 15.5844 18.279 15.6373 17.8235L15.6526 17.6921C15.924 15.3542 15.924 12.9947 15.6526 10.6567L15.555 9.81632H8.445Z" fill="white"/>
</svg>
