<svg width="22" height="15" viewBox="0 0 22 15" fill="none" xmlns="http://www.w3.org/2000/svg">
<path fill-rule="evenodd" clip-rule="evenodd" d="M17.9714 0.467422L10.7877 0.304932L3.60399 0.467422C2.27283 0.497532 1.14573 1.45815 0.90504 2.76771C0.32332 5.93281 0.32332 9.17741 0.90504 12.3425C1.14573 13.6521 2.27283 14.6127 3.60399 14.6428L10.7877 14.8053L17.9714 14.6428C19.3026 14.6127 20.4297 13.6521 20.6704 12.3425C21.2521 9.17741 21.2521 5.93281 20.6704 2.76771C20.4297 1.45814 19.3026 0.497532 17.9714 0.467422ZM3.63791 1.96703L10.7877 1.80531L17.9375 1.96703C18.5578 1.98106 19.0829 2.42866 19.1951 3.03886C19.3484 3.87285 19.4588 4.71269 19.5265 5.55511H2.04893C2.11658 4.71269 2.22705 3.87285 2.38033 3.03886C2.49248 2.42866 3.01765 1.98106 3.63791 1.96703ZM1.96875 7.55511C1.96875 9.06681 2.10594 10.5784 2.38033 12.0714C2.49248 12.6816 3.01765 13.1292 3.63791 13.1432L10.7877 13.3049L17.9375 13.1432C18.5578 13.1292 19.0829 12.6816 19.1951 12.0714C19.4695 10.5784 19.6067 9.06681 19.6067 7.55511H1.96875Z" fill="#299B9B"/>
</svg>
