<svg width="18" height="18" viewBox="0 0 18 18" fill="none" xmlns="http://www.w3.org/2000/svg">
<path d="M12.5625 8.25C12.5625 8.56065 12.3106 8.8125 12 8.8125H6C5.68934 8.8125 5.4375 8.56065 5.4375 8.25C5.4375 7.93935 5.68934 7.6875 6 7.6875H12C12.3106 7.6875 12.5625 7.93935 12.5625 8.25Z" fill="#8FA0A0"/>
<path fill-rule="evenodd" clip-rule="evenodd" d="M3.28992 6.11002L4.18147 3.67432C4.40615 3.06049 4.95109 2.62064 5.59852 2.53054C7.85578 2.21642 10.1457 2.21642 12.403 2.53054C13.0504 2.62064 13.5954 3.0605 13.8201 3.67434L14.7117 6.11025C14.8784 6.37042 14.9932 6.66781 15.0415 6.98842L15.118 7.4968C15.4178 9.4908 15.3898 11.5204 15.0349 13.5052C14.8777 14.3852 14.155 15.0537 13.2654 15.142L12.3426 15.2335C10.1201 15.4541 7.88128 15.4541 5.65886 15.2335L4.73601 15.142C3.84646 15.0537 3.12379 14.3852 2.96649 13.5052C2.61169 11.5204 2.58365 9.4908 2.8835 7.4968L2.95995 6.98842C3.00817 6.66772 3.12309 6.37024 3.28992 6.11002ZM5.75358 3.6448C7.90798 3.345 10.0936 3.345 12.2479 3.6448C12.4835 3.67759 12.6818 3.83765 12.7636 4.06102L13.1433 5.09827C13.1092 5.09331 13.075 5.08912 13.0405 5.08569L12.3069 5.01287C10.1082 4.79464 7.89328 4.79464 5.69458 5.01288L4.96093 5.08569C4.92647 5.08911 4.89224 5.0933 4.85826 5.09825L5.23792 4.06102C5.31968 3.83765 5.51798 3.67759 5.75358 3.6448ZM4.26498 6.67573L4.27897 6.68086L4.29634 6.63342C4.48064 6.39652 4.75748 6.23641 5.07205 6.20519L5.80569 6.13237C7.93048 5.92148 10.0709 5.92148 12.1957 6.13237L12.9294 6.20519C13.244 6.23642 13.5209 6.39659 13.7052 6.63357L13.7225 6.68085L13.7365 6.67575C13.8348 6.81517 13.9023 6.97833 13.929 7.15571L14.0054 7.6641C14.287 9.53685 14.2607 11.443 13.9275 13.3073C13.8588 13.6918 13.543 13.9839 13.1543 14.0224L12.2314 14.1141C10.0829 14.3273 7.91856 14.3273 5.76997 14.1141L4.84713 14.0224C4.45843 13.9839 4.14267 13.6918 4.07394 13.3073C3.7407 11.443 3.71437 9.53685 3.99599 7.6641L4.07244 7.15571C4.09912 6.97832 4.16663 6.81516 4.26498 6.67573Z" fill="#8FA0A0"/>
</svg>
