<svg width="49" height="48" viewBox="0 0 49 48" fill="none" xmlns="http://www.w3.org/2000/svg">
<path fill-rule="evenodd" clip-rule="evenodd" d="M17 26C17 21.8578 20.3579 18.5 24.5 18.5C28.6422 18.5 32 21.8578 32 26C32 30.1422 28.6422 33.5 24.5 33.5C20.3579 33.5 17 30.1422 17 26ZM24.5 21.5C22.0148 21.5 20 23.5148 20 26C20 28.4852 22.0148 30.5 24.5 30.5C26.9852 30.5 29 28.4852 29 26C29 23.5148 26.9852 21.5 24.5 21.5Z" fill="#299B9B"/>
<path fill-rule="evenodd" clip-rule="evenodd" d="M21.7323 11.5C19.642 11.5 17.9474 13.1946 17.9474 15.2849C17.9474 16.6168 16.925 17.7257 15.5974 17.8335L11.1382 18.1956C10.2627 18.2667 9.54264 18.9142 9.37922 19.7773C8.48172 24.5172 8.41481 29.3772 9.18145 34.1402L9.37595 35.3486C9.55963 36.4898 10.4989 37.358 11.651 37.4516L15.5357 37.767C21.5021 38.2516 27.4981 38.2516 33.4645 37.767L37.3491 37.4516C38.5013 37.358 39.4405 36.4898 39.6243 35.3486L39.8187 34.1402C40.5853 29.3772 40.5185 24.5172 39.6209 19.7773C39.4575 18.9142 38.7375 18.2667 37.8619 18.1956L33.4027 17.8335C32.0751 17.7257 31.0527 16.6168 31.0527 15.2849C31.0527 13.1946 29.3581 11.5 27.2679 11.5H21.7323ZM14.9596 14.8754C15.1713 11.3189 18.1226 8.5 21.7323 8.5H27.2679C30.8775 8.5 33.8289 11.3189 34.0405 14.8754L38.1047 15.2055C40.3267 15.3859 42.1539 17.0289 42.5685 19.2192C43.5307 24.3006 43.6025 29.5108 42.7807 34.6168L42.5861 35.8252C42.1829 38.3304 40.1211 40.2364 37.5919 40.4418L33.7073 40.7572C27.5793 41.2548 21.4209 41.2548 15.2928 40.7572L11.4082 40.4418C8.87912 40.2364 6.81728 38.3304 6.41406 35.8252L6.21956 34.6168C5.3977 29.5108 5.46944 24.3006 6.43158 19.2192C6.8463 17.0289 8.67356 15.3859 10.8954 15.2055L14.9596 14.8754Z" fill="#299B9B"/>
</svg>
