<svg width="22" height="15" viewBox="0 0 22 15" fill="none" xmlns="http://www.w3.org/2000/svg">
<path fill-rule="evenodd" clip-rule="evenodd" d="M17.9704 0.467422L10.7867 0.304932L3.60301 0.467422C2.27185 0.497532 1.14475 1.45815 0.904063 2.76771C0.322343 5.93281 0.322343 9.17741 0.904063 12.3425C1.14475 13.6521 2.27185 14.6127 3.60301 14.6428L10.7867 14.8053L17.9704 14.6428C19.3016 14.6127 20.4287 13.6521 20.6694 12.3425C21.2511 9.17741 21.2511 5.93281 20.6694 2.76771C20.4287 1.45814 19.3016 0.497532 17.9704 0.467422ZM3.63693 1.96703L10.7867 1.80531L17.9365 1.96703C18.5568 1.98106 19.0819 2.42866 19.1941 3.03886C19.3474 3.87285 19.4578 4.71269 19.5255 5.55511H2.04795C2.1156 4.71269 2.22607 3.87285 2.37935 3.03886C2.4915 2.42866 3.01667 1.98106 3.63693 1.96703ZM1.96777 7.55511C1.96777 9.06681 2.10496 10.5784 2.37935 12.0714C2.4915 12.6816 3.01667 13.1292 3.63693 13.1432L10.7867 13.3049L17.9365 13.1432C18.5568 13.1292 19.0819 12.6816 19.1941 12.0714C19.4685 10.5784 19.6057 9.06681 19.6057 7.55511H1.96777Z" fill="#299B9B"/>
</svg>
