<svg width="18" height="18" viewBox="0 0 18 18" fill="none" xmlns="http://www.w3.org/2000/svg">

<path d="M6 7.12498C5.48223 7.12498 5.0625 7.5447 5.0625 8.0625C5.0625 8.58022 5.48223 9 6 9C6.51777 9 6.9375 8.58022 6.9375 8.0625C6.9375 7.5447 6.51777 7.12498 6 7.12498Z" fill="#8FA0A0"/>
<path d="M9 7.12498C8.4822 7.12498 8.0625 7.5447 8.0625 8.0625C8.0625 8.58022 8.4822 9 9 9C9.5178 9 9.9375 8.58022 9.9375 8.0625C9.9375 7.5447 9.5178 7.12498 9 7.12498Z" fill="#8FA0A0"/>
<path d="M11.0625 8.0625C11.0625 7.5447 11.4822 7.12498 12 7.12498C12.5178 7.12498 12.9375 7.5447 12.9375 8.0625C12.9375 8.58022 12.5178 9 12 9C11.4822 9 11.0625 8.58022 11.0625 8.0625Z" fill="#8FA0A0"/>
<path fill-rule="evenodd" clip-rule="evenodd" d="M12.0755 3.44458C10.0549 3.27226 8.02373 3.26225 6.00145 3.41468L5.85653 3.4256C3.92806 3.57095 2.4375 5.17807 2.4375 7.11202V13.5C2.4375 13.6979 2.5415 13.8812 2.71136 13.9828C2.88122 14.0843 3.09196 14.0891 3.26628 13.9955L6.19937 12.4192C6.3358 12.3458 6.48828 12.3075 6.64317 12.3075H13.3755C14.2246 12.3075 14.9522 11.7004 15.1044 10.8651C15.4129 9.1722 15.4372 7.43972 15.1765 5.7388L15.0997 5.23755C14.9598 4.32499 14.2133 3.62688 13.2934 3.54843L12.0755 3.44458ZM6.08601 4.53649C8.04825 4.3886 10.0192 4.3983 11.98 4.56551L13.1978 4.66936C13.6 4.70366 13.9264 5.00894 13.9876 5.408L14.0644 5.90925C14.3062 7.48671 14.2837 9.09345 13.9976 10.6635C13.9428 10.964 13.681 11.1825 13.3755 11.1825H6.64317C6.30242 11.1825 5.96697 11.2669 5.66681 11.4282L3.5625 12.5591V7.11202C3.5625 5.76659 4.59947 4.64853 5.94108 4.54742L6.08601 4.53649Z" fill="#8FA0A0"/>
</svg>
