<svg width="65" height="18" viewBox="0 0 65 18" fill="none" xmlns="http://www.w3.org/2000/svg">
<path d="M8.68572 17.9999C5.70665 18.0192 1.66888 13.8879 0.522848 11.2039V11.1942L0.499664 11.1396C-0.0814659 9.70116 -0.216702 8.49576 0.422386 6.9199C1.39454 4.51393 6.2901 -1.07511 9.82248 0.18172C12.3471 1.07934 22.7148 7.6552 12.7652 15.9765C11.4901 17.0356 10.2019 17.9911 8.68572 17.9999ZM4.22214 10.5152C5.37049 12.6046 7.95544 15.0435 9.98321 13.691C14.1269 10.9275 14.0697 8.26111 11.8433 5.9596C9.2568 3.28683 7.63474 3.74247 5.57219 5.97889C5.08379 6.50846 4.6719 6.85561 4.18119 7.84324C3.82803 8.55764 3.75538 9.66821 4.22214 10.516V10.5152Z" fill="#53B7D1"/>
<path d="M28.3298 12.1411C28.7427 12.1411 29.1234 12.1335 29.472 12.1183C29.8207 12.1031 30.1791 12.0702 30.5473 12.0195C30.5733 12.0134 30.6003 12.0122 30.6267 12.016C30.6531 12.0197 30.6785 12.0284 30.7013 12.0414C30.7241 12.0544 30.7439 12.0716 30.7595 12.0919C30.7751 12.1121 30.7862 12.1351 30.7921 12.1594C30.7978 12.1844 30.7978 12.2104 30.7921 12.2354V13.3759C30.7921 13.5067 30.7053 13.5977 30.5318 13.6489C30.106 13.7715 29.6691 13.8578 29.2265 13.9066C28.7567 13.9659 28.2833 13.9964 27.8093 13.9979C27.0475 14.0177 26.2888 13.8992 25.5755 13.6489C24.9965 13.4354 24.4861 13.087 24.0931 12.6369C23.6937 12.1602 23.4101 11.6084 23.2617 11.0197C23.0792 10.3088 22.9915 9.57975 23.0006 8.84891V8.15093C22.9916 7.42053 23.0765 6.69176 23.2536 5.98019C23.3966 5.3924 23.675 4.84059 24.0694 4.36297C24.4581 3.91209 24.9662 3.56352 25.5437 3.35173C26.257 3.10156 27.0157 2.98303 27.7775 3.00274C28.6643 3.00843 29.5449 3.14153 30.3882 3.39735C30.4631 3.41456 30.5311 3.45152 30.584 3.5038C30.6191 3.55325 30.6363 3.61187 30.633 3.67107V4.76442C30.6415 4.81307 30.6292 4.86289 30.5987 4.90315C30.5682 4.94341 30.5219 4.97086 30.4698 4.9796C30.4429 4.98496 30.4151 4.98496 30.3882 4.9796C30.0837 4.94006 29.7524 4.90964 29.3945 4.88836C29.0366 4.86707 28.6728 4.85718 28.3029 4.8587C27.8562 4.84719 27.4111 4.91426 26.991 5.05639C26.6468 5.18158 26.3495 5.39808 26.136 5.6791C25.9009 6.00092 25.7426 6.36598 25.6718 6.74964C25.5718 7.25282 25.5253 7.76395 25.5331 8.27563V8.74627C25.5252 9.25585 25.573 9.76486 25.6758 10.2654C25.7519 10.6483 25.9158 11.0114 26.1564 11.3299C26.3789 11.6076 26.6813 11.8209 27.0285 11.945C27.4467 12.086 27.8894 12.1527 28.3339 12.1419L28.3298 12.1411ZM32.6808 3.42548C32.6808 3.26277 32.7624 3.18218 32.9256 3.18218H34.9456C35.006 3.17414 35.0673 3.18877 35.1161 3.22284C35.1649 3.25691 35.1972 3.30765 35.2059 3.3639C35.2091 3.38431 35.2091 3.40507 35.2059 3.42548V11.2751C35.1881 11.5034 35.245 11.7314 35.369 11.929C35.4548 12.0108 35.5599 12.0726 35.6759 12.1096C35.792 12.1466 35.9157 12.1577 36.0372 12.1419H39.8979C39.9278 12.1378 39.9582 12.1393 39.9875 12.1462C40.0168 12.1532 40.0444 12.1654 40.0686 12.1823C40.0927 12.1992 40.1131 12.2204 40.1285 12.2446C40.1438 12.2689 40.1539 12.2957 40.1581 12.3236C40.1614 12.3438 40.1614 12.3643 40.1581 12.3844V13.5082C40.1581 13.7003 40.0659 13.8017 39.8815 13.8123C39.2833 13.863 38.599 13.9061 37.8289 13.9416C37.0587 13.9771 36.2602 13.9948 35.4335 13.9948C34.998 14.0023 34.5631 13.9615 34.1379 13.8732C33.8236 13.8101 33.5301 13.6776 33.2821 13.4869C33.0602 13.3021 32.8993 13.0625 32.8179 12.7958C32.7175 12.4546 32.671 12.1017 32.68 11.748L32.6808 3.42548ZM44.2007 13.5531C44.2062 13.5882 44.2028 13.624 44.1908 13.6577C44.1788 13.6914 44.1585 13.722 44.1315 13.7471C44.1046 13.7722 44.0718 13.7911 44.0356 13.8023C43.9995 13.8135 43.961 13.8167 43.9233 13.8116H41.9522C41.9204 13.8159 41.888 13.8143 41.8568 13.8069C41.8256 13.7995 41.7963 13.7865 41.7706 13.7686C41.7448 13.7507 41.7231 13.7282 41.7067 13.7024C41.6902 13.6766 41.6794 13.6481 41.6748 13.6185C41.6715 13.5968 41.6715 13.5748 41.6748 13.5531V3.45589C41.6748 3.27342 41.7673 3.18218 41.9522 3.18218H43.9233C44.1082 3.18218 44.2007 3.27342 44.2007 3.45589V13.5531ZM51.8257 12.1411C52.2396 12.1411 52.6203 12.1335 52.9679 12.1183C53.3155 12.1031 53.6739 12.0702 54.0432 12.0195C54.0691 12.0134 54.0961 12.0122 54.1226 12.016C54.149 12.0197 54.1744 12.0284 54.1972 12.0414C54.22 12.0544 54.2398 12.0716 54.2553 12.0919C54.2709 12.1121 54.282 12.1351 54.288 12.1594C54.2928 12.1832 54.2928 12.2078 54.288 12.2316V13.3721C54.288 13.5037 54.2015 13.5949 54.0269 13.6458C53.601 13.7682 53.1641 13.8544 52.7215 13.9036C52.2514 13.9621 51.7778 13.9926 51.3035 13.9948C50.542 14.0139 49.7836 13.8951 49.0705 13.6451C48.492 13.4327 47.9816 13.0856 47.5881 12.6369C47.1899 12.1598 46.9072 11.6081 46.7592 11.0197C46.5767 10.3088 46.489 9.57975 46.4981 8.84891V8.15017C46.4892 7.41977 46.5741 6.69101 46.7511 5.97943C46.8944 5.39174 47.1728 4.84 47.5669 4.36221C47.9556 3.91155 48.4638 3.56325 49.0412 3.35173C49.7542 3.1017 50.5126 2.98292 51.2742 3.00198C52.1611 3.00756 53.0417 3.14093 53.8849 3.39735C53.9598 3.41456 54.0278 3.45152 54.0807 3.5038C54.1157 3.55299 54.1329 3.61135 54.1297 3.67031V4.75986C54.1382 4.80851 54.1259 4.85833 54.0954 4.89859C54.0649 4.93884 54.0186 4.9663 53.9665 4.97503C53.9396 4.97999 53.9119 4.97999 53.8849 4.97503C53.5803 4.9355 53.2491 4.90508 52.8912 4.88379C52.5333 4.8625 52.1694 4.85262 51.7996 4.85414C51.3529 4.84195 50.9077 4.90877 50.4877 5.05107C50.1434 5.17653 49.846 5.39296 49.6319 5.67378C49.3981 5.99624 49.2399 6.36102 49.1676 6.74432C49.0683 7.24782 49.0221 7.75918 49.0298 8.27106V8.74171C49.0215 9.25256 49.0694 9.76286 49.1725 10.2646C49.2482 10.6477 49.4121 11.0109 49.6531 11.3291C49.8753 11.6069 50.1778 11.82 50.5252 11.9435C50.9432 12.0851 51.386 12.1522 51.8306 12.1411H51.8257ZM64.3564 3.18218C64.3925 3.17886 64.4288 3.18571 64.4607 3.20184C64.4925 3.21797 64.5185 3.24264 64.5351 3.27265C64.5507 3.30498 64.556 3.3408 64.5504 3.37585C64.5447 3.41091 64.5284 3.44371 64.5033 3.47034L61.0163 8.303L64.9602 13.5417C64.9811 13.5659 64.9944 13.5951 64.9986 13.626C65.0028 13.6569 64.9977 13.6882 64.9838 13.7165C64.9687 13.7498 64.9422 13.7775 64.9084 13.7953C64.8746 13.813 64.8354 13.8198 64.797 13.8146H62.4996C62.4049 13.8193 62.3104 13.8039 62.223 13.7698C62.1479 13.7303 62.0859 13.6724 62.0435 13.6025L58.7034 8.86488V13.5569C58.7124 13.6168 58.6956 13.6776 58.6566 13.7259C58.6176 13.7742 58.5596 13.8061 58.4953 13.8146C58.4726 13.8176 58.4495 13.8176 58.4268 13.8146H56.4549C56.3906 13.8231 56.3254 13.8074 56.2735 13.7711C56.2216 13.7347 56.1874 13.6806 56.1783 13.6207C56.1742 13.5996 56.1742 13.578 56.1783 13.5569V3.45513C56.1783 3.27265 56.2705 3.18142 56.4549 3.18142H58.4268C58.6112 3.18142 58.7034 3.27265 58.7034 3.45513V7.73655L61.8183 3.36085C61.8599 3.30421 61.9158 3.25799 61.9811 3.22629C62.0465 3.1946 62.1192 3.1784 62.1928 3.17913L64.3564 3.18218Z" fill="#141521"/>
</svg>
