<svg width="18" height="18" viewBox="0 0 18 18" fill="none" xmlns="http://www.w3.org/2000/svg">
<path d="M9.5625 5.25C9.5625 4.93934 9.31065 4.6875 9 4.6875C8.68935 4.6875 8.4375 4.93934 8.4375 5.25V9C8.4375 9.19395 8.5374 9.37417 8.70187 9.477L10.9519 10.8832C11.2153 11.0479 11.5624 10.9679 11.727 10.7044C11.8916 10.4409 11.8116 10.0939 11.5481 9.92925L9.5625 8.68823V5.25Z" fill="#8FA0A0"/>
<path fill-rule="evenodd" clip-rule="evenodd" d="M9 2.4375C5.37563 2.4375 2.4375 5.37563 2.4375 9C2.4375 12.6244 5.37563 15.5625 9 15.5625C12.6244 15.5625 15.5625 12.6244 15.5625 9C15.5625 5.37563 12.6244 2.4375 9 2.4375ZM3.5625 9C3.5625 5.99696 5.99696 3.5625 9 3.5625C12.0031 3.5625 14.4375 5.99696 14.4375 9C14.4375 12.0031 12.0031 14.4375 9 14.4375C5.99696 14.4375 3.5625 12.0031 3.5625 9Z" fill="#8FA0A0"/>
</svg>
