<svg width="16" height="16" viewBox="0 0 16 16" fill="none" xmlns="http://www.w3.org/2000/svg">
<path fill-rule="evenodd" clip-rule="evenodd" d="M8 1.21519C5.34041 1.21519 3.27712 2.85976 2.92499 4.86076H4.71795C5.05781 4.86076 5.33333 5.13279 5.33333 5.46835V11.1392C5.33333 11.4748 5.05781 11.7468 4.71795 11.7468H2.25641C1.01023 11.7468 0 10.7494 0 9.51899V7.08861C0 6.05842 0.708193 5.19155 1.67013 4.9367C1.98312 2.0979 4.7785 0 8 0C11.2215 0 14.0169 2.0979 14.3298 4.93671C15.2918 5.19155 16 6.05842 16 7.08861V9.51899C16 10.5521 15.2879 11.4209 14.3218 11.673C14.0586 13.5456 12.4306 14.9873 10.4615 14.9873H9.52172C9.27828 15.5812 8.68866 16 8 16C7.09366 16 6.35897 15.2746 6.35897 14.3797C6.35897 13.4849 7.09366 12.7595 8 12.7595C8.68866 12.7595 9.27828 13.1783 9.52172 13.7722H10.4615C11.7225 13.7722 12.7791 12.9081 13.0569 11.7468H11.2821C10.9422 11.7468 10.6667 11.4748 10.6667 11.1392V5.46835C10.6667 5.13279 10.9422 4.86076 11.2821 4.86076H13.075C12.7229 2.85976 10.6596 1.21519 8 1.21519ZM2.25641 6.07595C1.68996 6.07595 1.23077 6.5293 1.23077 7.08861V9.51899C1.23077 10.0783 1.68996 10.5316 2.25641 10.5316H4.10256V6.07595H2.25641ZM14.7692 7.08861C14.7692 6.5293 14.3101 6.07595 13.7436 6.07595H11.8974V10.5316H13.7436C14.3101 10.5316 14.7692 10.0783 14.7692 9.51899V7.08861Z" fill="white"/>
</svg>
