<svg width="18" height="18" viewBox="0 0 18 18" fill="none" xmlns="http://www.w3.org/2000/svg">
<path fill-rule="evenodd" clip-rule="evenodd" d="M5.24999 2.4375C5.56064 2.4375 5.81249 2.68934 5.81249 3V4.25072C7.93326 4.06185 10.0667 4.06185 12.1875 4.25072V3C12.1875 2.68934 12.4393 2.4375 12.75 2.4375C13.0606 2.4375 13.3125 2.68934 13.3125 3V4.36233C14.4322 4.52066 15.3169 5.40635 15.4666 6.53613L15.5316 7.02584C15.8046 9.08558 15.781 11.1738 15.4615 13.2269C15.3033 14.2439 14.4771 15.0251 13.4527 15.1261L12.558 15.2144C10.1917 15.4477 7.80824 15.4477 5.44193 15.2144L4.54718 15.1261C3.52287 15.0251 2.69663 14.2439 2.53837 13.2269C2.2189 11.1738 2.19532 9.08558 2.46835 7.02584L2.53326 6.53613C2.68302 5.40634 3.56768 4.52063 4.68749 4.36232V3C4.68749 2.68934 4.93933 2.4375 5.24999 2.4375ZM5.58386 5.4021C7.85579 5.17806 10.1442 5.17806 12.4161 5.4021L13.0951 5.46907C13.7452 5.53318 14.2656 6.0364 14.3514 6.68395L14.4163 7.17367C14.439 7.34475 14.4595 7.51605 14.4779 7.6875H3.52203C3.5404 7.51605 3.56091 7.34476 3.58359 7.17368L3.6485 6.68395C3.73434 6.0364 4.25471 5.53318 4.90477 5.46907L5.58386 5.4021ZM3.43261 8.8125C3.35897 10.2286 3.43152 11.6499 3.64999 13.0539C3.72937 13.564 4.1438 13.9558 4.65758 14.0065L5.55234 14.0947C7.84521 14.3209 10.1548 14.3209 12.4476 14.0947L13.3423 14.0065C13.8561 13.9558 14.2705 13.564 14.35 13.0539C14.5684 11.6499 14.641 10.2286 14.5673 8.8125H3.43261Z" fill="#8FA0A0"/>
</svg>
