<svg width="18" height="18" viewBox="0 0 18 18" fill="none" xmlns="http://www.w3.org/2000/svg">
<path d="M5.02489 12.9692C4.9345 12.9692 4.85037 12.9529 4.7725 12.9202C4.69461 12.8875 4.62057 12.836 4.55038 12.7658L1.45375 9.66923C1.3451 9.56058 1.29077 9.42693 1.29077 9.26828C1.29077 9.10963 1.3451 8.97598 1.45375 8.86733C1.5624 8.75866 1.69412 8.70433 1.84892 8.70433C2.00373 8.70433 2.13547 8.75866 2.24412 8.86733L5.03642 11.6596L5.29607 11.4L6.08642 12.1904L5.4994 12.7658C5.42921 12.836 5.35517 12.8875 5.27728 12.9202C5.19941 12.9529 5.11528 12.9692 5.02489 12.9692ZM9.26239 12.9577C9.172 12.9577 9.08787 12.9433 9.01 12.9144C8.93211 12.8856 8.85807 12.836 8.78788 12.7658L5.67972 9.65768C5.57105 9.54903 5.51672 9.41538 5.51672 9.25673C5.51672 9.09808 5.57105 8.96443 5.67972 8.85578C5.78837 8.74713 5.92009 8.6928 6.07489 8.6928C6.22969 8.6928 6.36141 8.74713 6.47007 8.85578L9.26239 11.6481L15.7672 5.14328C15.8759 5.03463 16.0076 4.9803 16.1624 4.9803C16.3172 4.9803 16.4489 5.03463 16.5576 5.14328C16.6662 5.25193 16.7206 5.38558 16.7206 5.54423C16.7206 5.70288 16.6662 5.83653 16.5576 5.94518L9.7369 12.7658C9.66671 12.836 9.59267 12.8856 9.51478 12.9144C9.43691 12.9433 9.35278 12.9577 9.26239 12.9577ZM9.00276 9.2625L8.20086 8.47213L11.5182 5.15483C11.6268 5.04616 11.7605 4.99183 11.9191 4.99183C12.0778 4.99183 12.2114 5.04616 12.3201 5.15483C12.4287 5.26348 12.4831 5.3952 12.4831 5.55C12.4831 5.7048 12.4287 5.83653 12.3201 5.94518L9.00276 9.2625Z" fill="#1C9A07"/>
</svg>
