<svg width="24" height="24" viewBox="0 0 24 24" fill="none" xmlns="http://www.w3.org/2000/svg">
<path fill-rule="evenodd" clip-rule="evenodd" d="M14.25 2.5C14.25 2.36193 14.1381 2.25 14 2.25H7C5.48122 2.25 4.25 3.48122 4.25 5V19C4.25 20.5188 5.48122 21.75 7 21.75H17C18.5188 21.75 19.75 20.5188 19.75 19V9.14706C19.75 9.00899 19.6381 8.89706 19.5 8.89706H15C14.5858 8.89706 14.25 8.56127 14.25 8.14706V2.5ZM15 12.25C15.4142 12.25 15.75 12.5858 15.75 13C15.75 13.4142 15.4142 13.75 15 13.75H9C8.58579 13.75 8.25 13.4142 8.25 13C8.25 12.5858 8.58579 12.25 9 12.25H15ZM15 16.25C15.4142 16.25 15.75 16.5858 15.75 17C15.75 17.4142 15.4142 17.75 15 17.75H9C8.58579 17.75 8.25 17.4142 8.25 17C8.25 16.5858 8.58579 16.25 9 16.25H15Z" fill="#36E5E5"/>
<path d="M15.75 2.82416C15.75 2.63966 15.9426 2.52252 16.0862 2.63841C16.2071 2.73602 16.3158 2.85038 16.4085 2.97957L19.4217 7.17747C19.4903 7.27304 19.416 7.39708 19.2983 7.39708H16C15.8619 7.39708 15.75 7.28515 15.75 7.14708V2.82416Z" fill="#36E5E5"/>
</svg>
