
<svg width="24" height="24" viewBox="0 0 24 24" fill="none" xmlns="http://www.w3.org/2000/svg">
<rect width="24" height="24" rx="8" fill="white" fill-opacity="0.1"/>
<path fill-rule="evenodd" clip-rule="evenodd" d="M14.3526 5.60225C14.2471 5.49677 14.104 5.4375 13.9548 5.4375C13.8057 5.4375 13.6626 5.49677 13.5571 5.60225L6.66281 12.4966C6.59214 12.5672 6.54157 12.6554 6.51632 12.7521L5.76632 15.6235C5.71585 15.8167 5.77161 16.0222 5.91281 16.1633C6.05401 16.3046 6.2595 16.3603 6.45271 16.3099L9.32403 15.5599C9.42073 15.5346 9.50895 15.484 9.57963 15.4133L16.4739 8.51907C16.6935 8.29939 16.6935 7.94324 16.4739 7.72358L14.3526 5.60225ZM7.56622 13.1841L13.9548 6.79549L15.2807 8.12132L8.89205 14.5099L7.09748 14.9787L7.56622 13.1841Z" fill="#1BD9D9"/>
<path d="M6 17.4375C5.68934 17.4375 5.4375 17.6894 5.4375 18C5.4375 18.3106 5.68934 18.5625 6 18.5625H17.25C17.5606 18.5625 17.8125 18.3106 17.8125 18C17.8125 17.6894 17.5606 17.4375 17.25 17.4375H6Z" fill="#1BD9D9"/>
</svg>
