<svg width="28" height="28" viewBox="0 0 28 28" fill="none" xmlns="http://www.w3.org/2000/svg">
<rect width="28" height="28" rx="4" fill="#299B9B"/>
<path fill-rule="evenodd" clip-rule="evenodd" d="M17.1369 5.42182C16.9963 5.28117 16.8055 5.20215 16.6066 5.20215C16.4077 5.20215 16.2169 5.28117 16.0763 5.42182L6.88387 14.6142C6.78964 14.7084 6.72222 14.826 6.68855 14.9549L5.68855 18.7834C5.62126 19.041 5.6956 19.315 5.88387 19.5032C6.07214 19.6915 6.34613 19.7659 6.60374 19.6986L10.4322 18.6986C10.5611 18.6649 10.6787 18.5975 10.773 18.5032L19.9654 9.31091C20.2582 9.01801 20.2582 8.54314 19.9654 8.25025L17.1369 5.42182ZM8.08842 15.5309L16.6066 7.01281L18.3744 8.78058L9.85619 17.2987L7.46343 17.9237L8.08842 15.5309Z" fill="white"/>
<path d="M6 21.2021C5.58579 21.2021 5.25 21.5379 5.25 21.9521C5.25 22.3663 5.58579 22.7021 6 22.7021H21C21.4142 22.7021 21.75 22.3663 21.75 21.9521C21.75 21.5379 21.4142 21.2021 21 21.2021H6Z" fill="white"/>
</svg>
