<svg width="18" height="18" viewBox="0 0 18 18" fill="none" xmlns="http://www.w3.org/2000/svg">
<path fill-rule="evenodd" clip-rule="evenodd" d="M11.3527 2.60225C11.2472 2.49677 11.1041 2.4375 10.955 2.4375C10.8058 2.4375 10.6627 2.49677 10.5572 2.60225L3.66293 9.49657C3.59226 9.56722 3.54169 9.65543 3.51644 9.7521L2.76644 12.6235C2.71597 12.8167 2.77173 13.0222 2.91293 13.1633C3.05413 13.3046 3.25963 13.3603 3.45283 13.3099L6.32416 12.5599C6.42085 12.5346 6.50908 12.484 6.57975 12.4133L13.4741 5.51907C13.6937 5.29939 13.6937 4.94324 13.4741 4.72358L11.3527 2.60225ZM4.56634 10.1841L10.955 3.79549L12.2808 5.12132L5.89217 11.5099L4.0976 11.9787L4.56634 10.1841Z" fill="#299B9B"/>
<path d="M3 14.4375C2.68934 14.4375 2.4375 14.6894 2.4375 15C2.4375 15.3106 2.68934 15.5625 3 15.5625H14.25C14.5606 15.5625 14.8125 15.3106 14.8125 15C14.8125 14.6894 14.5606 14.4375 14.25 14.4375H3Z" fill="#299B9B"/>
</svg>
