<svg width="24" height="24" viewBox="0 0 24 24" fill="none" xmlns="http://www.w3.org/2000/svg">
<path d="M14.6855 11.5123L6.38379 10.0498V20.8566C6.38389 20.974 6.40711 21.0902 6.45213 21.1986C6.49715 21.307 6.56308 21.4055 6.64617 21.4885C6.72925 21.5714 6.82786 21.6372 6.93636 21.682C7.04487 21.7269 7.16114 21.7499 7.27854 21.7498H21.6035C21.7211 21.7501 21.8375 21.7272 21.9462 21.6825C22.0549 21.6377 22.1536 21.572 22.2369 21.489C22.3201 21.4061 22.3862 21.3075 22.4313 21.199C22.4764 21.0904 22.4997 20.9741 22.4998 20.8566V16.8748L14.6855 11.5123Z" fill="#185C37"/>
<path d="M14.6855 2.25H7.27854C7.16114 2.2499 7.04487 2.27293 6.93636 2.31776C6.82786 2.3626 6.72925 2.42837 6.64617 2.51132C6.56308 2.59426 6.49715 2.69276 6.45213 2.80119C6.40711 2.90962 6.38389 3.02585 6.38379 3.14325V7.125L14.6855 12L19.0813 13.4625L22.4998 12V7.125L14.6855 2.25Z" fill="#21A366"/>
<path d="M6.38379 7.125H14.6855V12H6.38379V7.125Z" fill="#107C41"/>
<path opacity="0.1" d="M12.3253 6.1499H6.38379V18.3374H12.3253C12.562 18.3362 12.7888 18.2418 12.9564 18.0746C13.124 17.9074 13.219 17.6809 13.2208 17.4442V7.04315C13.219 6.80641 13.124 6.57989 12.9564 6.4127C12.7888 6.2455 12.562 6.15108 12.3253 6.1499Z" fill="black"/>
<path opacity="0.2" d="M11.837 6.6377H6.38379V18.8252H11.837C12.0738 18.824 12.3005 18.7296 12.4682 18.5624C12.6358 18.3952 12.7308 18.1687 12.7325 17.9319V7.53095C12.7308 7.2942 12.6358 7.06769 12.4682 6.90049C12.3005 6.73329 12.0738 6.63887 11.837 6.6377Z" fill="black"/>
<path opacity="0.2" d="M11.837 6.6377H6.38379V17.8502H11.837C12.0738 17.849 12.3005 17.7546 12.4682 17.5874C12.6358 17.4202 12.7308 17.1937 12.7325 16.9569V7.53095C12.7308 7.2942 12.6358 7.06769 12.4682 6.90049C12.3005 6.73329 12.0738 6.63887 11.837 6.6377Z" fill="black"/>
<path opacity="0.2" d="M11.3488 6.6377H6.38379V17.8502H11.3488C11.5855 17.849 11.8123 17.7546 11.9799 17.5874C12.1475 17.4202 12.2425 17.1937 12.2443 16.9569V7.53095C12.2425 7.2942 12.1475 7.06769 11.9799 6.90049C11.8123 6.73329 11.5855 6.63887 11.3488 6.6377Z" fill="black"/>
<path d="M2.3955 6.6377H11.349C11.5862 6.6375 11.8137 6.73147 11.9816 6.89897C12.1496 7.06646 12.2441 7.29377 12.2445 7.53095V16.4694C12.2441 16.7066 12.1496 16.9339 11.9816 17.1014C11.8137 17.2689 11.5862 17.3629 11.349 17.3627H2.3955C2.27804 17.3629 2.16168 17.3399 2.05309 17.2951C1.9445 17.2504 1.84581 17.1846 1.76264 17.1016C1.67948 17.0187 1.61348 16.9202 1.56841 16.8117C1.52334 16.7032 1.5001 16.5869 1.5 16.4694V7.53095C1.5001 7.41348 1.52334 7.29719 1.56841 7.18871C1.61348 7.08023 1.67948 6.9817 1.76264 6.89875C1.84581 6.81579 1.9445 6.75004 2.05309 6.70525C2.16168 6.66045 2.27804 6.6375 2.3955 6.6377Z" fill="url(#paint0_linear_30_8304)"/>
<path d="M4.2749 14.9047L6.15815 11.9917L4.43315 9.09521H5.8184L6.75965 10.95C6.84665 11.1255 6.90965 11.256 6.93815 11.343H6.9509C7.0124 11.202 7.07765 11.0662 7.1459 10.9335L8.1524 9.09821H9.4274L7.65815 11.9782L9.4724 14.907H8.11565L7.02815 12.8737C6.97766 12.7863 6.93475 12.6947 6.8999 12.6H6.8819C6.85019 12.6923 6.80791 12.7806 6.7559 12.8632L5.63615 14.9047H4.2749Z" fill="white"/>
<path d="M21.6043 2.25H14.6855V7.125H22.4998V3.14325C22.4997 3.02579 22.4765 2.90949 22.4314 2.80102C22.3863 2.69254 22.3203 2.59401 22.2372 2.51105C22.154 2.4281 22.0553 2.36234 21.9467 2.31755C21.8381 2.27276 21.7218 2.2498 21.6043 2.25Z" fill="#33C481"/>
<path d="M14.6855 12H22.4998V16.875H14.6855V12Z" fill="#107C41"/>
<defs>
<linearGradient id="paint0_linear_30_8304" x1="3.3705" y1="5.9357" x2="10.374" y2="18.0647" gradientUnits="userSpaceOnUse">
<stop stop-color="#18884F"/>
<stop offset="0.5" stop-color="#117E43"/>
<stop offset="1" stop-color="#0B6631"/>
</linearGradient>
</defs>
</svg>
