<svg width="19" height="18" viewBox="0 0 19 18" fill="none" xmlns="http://www.w3.org/2000/svg">
<path d="M6.14775 4.89775C6.36741 4.67808 6.36741 4.32192 6.14775 4.10225C5.92808 3.88258 5.57192 3.88258 5.35225 4.10225L3.85225 5.60225C3.63258 5.82192 3.63258 6.17808 3.85225 6.39775L5.35225 7.89772C5.57192 8.1174 5.92808 8.1174 6.14775 7.89772C6.36741 7.67805 6.36741 7.32192 6.14775 7.10225L5.60799 6.5625H13.25C13.5606 6.5625 13.8125 6.31066 13.8125 6C13.8125 5.68934 13.5606 5.4375 13.25 5.4375H5.60799L6.14775 4.89775Z" fill="#8FA0A0"/>
<path d="M12.8523 10.1023C12.6326 10.322 12.6326 10.6781 12.8523 10.8977L13.392 11.4375H5.75C5.43934 11.4375 5.1875 11.6894 5.1875 12C5.1875 12.3107 5.43934 12.5625 5.75 12.5625H13.392L12.8523 13.1023C12.6326 13.322 12.6326 13.6781 12.8523 13.8977C13.0719 14.1174 13.428 14.1174 13.6477 13.8977L15.1477 12.3977C15.3674 12.1781 15.3674 11.822 15.1477 11.6023L13.6477 10.1023C13.428 9.88261 13.0719 9.88261 12.8523 10.1023Z" fill="#8FA0A0"/>
</svg>
