<svg width="17" height="19" viewBox="0 0 17 19" fill="none" xmlns="http://www.w3.org/2000/svg">
<path fill-rule="evenodd" clip-rule="evenodd" d="M14.2582 2.28121C10.2801 1.8366 6.26479 1.8366 2.28663 2.28121C2.01746 2.3113 1.88783 2.62695 2.05818 2.83752L5.5752 7.18504C6.83505 8.74244 7.52245 10.685 7.52245 12.6882V15.5774L9.02245 16.6774V12.6882C9.02245 10.685 9.70985 8.74244 10.9697 7.18504L14.4867 2.83752C14.657 2.62695 14.5274 2.3113 14.2582 2.28121ZM2.12002 0.790504C6.20891 0.333504 10.3359 0.333504 14.4248 0.790504C15.8718 0.952214 16.5686 2.649 15.6529 3.78093L12.1358 8.12844C11.0919 9.41894 10.5224 11.0284 10.5224 12.6882V18.1575C10.5224 18.4401 10.3635 18.6988 10.1114 18.8265C9.85935 18.9543 9.55685 18.9294 9.32895 18.7623L6.32895 16.5623C6.13627 16.421 6.02245 16.1964 6.02245 15.9575V12.6882C6.02245 11.0284 5.45293 9.41894 4.40901 8.12844L0.891988 3.78093C-0.0237017 2.649 0.673088 0.952214 2.12002 0.790504Z" fill="white"/>
</svg>
