<svg width="12" height="16" viewBox="0 0 12 16" fill="none" xmlns="http://www.w3.org/2000/svg">
<path fill-rule="evenodd" clip-rule="evenodd" d="M11.0626 6.87507L11.0578 7.05717L11.0626 7.25007L11.0581 7.43247L11.0626 7.62507L11.0582 7.80874L11.0626 8.00007L10.9408 13.3273C10.912 14.5913 9.95061 15.638 8.69369 15.7741C6.90314 15.968 5.09684 15.968 3.30627 15.7741C2.04933 15.638 1.08801 14.5913 1.05912 13.3273L0.937323 8.00007L0.941726 7.80747L0.937338 7.62507L0.941958 7.43322L0.937301 7.25007L0.942183 7.05799L0.937256 6.87507L1.06026 2.3016C1.06198 2.23779 1.06647 2.17464 1.07361 2.11228L1.0764 2.08591L1.07862 2.06465C1.13908 1.44658 1.48159 0.907507 1.98073 0.58401C2.01798 0.559245 2.05608 0.535657 2.09502 0.513307C2.13311 0.49077 2.17198 0.469395 2.2116 0.449227C2.45655 0.319957 2.72991 0.236167 3.02091 0.209377C5.00279 0.0269471 6.99719 0.0269471 8.97899 0.209385C9.26954 0.236122 9.54254 0.319687 9.78719 0.448612C9.82679 0.46875 9.86564 0.490095 9.90374 0.512602C9.94394 0.53562 9.98324 0.559957 10.0216 0.58554C10.5181 0.908317 10.8591 1.44459 10.9208 2.05955L10.9267 2.11528C10.9336 2.17667 10.938 2.23882 10.9396 2.3016L11.0626 6.87507ZM9.80564 2.24056L9.92339 7.39054L9.82799 10.9383C9.80654 11.7357 9.19221 12.3913 8.39774 12.4644C6.80256 12.6113 5.19734 12.6113 3.60218 12.4644C2.80773 12.3913 2.19339 11.7357 2.17194 10.9383L2.07654 7.39099L2.19429 2.24056C2.19454 2.22948 2.195 2.21845 2.19567 2.20747C2.24028 1.90576 2.41512 1.64533 2.66304 1.48717C2.75695 1.43821 2.86116 1.40575 2.97201 1.39375C4.98479 1.17577 7.01519 1.17577 9.02796 1.39375C9.13874 1.40575 9.24291 1.43819 9.33681 1.48711C9.58484 1.6453 9.75974 1.90586 9.80429 2.20771C9.80496 2.21862 9.80541 2.22957 9.80564 2.24056ZM5.99999 15.2751C6.62129 15.2751 7.12499 14.7714 7.12499 14.1501C7.12499 13.5287 6.62129 13.0251 5.99999 13.0251C5.37869 13.0251 4.87499 13.5287 4.87499 14.1501C4.87499 14.7714 5.37869 15.2751 5.99999 15.2751Z" fill="#8FA0A0"/>
</svg>
