<svg width="18" height="18" viewBox="0 0 18 18" fill="none" xmlns="http://www.w3.org/2000/svg">
<path fill-rule="evenodd" clip-rule="evenodd" d="M4.76412 1.06742C4.52009 1.1464 4.24333 1.363 4.11623 1.57454L4.02297 1.72971L4.01149 4.3221L4 6.91448H5.191H6.38199V6.62325C6.38199 6.34593 6.42167 6.21377 6.52148 6.15853C6.58048 6.12589 12.4195 6.12589 12.4785 6.15853C12.5783 6.21377 12.618 6.34593 12.618 6.62325V6.91448H13.809H15L14.9885 4.3221C14.9755 1.39523 15.0014 1.62061 14.6421 1.30228C14.5155 1.19012 14.3837 1.11467 14.2326 1.06782C14.0135 0.999861 13.9354 0.998774 9.48818 1.00034C5.12359 1.00187 4.95957 1.00418 4.76412 1.06742ZM5.60951 2.44895C5.68024 2.50198 5.68454 2.59987 5.68454 4.15469C5.68454 5.97096 5.69053 5.92853 5.43436 5.92853C5.19079 5.92853 5.19223 5.93896 5.19223 4.1606C5.19223 2.75228 5.20047 2.53405 5.25611 2.46826C5.33246 2.37792 5.50243 2.36864 5.60951 2.44895ZM6.87431 6.72749V6.91448H9.5H12.1257V6.72749V6.5405H9.5H6.87431V6.72749ZM4.01214 11.8868L4.02297 16.4511L4.11738 16.6211C4.23685 16.8361 4.41806 16.9933 4.6794 17.1086L4.88453 17.199H9.5H14.1155L14.3206 17.1086C14.5819 16.9933 14.7632 16.8361 14.8826 16.6211L14.977 16.4511L14.9879 11.8868L14.9987 7.32247H9.5H4.00131L4.01214 11.8868ZM5.60249 8.17243C5.68282 8.239 5.68454 8.28575 5.68454 10.3748C5.68454 12.2515 5.67683 12.5182 5.62067 12.5847C5.54095 12.679 5.38316 12.6825 5.27428 12.5922C5.19399 12.5257 5.19223 12.4789 5.19223 10.3978V8.27133L5.29295 8.1879C5.41508 8.08665 5.49422 8.08271 5.60249 8.17243ZM4.96273 17.6371C4.92067 17.728 4.98488 17.9266 5.0682 17.9636C5.18981 18.0175 7.16847 18.0091 7.25893 17.9543C7.29881 17.9302 7.34144 17.8465 7.35424 17.7673L7.37742 17.624H6.31048C5.72364 17.624 5.18611 17.6145 5.11592 17.6029C5.01975 17.5869 4.98205 17.5954 4.96273 17.6371ZM12.746 17.6149L11.6227 17.6251L11.6458 17.7679C11.6586 17.8466 11.7013 17.9302 11.7411 17.9543C11.7953 17.9872 12.069 17.998 12.8437 17.998C14.0198 17.998 14.023 17.9974 14.0294 17.7567C14.0328 17.6289 14.0214 17.6069 13.9514 17.6059C13.9062 17.6053 13.3638 17.6094 12.746 17.6149Z" fill="#8FA0A0"/>
</svg>
