<svg width="49" height="48" viewBox="0 0 49 48" fill="none" xmlns="http://www.w3.org/2000/svg">
<path d="M28.5 18C28.5 16.3431 29.8432 15 31.5 15C33.1568 15 34.5 16.3431 34.5 18C34.5 19.6569 33.1568 21 31.5 21C29.8432 21 28.5 19.6569 28.5 18Z" fill="#299B9B"/>
<path fill-rule="evenodd" clip-rule="evenodd" d="M15.0347 9.3171C21.3328 8.76962 27.6664 8.76962 33.9646 9.3171L36.985 9.57966C39.8752 9.8309 42.2166 12.0302 42.648 14.899C43.5552 20.9324 43.5552 27.0676 42.648 33.101C42.2166 35.9698 39.8752 38.169 36.985 38.4204L33.9646 38.6828C27.6664 39.2304 21.3328 39.2304 15.0347 38.6828L12.0142 38.4204C9.1241 38.169 6.78276 35.9698 6.35136 33.101C5.44408 27.0676 5.44408 20.9324 6.35136 14.899C6.78276 12.0302 9.1241 9.8309 12.0142 9.57966L15.0347 9.3171ZM33.7048 12.3058C27.5796 11.7734 21.4196 11.7734 15.2945 12.3058L12.274 12.5684C10.7654 12.6995 9.5432 13.8476 9.31802 15.3451C8.80294 18.7703 8.59536 22.23 8.69524 25.683L16.439 17.9393C16.7311 17.6472 17.1308 17.4885 17.5437 17.5006C17.9566 17.5128 18.3463 17.6947 18.6207 18.0035L25.9636 26.2642L31.0252 24.577C31.5914 24.3882 32.2154 24.553 32.6146 24.9966L39.6528 32.8168C39.6636 32.7634 39.673 32.7094 39.6812 32.6548C40.544 26.9172 40.544 21.0828 39.6812 15.3451C39.456 13.8476 38.2338 12.6995 36.7252 12.5684L33.7048 12.3058ZM37.74 35.176L31.0418 27.7338L25.974 29.423C25.4046 29.6128 24.7772 29.445 24.3784 28.9966L17.4354 21.1856L8.94804 29.673C9.0456 30.6692 9.16892 31.6634 9.31802 32.6548C9.5432 34.1524 10.7654 35.3004 12.274 35.4316L15.2945 35.6942C21.4196 36.2266 27.5796 36.2266 33.7048 35.6942L36.7252 35.4316C37.0826 35.4006 37.424 35.3124 37.74 35.176Z" fill="#299B9B"/>
</svg>
