<svg width="19" height="18" viewBox="0 0 19 18" fill="none" xmlns="http://www.w3.org/2000/svg">
<path d="M5.64846 5.16177C6.6336 4.17324 7.99495 3.5625 9.5 3.5625C12.5031 3.5625 14.9375 5.99696 14.9375 9C14.9375 12.0031 12.5031 14.4375 9.5 14.4375C6.49696 14.4375 4.0625 12.0031 4.0625 9C4.0625 8.68935 3.81066 8.4375 3.5 8.4375C3.18934 8.4375 2.9375 8.68935 2.9375 9C2.9375 12.6244 5.87563 15.5625 9.5 15.5625C13.1244 15.5625 16.0625 12.6244 16.0625 9C16.0625 5.37563 13.1244 2.4375 9.5 2.4375C7.68388 2.4375 6.03919 3.17597 4.8516 4.36764C4.83251 4.3868 4.81509 4.40698 4.79934 4.42801L3.85616 3.48484C3.75327 3.38195 3.60015 3.34786 3.46333 3.3974C3.32652 3.44693 3.2307 3.57114 3.21753 3.71605L2.95236 6.63286C2.94229 6.7437 2.98197 6.85328 3.06067 6.93198C3.13936 7.01068 3.24894 7.05035 3.35978 7.04027L6.2766 6.77511C6.4215 6.76193 6.54571 6.66613 6.59524 6.52931C6.64478 6.39249 6.6107 6.23937 6.50781 6.13649L5.58672 5.21539C5.60826 5.19926 5.62891 5.18139 5.64846 5.16177Z" fill="#8FA0A0"/>
<path d="M10.0625 5.25C10.0625 4.93934 9.81065 4.6875 9.5 4.6875C9.18935 4.6875 8.9375 4.93934 8.9375 5.25V9C8.9375 9.19395 9.0374 9.37417 9.20187 9.477L11.4519 10.8832C11.7153 11.0479 12.0624 10.9679 12.227 10.7044C12.3916 10.4409 12.3116 10.0939 12.0481 9.92925L10.0625 8.68822V5.25Z" fill="#8FA0A0"/>
</svg>
