<svg width="24" height="24" viewBox="0 0 24 24" fill="none" xmlns="http://www.w3.org/2000/svg">
<rect width="24" height="24" rx="8" fill="white" fill-opacity="0.1"/>
<path d="M7.46398 4.93596L7.46398 4.93595C7.47787 4.9314 7.49322 4.93008 7.49781 4.92969C7.4981 4.92967 7.49834 4.92964 7.49854 4.92963C7.50682 4.92888 7.51698 4.92823 7.52838 4.92764C7.55139 4.92645 7.58291 4.92533 7.62195 4.92426C7.7002 4.92212 7.81108 4.92013 7.94966 4.91828C8.22695 4.91457 8.61661 4.91141 9.08112 4.90881C10.0102 4.90362 11.2396 4.90067 12.47 4.9001C13.7004 4.89953 14.9321 4.90135 15.8659 4.90568C16.3327 4.90785 16.7253 4.91065 17.0061 4.9141C17.1464 4.91583 17.2591 4.91772 17.3394 4.91978C17.3795 4.92081 17.412 4.9219 17.436 4.92306C17.4479 4.92364 17.4584 4.92426 17.467 4.92497L17.467 4.92497C17.473 4.92546 17.4856 4.92649 17.497 4.92931L7.46398 4.93596ZM7.46398 4.93596C7.40785 4.95434 7.33252 4.99162 7.29135 5.02539L7.29131 5.02542M7.46398 4.93596L7.29131 5.02542M7.29131 5.02542C7.27965 5.035 7.27151 5.04639 7.26986 5.04869C7.26977 5.04882 7.2697 5.04892 7.26965 5.04899C7.26623 5.0537 7.26274 5.05893 7.25945 5.06403C7.25276 5.07439 7.24443 5.08803 7.23481 5.10421C7.21545 5.13679 7.18903 5.18275 7.15656 5.24024C7.09153 5.35537 7.00111 5.51871 6.89197 5.71804C6.67362 6.1168 6.37975 6.66071 6.06304 7.25356L6.15124 7.30068M7.29131 5.02542L6.15124 7.30068M6.15124 7.30068L6.06304 7.25356L4.9118 9.4086L4.89956 9.4315M6.15124 7.30068L4.89956 9.4315M4.89956 9.4315L4.90002 9.45746L4.90439 9.7078M4.89956 9.4315L4.90439 9.7078M4.90439 9.7078C4.90439 9.7078 4.90439 9.7078 4.90439 9.70781C4.91229 10.1619 5.07254 10.6457 5.34015 11.0264L4.90439 9.7078ZM6.40666 19.0228L6.40665 19.0228C6.40208 19.0199 6.39628 19.0166 6.38961 19.0129C6.35441 18.9932 6.29471 18.9597 6.25916 18.8832C6.22318 18.8058 6.20652 18.6817 6.19588 18.4648C6.17646 18.0687 6.17659 17.3016 6.17684 15.7757C6.17688 15.5909 6.17691 15.395 6.17691 15.1872V11.755L6.05871 11.6878C5.94178 11.6213 5.8018 11.5117 5.67329 11.3933C5.54458 11.2748 5.4214 11.142 5.34016 11.0264L6.40666 19.0228ZM6.40666 19.0228C6.42534 19.0349 6.44708 19.0467 6.48293 19.0557C6.51443 19.0636 6.55559 19.0691 6.61401 19.0735C6.73148 19.0823 6.93846 19.0881 7.32151 19.092C8.0893 19.0998 9.57647 19.1 12.5 19.1C15.4235 19.1 16.9107 19.0998 17.6785 19.092C18.0615 19.0881 18.2685 19.0823 18.386 19.0735C18.4444 19.0691 18.4856 19.0636 18.5171 19.0557C18.5529 19.0467 18.5747 19.0349 18.5933 19.0228L18.5933 19.0228M6.40666 19.0228L18.5933 19.0228M18.5933 19.0228C18.5979 19.0199 18.6037 19.0166 18.6104 19.0129C18.6456 18.9932 18.7053 18.9597 18.7408 18.8832C18.7768 18.8058 18.7935 18.6817 18.8041 18.4648C18.8235 18.0687 18.8234 17.3015 18.8232 15.7757C18.8231 15.5909 18.8231 15.395 18.8231 15.1872V11.755L18.9466 11.6848L18.9466 11.6848M18.5933 19.0228L18.9466 11.6848M18.9466 11.6848C19.617 11.3039 20.0851 10.4964 20.0964 9.70749L20.1 9.45715L20.1004 9.43137M18.9466 11.6848L20.1004 9.43137M20.1004 9.43137L20.0882 9.40863M20.1004 9.43137L20.0882 9.40863M20.0882 9.40863L18.9607 7.29637M20.0882 9.40863L18.9607 7.29637M8.92616 11.0483L8.86631 11.1278L8.86631 11.1278C8.48552 11.6339 7.81873 11.9787 7.20918 11.9804H7.20917L7.11076 11.9806V18.102H8.19985L8.20984 16.7497C8.20984 16.7497 8.20984 16.7497 8.20984 16.7496C8.21463 15.7533 8.21863 15.1906 8.227 14.8599C8.23527 14.5335 8.24761 14.421 8.27505 14.336L8.37022 14.3668L8.27505 14.336C8.43407 13.8436 8.80039 13.4739 9.26132 13.3579C9.33635 13.3391 9.46759 13.3268 9.61705 13.319C9.76966 13.311 9.9504 13.3072 10.13 13.3075C10.3095 13.3078 10.4889 13.3122 10.639 13.3207C10.7851 13.329 10.9137 13.3416 10.9846 13.3613C11.5021 13.505 11.8846 13.94 11.9818 14.4862L8.92616 11.0483ZM8.92616 11.0483C8.97608 11.1144 9.07298 11.2246 9.16003 11.3153C9.16003 11.3153 9.16003 11.3153 9.16003 11.3153L9.2322 11.2461L8.92616 11.0483ZM15.4369 11.6497L15.4369 11.6497C15.322 11.722 15.1211 11.8204 14.986 11.8706C14.8764 11.9114 14.8004 11.9365 14.6996 11.9498C14.6026 11.9625 14.4844 11.9639 14.2904 11.9636C14.1001 11.9633 13.9814 11.9611 13.8832 11.9485C13.7817 11.9355 13.7044 11.9116 13.5964 11.873C13.2345 11.7434 12.9821 11.5709 12.6851 11.2546L12.5022 11.0598L15.4369 11.6497ZM15.4369 11.6497C15.5431 11.5828 15.6781 11.4697 15.7989 11.3539C15.9064 11.2509 16.0096 11.1392 16.0743 11.0488M15.4369 11.6497L16.0743 11.0488M16.0743 11.0488L16.1337 11.1278L16.2136 11.0677L16.1337 11.1278C16.5145 11.6339 17.1813 11.9787 17.7908 11.9804L17.8892 11.9806V18.102H12.0129V16.8249C12.0129 16.1663 12.01 15.611 12.0049 15.2074C12.0023 15.0056 11.9992 14.8414 11.9955 14.7211C11.992 14.6052 11.9879 14.5206 11.9818 14.4862L16.0743 11.0488ZM10.8269 14.3407L10.8269 14.3407C10.7903 14.3228 10.754 14.3105 10.6569 14.3031C10.5559 14.2953 10.3986 14.2934 10.1223 14.2934C9.84535 14.2934 9.68809 14.2953 9.58737 14.303C9.49066 14.3105 9.45469 14.3228 9.41793 14.3409L9.41793 14.3409C9.3036 14.3971 9.22784 14.4799 9.19262 14.5754C9.19248 14.5763 9.19232 14.5774 9.19213 14.5787C9.19125 14.5852 9.19023 14.5948 9.18915 14.6083C9.18701 14.635 9.18495 14.6729 9.183 14.7226C9.17913 14.8217 9.17589 14.9643 9.17329 15.1515C9.16811 15.5257 9.16556 16.0756 9.16556 16.807V18.102H11.0791V16.8196C11.0791 15.8826 11.0776 15.3399 11.0712 15.0189C11.068 14.8582 11.0636 14.7552 11.0578 14.6869L10.8269 14.3407ZM10.8269 14.3407C10.8898 14.3715 10.9283 14.3992 10.9575 14.4318C10.9871 14.4648 11.0126 14.5088 11.0408 14.5807L10.8269 14.3407ZM18.9607 7.29637C18.6505 6.71526 18.3596 6.17694 18.1408 5.7777M18.9607 7.29637L18.1408 5.7777M18.1408 5.7777C18.0314 5.57813 17.9399 5.41305 17.8729 5.29467M18.1408 5.7777L17.8729 5.29467M17.8729 5.29467C17.8394 5.23554 17.8119 5.18764 17.7912 5.15275M17.8729 5.29467L17.7912 5.15275M17.7912 5.15275C17.7808 5.13536 17.7719 5.12066 17.7646 5.10919M17.7912 5.15275L17.7646 5.10919M17.7646 5.10919C17.7588 5.10022 17.75 5.08652 17.741 5.07646M17.7646 5.10919L17.741 5.07646M17.741 5.07646C17.7106 5.04234 17.6692 5.01107 17.6288 4.98671M17.741 5.07646C17.741 5.07646 17.741 5.07647 17.741 5.07647L17.6288 4.98671M17.6288 4.98671C17.5884 4.96235 17.5414 4.94029 17.497 4.92931L17.6288 4.98671ZM6.06543 10.3998L6.06542 10.3998C6.03076 10.3461 5.97549 10.2283 5.92753 10.1095C5.90612 10.0565 5.88705 10.0055 5.87277 9.96285C5.93114 9.95979 6.0121 9.95709 6.11493 9.95484C6.35148 9.94965 6.69934 9.94688 7.14341 9.94688H8.41276C8.19257 10.8263 7.28846 11.2488 6.52998 10.8383C6.37584 10.7549 6.16941 10.561 6.06543 10.3998ZM9.76625 10.5514L9.76624 10.5513C9.61591 10.3783 9.48098 10.1203 9.44314 9.94688H11.9804L11.978 9.96312C11.9656 10.0455 11.9244 10.156 11.8609 10.2727C11.7981 10.3883 11.7172 10.5033 11.6313 10.5951C11.1157 11.146 10.2665 11.1274 9.76625 10.5514ZM16.5984 9.97817H19.1288C19.0807 10.1601 18.9368 10.4164 18.7835 10.5803C18.3344 11.0604 17.6762 11.1357 17.1483 10.7719C16.8784 10.5859 16.7003 10.3323 16.6 9.98353L16.5039 10.0112L16.6 9.98352L16.5984 9.97817ZM18.7608 8.94932L15.7133 8.95686C13.946 8.96124 11.0539 8.96124 9.28664 8.95686L6.23874 8.94932L7.84877 5.91279L17.1499 5.92568L18.7608 8.94932ZM13.0156 9.94688H15.557C15.5129 10.1602 15.3903 10.3793 15.2198 10.563C15.045 10.7515 14.8261 10.896 14.6047 10.9589C14.1252 11.095 13.539 10.8774 13.2426 10.4469C13.187 10.3663 13.1282 10.2541 13.0832 10.1477C13.0608 10.0949 13.0424 10.045 13.0298 10.0029C13.023 9.98013 13.0184 9.96147 13.0156 9.94688Z" fill="white" stroke="white" stroke-width="0.2"/>
</svg>
