<svg width="16" height="19" viewBox="0 0 16 19" fill="none" xmlns="http://www.w3.org/2000/svg">
<path d="M9.79576 1.13609C8.81336 0.121468 7.18606 0.121468 6.20366 1.13608L1.40522 6.09182C1.12963 6.37643 0.944448 6.73624 0.872988 7.1259C0.290228 10.3039 0.247208 13.5573 0.745748 16.7496L0.922248 17.8798C0.977998 18.2368 1.28546 18.5 1.64677 18.5H4.99973C5.27587 18.5 5.49973 18.2761 5.49973 18V11H10.4998V18C10.4998 18.2761 10.7236 18.5 10.9998 18.5H14.3527C14.714 18.5 15.0215 18.2368 15.0772 17.8798L15.2537 16.7496C15.7522 13.5573 15.7092 10.3039 15.1265 7.1259C15.055 6.73624 14.8698 6.37643 14.5942 6.09182L9.79576 1.13609Z" fill="#36E5E5"/>
</svg>
