<svg width="24" height="24" viewBox="0 0 24 24" fill="none" xmlns="http://www.w3.org/2000/svg">
<rect width="24" height="24" rx="8" fill="white" fill-opacity="0.1"/>
<path fill-rule="evenodd" clip-rule="evenodd" d="M13.1677 7.15055C12.5148 6.52403 11.4838 6.52403 10.831 7.15055L7.36112 10.4801C7.2761 10.5616 7.21892 10.6679 7.19766 10.7838C6.78206 13.0502 6.75139 15.3704 7.10692 17.647L7.19131 18.1874H9.42365V13.5289C9.42365 13.2182 9.6755 12.9664 9.98615 12.9664H14.0125C14.3231 12.9664 14.575 13.2182 14.575 13.5289V18.1874H16.8073L16.8917 17.647C17.2472 15.3704 17.2165 13.0502 16.801 10.7838C16.7797 10.6679 16.7225 10.5616 16.6375 10.4801L13.1677 7.15055ZM10.052 6.33881C11.1403 5.29462 12.8584 5.29462 13.9466 6.33881L17.4164 9.66831C17.6719 9.91341 17.8437 10.2327 17.9075 10.5809C18.3459 12.9716 18.3783 15.4191 18.0032 17.8206L17.8677 18.6887C17.8116 19.0477 17.5024 19.3124 17.139 19.3124H14.0125C13.7018 19.3124 13.45 19.0605 13.45 18.7499V14.0914H10.5487V18.7499C10.5487 19.0605 10.2968 19.3124 9.98615 19.3124H6.85961C6.49625 19.3124 6.18703 19.0477 6.13097 18.6887L5.9954 17.8206C5.62036 15.4191 5.65272 12.9716 6.09112 10.5809C6.15497 10.2327 6.32678 9.91341 6.5822 9.66831L10.052 6.33881Z" fill="white"/>
</svg>
