<svg width="18" height="18" viewBox="0 0 18 18" fill="none" xmlns="http://www.w3.org/2000/svg">
<path d="M10.5 6.75C10.5 6.12868 11.0037 5.625 11.625 5.625C12.2463 5.625 12.75 6.12868 12.75 6.75C12.75 7.37132 12.2463 7.875 11.625 7.875C11.0037 7.875 10.5 7.37132 10.5 6.75Z" fill="#8FA0A0"/>
<path fill-rule="evenodd" clip-rule="evenodd" d="M5.45088 3.49391C7.81268 3.28861 10.1878 3.28861 12.5496 3.49391L13.6823 3.59237C14.7661 3.68659 15.6441 4.51133 15.8059 5.58712C16.1461 7.84965 16.1461 10.1504 15.8059 12.4129C15.6441 13.4887 14.7661 14.3134 13.6823 14.4077L12.5496 14.5061C10.1878 14.7114 7.81268 14.7114 5.45088 14.5061L4.31821 14.4077C3.2344 14.3134 2.3564 13.4887 2.19463 12.4129C1.8544 10.1504 1.8544 7.84965 2.19463 5.58712C2.3564 4.51133 3.2344 3.68659 4.31821 3.59237L5.45088 3.49391ZM12.4522 4.61469C10.1552 4.41502 7.84523 4.41502 5.5483 4.61469L4.41563 4.71315C3.84988 4.76233 3.39157 5.19284 3.30712 5.75441C3.11397 7.03887 3.03613 8.33625 3.07358 9.63113L5.97748 6.72725C6.08702 6.61771 6.2369 6.5582 6.39175 6.56274C6.54661 6.56729 6.69272 6.63551 6.79564 6.7513L9.54923 9.84908L11.4473 9.21638C11.6597 9.14558 11.8937 9.20738 12.0434 9.37373L14.6827 12.3063C14.6867 12.2863 14.6903 12.266 14.6933 12.2456C15.0169 10.094 15.0169 7.90605 14.6933 5.75441C14.6089 5.19284 14.1506 4.76233 13.5848 4.71315L12.4522 4.61469ZM13.9654 13.191L11.4536 10.4002L9.55313 11.0336C9.33961 11.1048 9.10433 11.0419 8.95478 10.8737L6.35114 7.9446L3.16838 11.1274C3.20497 11.501 3.25121 11.8738 3.30712 12.2456C3.39157 12.8072 3.84988 13.2377 4.41563 13.2869L5.54831 13.3853C7.84523 13.585 10.1552 13.585 12.4522 13.3853L13.5848 13.2869C13.7189 13.2752 13.8469 13.2422 13.9654 13.191Z" fill="#8FA0A0"/>
</svg>
