<svg width="18" height="18" viewBox="0 0 18 18" fill="none" xmlns="http://www.w3.org/2000/svg">
<path d="M9 8.0625C9.31065 8.0625 9.5625 8.31435 9.5625 8.625V12.375C9.5625 12.6856 9.31065 12.9375 9 12.9375C8.68935 12.9375 8.4375 12.6856 8.4375 12.375V8.625C8.4375 8.31435 8.68935 8.0625 9 8.0625Z" fill="#8FA0A0"/>
<path d="M9 6.75C9.41422 6.75 9.75 6.41421 9.75 6C9.75 5.58579 9.41422 5.25 9 5.25C8.58578 5.25 8.25 5.58579 8.25 6C8.25 6.41421 8.58578 6.75 9 6.75Z" fill="#8FA0A0"/>
<path fill-rule="evenodd" clip-rule="evenodd" d="M2.4375 9C2.4375 5.37563 5.37563 2.4375 9 2.4375C12.6244 2.4375 15.5625 5.37563 15.5625 9C15.5625 12.6244 12.6244 15.5625 9 15.5625C5.37563 15.5625 2.4375 12.6244 2.4375 9ZM9 3.5625C5.99696 3.5625 3.5625 5.99696 3.5625 9C3.5625 12.0031 5.99696 14.4375 9 14.4375C12.0031 14.4375 14.4375 12.0031 14.4375 9C14.4375 5.99696 12.0031 3.5625 9 3.5625Z" fill="#8FA0A0"/>
</svg>
