<svg width="18" height="18" viewBox="0 0 18 18" fill="none" xmlns="http://www.w3.org/2000/svg">
<path d="M10.125 7.3125C10.125 7.00183 9.87315 6.75 9.5625 6.75H5.0625C4.75184 6.75 4.5 7.00183 4.5 7.3125C4.5 7.62314 4.75184 7.87498 5.0625 7.87498H9.5625C9.87315 7.87498 10.125 7.62314 10.125 7.3125Z" fill="#8FA0A0"/>
<path d="M9.375 9.5625C9.375 9.25185 9.12315 9 8.8125 9H5.0625C4.75184 9 4.5 9.25185 4.5 9.5625C4.5 9.87315 4.75184 10.125 5.0625 10.125H8.8125C9.12315 10.125 9.375 9.87315 9.375 9.5625Z" fill="#8FA0A0"/>
<path d="M9.5625 11.25C9.87315 11.25 10.125 11.5018 10.125 11.8125C10.125 12.1232 9.87315 12.375 9.5625 12.375H5.0625C4.75184 12.375 4.5 12.1232 4.5 11.8125C4.5 11.5018 4.75184 11.25 5.0625 11.25H9.5625Z" fill="#8FA0A0"/>
<path fill-rule="evenodd" clip-rule="evenodd" d="M4.5 16.3125H14.25C15.3891 16.3125 16.3125 15.3891 16.3125 14.25V10.125C16.3125 9.81437 16.0607 9.56252 15.75 9.56252H13.3125V3.70742C13.3125 2.63987 12.1058 2.0189 11.2371 2.6394L11.1059 2.73317C10.5205 3.15129 9.72757 3.14989 9.13942 2.72981C8.16157 2.03131 6.83846 2.03131 5.86055 2.72981C5.27244 3.14989 4.47953 3.15129 3.89416 2.73317L3.76288 2.6394C2.89417 2.0189 1.6875 2.63987 1.6875 3.70742V13.5C1.6875 15.0533 2.9467 16.3125 4.5 16.3125ZM6.51445 3.64526C7.10119 3.22616 7.89885 3.22616 8.48558 3.64526C9.46208 4.34278 10.7804 4.3481 11.7597 3.64862L11.891 3.55485C12.0152 3.46621 12.1875 3.55492 12.1875 3.70742V14.25C12.1875 14.5876 12.2686 14.9063 12.4124 15.1875H4.5C3.56802 15.1875 2.8125 14.432 2.8125 13.5V3.70742C2.8125 3.55492 2.98488 3.46621 3.10898 3.55485L3.24027 3.64862C4.21954 4.3481 5.53793 4.34277 6.51445 3.64526ZM13.3125 14.25V10.6875H15.1875V14.25C15.1875 14.7678 14.7678 15.1875 14.25 15.1875C13.7322 15.1875 13.3125 14.7678 13.3125 14.25Z" fill="#8FA0A0"/>
</svg>
