<svg width="25" height="24" viewBox="0 0 25 24" fill="none" xmlns="http://www.w3.org/2000/svg">
<path fill-rule="evenodd" clip-rule="evenodd" d="M7.75 10C7.75 7.37665 9.87665 5.25 12.5 5.25C15.1233 5.25 17.25 7.37665 17.25 10C17.25 12.6234 15.1233 14.75 12.5 14.75C9.87665 14.75 7.75 12.6234 7.75 10ZM12.5 6.75C10.7051 6.75 9.25 8.20507 9.25 10C9.25 11.7949 10.7051 13.25 12.5 13.25C14.2949 13.25 15.75 11.7949 15.75 10C15.75 8.20507 14.2949 6.75 12.5 6.75Z" fill="#B0CCCC"/>
<path fill-rule="evenodd" clip-rule="evenodd" d="M4.02439 8.85685C4.37872 4.55824 7.97087 1.25 12.284 1.25H12.716C17.0292 1.25 20.6213 4.55824 20.9756 8.85685C21.166 11.166 20.4527 13.4589 18.986 15.2526L14.193 21.1144C13.318 22.1845 11.682 22.1845 10.807 21.1144L6.01399 15.2526C4.54733 13.4589 3.83405 11.166 4.02439 8.85685ZM12.284 2.75C8.75152 2.75 5.80951 5.45948 5.51932 8.98008C5.3609 10.9019 5.95455 12.8102 7.17521 14.3031L11.9682 20.1649C12.2431 20.501 12.7569 20.501 13.0318 20.1649L17.8248 14.3031C19.0455 12.8102 19.6391 10.9019 19.4807 8.98008C19.1905 5.45948 16.2485 2.75 12.716 2.75H12.284Z" fill="#B0CCCC"/>
</svg>
