<svg width="28" height="28" viewBox="0 0 28 28" fill="none" xmlns="http://www.w3.org/2000/svg">
<rect width="28" height="28" rx="4" fill="white" fill-opacity="0.1"/>
<path fill-rule="evenodd" clip-rule="evenodd" d="M10.1914 11.2308C10.1914 9.15977 11.8703 7.48083 13.9414 7.48083C16.0125 7.48083 17.6914 9.15977 17.6914 11.2308C17.6914 13.3019 16.0125 14.9808 13.9414 14.9808C11.8703 14.9808 10.1914 13.3019 10.1914 11.2308ZM13.9414 8.98083C12.6988 8.98083 11.6914 9.98819 11.6914 11.2308C11.6914 12.4734 12.6988 13.4808 13.9414 13.4808C15.184 13.4808 16.1914 12.4734 16.1914 11.2308C16.1914 9.98819 15.184 8.98083 13.9414 8.98083Z" fill="white"/>
<path fill-rule="evenodd" clip-rule="evenodd" d="M7.39783 10.3581C7.67159 7.03687 10.447 4.48083 13.7794 4.48083H14.1034C17.4359 4.48083 20.2112 7.03687 20.485 10.3581C20.6317 12.1383 20.0818 13.9061 18.9511 15.2889L15.3563 19.6853C14.625 20.5796 13.2578 20.5796 12.5265 19.6853L8.93174 15.2889C7.801 13.906 7.25109 12.1383 7.39783 10.3581ZM13.7794 5.98083C11.2276 5.98083 9.10239 7.93809 8.89276 10.4813C8.77794 11.8743 9.20822 13.2574 10.093 14.3394L13.6877 18.7358C13.8188 18.8961 14.064 18.8961 14.1951 18.7358L17.7899 14.3394C18.6746 13.2574 19.1049 11.8743 18.9901 10.4813C18.7804 7.93809 16.6552 5.98083 14.1034 5.98083H13.7794Z" fill="white"/>
<path d="M9.61223 18.5662C9.79747 18.1957 9.6473 17.7452 9.27682 17.56C8.90634 17.3747 8.45583 17.5249 8.27059 17.8954L6.27059 21.8954C6.15434 22.1279 6.16677 22.404 6.30342 22.6251C6.44008 22.8462 6.68148 22.9808 6.94141 22.9808H20.9414C21.2013 22.9808 21.4427 22.8462 21.5794 22.6251C21.716 22.404 21.7285 22.1279 21.6122 21.8954L19.6122 17.8954C19.427 17.5249 18.9765 17.3747 18.606 17.56C18.2355 17.7452 18.0853 18.1957 18.2706 18.5662L19.7279 21.4808H8.15494L9.61223 18.5662Z" fill="white"/>
</svg>
