<svg width="24" height="24" viewBox="0 0 24 24" fill="none" xmlns="http://www.w3.org/2000/svg">
<rect width="24" height="24" rx="8" fill="white" fill-opacity="0.1"/>
<path fill-rule="evenodd" clip-rule="evenodd" d="M8.4375 10.5C8.4375 8.53249 10.0325 6.9375 12 6.9375C13.9675 6.9375 15.5625 8.53249 15.5625 10.5C15.5625 12.4675 13.9675 14.0625 12 14.0625C10.0325 14.0625 8.4375 12.4675 8.4375 10.5ZM12 8.0625C10.6538 8.0625 9.5625 9.1538 9.5625 10.5C9.5625 11.8462 10.6538 12.9375 12 12.9375C13.3462 12.9375 14.4375 11.8462 14.4375 10.5C14.4375 9.1538 13.3462 8.0625 12 8.0625Z" fill="white"/>
<path fill-rule="evenodd" clip-rule="evenodd" d="M5.64378 9.64264C5.90953 6.41868 8.60364 3.9375 11.8385 3.9375H12.1625C15.3974 3.9375 18.0915 6.41868 18.3572 9.64264C18.5 11.3745 17.965 13.0942 16.865 14.4394L13.2703 18.8358C12.614 19.6384 11.387 19.6384 10.7308 18.8358L7.13598 14.4394C6.03598 13.0942 5.50102 11.3745 5.64378 9.64264ZM11.8385 5.0625C9.18913 5.0625 6.98262 7.09461 6.76498 9.73506C6.64616 11.1764 7.0914 12.6076 8.00689 13.7273L11.6017 18.1237C11.8078 18.3757 12.1932 18.3757 12.3994 18.1237L15.9941 13.7273C16.9096 12.6076 17.3548 11.1764 17.236 9.73506C17.0184 7.09461 14.8119 5.0625 12.1625 5.0625H11.8385Z" fill="white"/>
</svg>
