<svg width="24" height="24" viewBox="0 0 24 24" fill="none" xmlns="http://www.w3.org/2000/svg">
<rect width="24" height="24" rx="8" fill="white" fill-opacity="0.1"/>
<path d="M11.8939 17.7419C11.5676 17.7419 11.303 18.0236 11.303 18.371C11.303 18.7184 11.5676 19 11.8939 19H16.6212C17.3827 19 18 18.3429 18 17.5323V7.46774C18 6.65713 17.3827 6 16.6212 6H11.8939C11.5676 6 11.303 6.28163 11.303 6.62903C11.303 6.97643 11.5676 7.25806 11.8939 7.25806H16.6212C16.73 7.25806 16.8182 7.35194 16.8182 7.46774V17.5323C16.8182 17.6481 16.73 17.7419 16.6212 17.7419H11.8939Z" fill="#FF6464"/>
<path fill-rule="evenodd" clip-rule="evenodd" d="M13.8661 14.4837C14.41 14.4837 14.8509 14.0144 14.8509 13.4353V11.5562C14.8509 10.9772 14.41 10.5078 13.8661 10.5078H10.2319C10.2268 10.4462 10.2214 10.3847 10.2158 10.3231L10.1732 9.85689C10.1082 9.14557 9.39868 8.71958 8.79325 9.02845C7.50568 9.68532 6.34006 10.5842 5.35246 11.6818L5.27431 11.7687C4.90857 12.1753 4.90857 12.8163 5.2743 13.2228L5.35246 13.3097C6.34006 14.4073 7.50568 15.3062 8.79325 15.9631C9.39867 16.2719 10.1082 15.8459 10.1732 15.1346L10.2158 14.6684C10.2214 14.6068 10.2268 14.5453 10.2319 14.4837H13.8661ZM9.68403 13.2257C9.47416 13.2257 9.28863 13.3425 9.1837 13.5199C9.1326 13.6063 9.10062 13.707 9.09426 13.8155C9.07997 14.0595 9.0617 14.3032 9.03948 14.5467L9.02712 14.6821C8.21084 14.2342 7.45279 13.6765 6.77145 13.0233C6.59468 12.8538 6.42308 12.6779 6.25697 12.4958C7.06339 11.6117 7.99907 10.8735 9.02712 10.3095L9.03948 10.4448C9.0617 10.6883 9.07997 10.932 9.09426 11.176C9.11369 11.5076 9.37195 11.7659 9.68403 11.7659H13.6691V13.2257H9.68403Z" fill="#FF6464"/>
</svg>
