<svg width="18" height="18" viewBox="0 0 18 18" fill="none" xmlns="http://www.w3.org/2000/svg">
<path fill-rule="evenodd" clip-rule="evenodd" d="M15.4323 0.301724C16.5574 -0.102492 17.5392 1.01641 17.1851 2.05994L17.0706 2.39749C15.324 7.54457 13.1275 12.5121 10.5077 17.2401C9.85505 18.4178 8.20826 17.9748 8.02049 16.7736L7.20223 11.5407C7.11889 11.0079 6.71263 10.6052 6.22617 10.5249L1.13829 9.68451C-0.0905144 9.48154 -0.426894 7.81853 0.668096 7.1763C5.26592 4.47964 10.0975 2.21825 15.1041 0.419616L15.4323 0.301724ZM15.6881 1.80369L15.6113 1.83128C10.8173 3.55352 6.18642 5.70768 1.77208 8.26885L6.47067 9.045C7.61898 9.23466 8.50456 10.1604 8.68414 11.309L9.43103 16.0854C11.9037 11.5646 13.9847 6.82322 15.6501 1.91547L15.6881 1.80369Z" fill="white"/>
</svg>
