<svg width="25" height="25" viewBox="0 0 25 25" fill="none" xmlns="http://www.w3.org/2000/svg">
<path fill-rule="evenodd" clip-rule="evenodd" d="M9.19141 9.23083C9.19141 7.15977 10.8703 5.48083 12.9414 5.48083C15.0125 5.48083 16.6914 7.15977 16.6914 9.23083C16.6914 11.3019 15.0125 12.9808 12.9414 12.9808C10.8703 12.9808 9.19141 11.3019 9.19141 9.23083ZM12.9414 6.98083C11.6988 6.98083 10.6914 7.98819 10.6914 9.23083C10.6914 10.4734 11.6988 11.4808 12.9414 11.4808C14.184 11.4808 15.1914 10.4734 15.1914 9.23083C15.1914 7.98819 14.184 6.98083 12.9414 6.98083Z" fill="white"/>
<path fill-rule="evenodd" clip-rule="evenodd" d="M6.39783 8.35808C6.67159 5.03687 9.44697 2.48083 12.7794 2.48083H13.1034C16.4359 2.48083 19.2112 5.03687 19.485 8.35808C19.6317 10.1383 19.0818 11.9061 17.9511 13.2889L14.3563 17.6853C13.625 18.5796 12.2578 18.5796 11.5265 17.6853L7.93174 13.2889C6.801 11.906 6.25109 10.1383 6.39783 8.35808ZM12.7794 3.98083C10.2276 3.98083 8.10239 5.93809 7.89276 8.48129C7.77794 9.87426 8.20822 11.2574 9.09296 12.3394L12.6877 16.7358C12.8188 16.8961 13.064 16.8961 13.1951 16.7358L16.7899 12.3394C17.6746 11.2574 18.1049 9.87426 17.9901 8.48129C17.7804 5.93809 15.6552 3.98083 13.1034 3.98083H12.7794Z" fill="white"/>
<path d="M8.61223 16.5662C8.79747 16.1957 8.6473 15.7452 8.27682 15.56C7.90634 15.3747 7.45583 15.5249 7.27059 15.8954L5.27059 19.8954C5.15434 20.1279 5.16677 20.404 5.30342 20.6251C5.44008 20.8462 5.68148 20.9808 5.94141 20.9808H19.9414C20.2013 20.9808 20.4427 20.8462 20.5794 20.6251C20.716 20.404 20.7285 20.1279 20.6122 19.8954L18.6122 15.8954C18.427 15.5249 17.9765 15.3747 17.606 15.56C17.2355 15.7452 17.0853 16.1957 17.2706 16.5662L18.7279 19.4808H7.15494L8.61223 16.5662Z" fill="white"/>
</svg>
