<svg width="28" height="28" viewBox="0 0 28 28" fill="none" xmlns="http://www.w3.org/2000/svg">
<rect width="28" height="28" rx="4" fill="white" fill-opacity="0.1"/>
<path fill-rule="evenodd" clip-rule="evenodd" d="M23.0423 14C23.0423 13.5168 22.6506 13.125 22.1673 13.125H5.83398C5.35074 13.125 4.95898 13.5168 4.95898 14C4.95898 14.4832 5.35074 14.875 5.83398 14.875H22.1673C22.6506 14.875 23.0423 14.4832 23.0423 14Z" fill="white" fill-opacity="0.5"/>
<path fill-rule="evenodd" clip-rule="evenodd" d="M23.0423 8.1665C23.0423 7.68326 22.6506 7.2915 22.1673 7.2915H5.83398C5.35074 7.2915 4.95898 7.68326 4.95898 8.1665C4.95898 8.64975 5.35074 9.0415 5.83398 9.0415H22.1673C22.6506 9.0415 23.0423 8.64975 23.0423 8.1665Z" fill="white"/>
<path fill-rule="evenodd" clip-rule="evenodd" d="M23.0423 19.8335C23.0423 19.3503 22.6506 18.9585 22.1673 18.9585H5.83398C5.35074 18.9585 4.95898 19.3503 4.95898 19.8335C4.95898 20.3167 5.35074 20.7085 5.83398 20.7085H22.1673C22.6506 20.7085 23.0423 20.3167 23.0423 19.8335Z" fill="white"/>
</svg>
