<svg width="28" height="28"  fill="none" xmlns="http://www.w3.org/2000/svg">
<!-- <rect width="28" height="28" rx="4" fill="white" fill-opacity="0.1"/> -->
<path fill-rule="evenodd" clip-rule="evenodd" d="M23.0418 14C23.0418 13.5168 22.6501 13.125 22.1668 13.125H5.8335C5.35025 13.125 4.9585 13.5168 4.9585 14C4.9585 14.4832 5.35025 14.875 5.8335 14.875H22.1668C22.6501 14.875 23.0418 14.4832 23.0418 14Z" fill="white"/>
<path fill-rule="evenodd" clip-rule="evenodd" d="M23.0418 8.16666C23.0418 7.68341 22.6501 7.29166 22.1668 7.29166H5.8335C5.35025 7.29166 4.9585 7.68341 4.9585 8.16666C4.9585 8.6499 5.35025 9.04166 5.8335 9.04166H22.1668C22.6501 9.04166 23.0418 8.6499 23.0418 8.16666Z" fill="white"/>
<path fill-rule="evenodd" clip-rule="evenodd" d="M23.0418 19.8333C23.0418 19.3501 22.6501 18.9583 22.1668 18.9583H5.8335C5.35025 18.9583 4.9585 19.3501 4.9585 19.8333C4.9585 20.3166 5.35025 20.7083 5.8335 20.7083H22.1668C22.6501 20.7083 23.0418 20.3166 23.0418 19.8333Z" fill="white"/>
</svg>
