<svg width="4" height="16" viewBox="0 0 4 16" fill="none" xmlns="http://www.w3.org/2000/svg">
<path d="M1.5979 0.778381C2.0121 0.778381 2.3479 1.11417 2.3479 1.52838C2.3479 1.94259 2.0121 2.27838 1.5979 2.27838C1.1837 2.27838 0.8479 1.94259 0.8479 1.52838C0.8479 1.11417 1.1837 0.778381 1.5979 0.778381ZM1.5979 6.77835C2.0121 6.77835 2.3479 7.11415 2.3479 7.52835C2.3479 7.94255 2.0121 8.27835 1.5979 8.27835C1.1837 8.27835 0.8479 7.94255 0.8479 7.52835C0.8479 7.11415 1.1837 6.77835 1.5979 6.77835ZM1.5979 12.7784C2.0121 12.7784 2.3479 13.1142 2.3479 13.5284C2.3479 13.9426 2.0121 14.2784 1.5979 14.2784C1.1837 14.2784 0.8479 13.9426 0.8479 13.5284C0.8479 13.1142 1.1837 12.7784 1.5979 12.7784Z" fill="black" stroke="white" stroke-width="1.5"/>
</svg>
