<svg width="24" height="24" viewBox="0 0 24 24" fill="none" xmlns="http://www.w3.org/2000/svg">
<rect width="24" height="24" rx="8" fill="white" fill-opacity="0.1"/>
<path d="M14.2564 12.7179C14.2564 12.4206 14.0153 12.1795 13.7179 12.1795H9.41026C9.11287 12.1795 8.87179 12.4206 8.87179 12.7179C8.87179 13.0153 9.11287 13.2564 9.41026 13.2564H13.7179C14.0153 13.2564 14.2564 13.0153 14.2564 12.7179Z" fill="white"/>
<path d="M14.2564 15.5897C14.2564 15.2924 14.0153 15.0513 13.7179 15.0513H9.41026C9.11287 15.0513 8.87179 15.2924 8.87179 15.5897C8.87179 15.8871 9.11287 16.1282 9.41026 16.1282H13.7179C14.0153 16.1282 14.2564 15.8871 14.2564 15.5897Z" fill="white"/>
<path fill-rule="evenodd" clip-rule="evenodd" d="M7.97436 5C6.88395 5 6 5.88395 6 6.97436V17.0256C6 18.1161 6.88395 19 7.97436 19H15.1538C16.2443 19 17.1282 18.1161 17.1282 17.0256V9.10499C17.1282 8.83161 17.039 8.5657 16.8743 8.34758L14.722 5.499C14.4845 5.18473 14.1135 5 13.7195 5H7.97436ZM7.07692 6.97436C7.07692 6.47872 7.47872 6.07692 7.97436 6.07692H13.1795V9.23378C13.1795 9.53116 13.4206 9.77224 13.7179 9.77224H16.0513V17.0256C16.0513 17.5213 15.6495 17.9231 15.1538 17.9231H7.97436C7.47872 17.9231 7.07692 17.5213 7.07692 17.0256V6.97436Z" fill="white"/>
</svg>
