<svg width="16" height="18" viewBox="0 0 16 18" fill="none" xmlns="http://www.w3.org/2000/svg">
<path d="M3.1661 1.0873C3.40242 0.814352 3.37449 0.399972 3.10371 0.161759C2.83294 -0.0764544 2.42185 -0.0483002 2.18553 0.224653L1.06469 1.51925C0.42889 2.25358 0.0694792 3.18989 0.0493234 4.16435L0.000144461 6.54129C-0.00735213 6.90349 0.277857 7.20324 0.637181 7.21079C0.996497 7.21834 1.29385 6.93084 1.30135 6.56864L1.35053 4.19171C1.36432 3.52496 1.61024 2.88435 2.04525 2.3819L3.1661 1.0873Z" fill="white"/>
<path fill-rule="evenodd" clip-rule="evenodd" d="M2.99986 5.71214C3.12038 3.76982 4.71826 2.25671 6.64888 2.25671H7.13252V1.60074C7.13252 1.1177 7.52097 0.726114 8.00018 0.726114C8.47939 0.726114 8.86784 1.1177 8.86784 1.60074V2.25671H9.35147C11.2821 2.25671 12.88 3.76982 13.0005 5.71213L13.1923 8.80262C13.2653 9.98091 13.6578 11.1164 14.3268 12.0853C14.9313 12.9609 14.3931 14.1702 13.3425 14.2973L10.3862 14.6548V15.5948C10.3862 16.9231 9.31798 18 8.00018 18C6.68238 18 5.61411 16.9231 5.61411 15.5948V14.6548L2.65788 14.2973C1.6072 14.1702 1.06906 12.9609 1.67354 12.0853C2.34256 11.1164 2.735 9.98091 2.80811 8.80262L2.99986 5.71214ZM6.64888 3.56865C5.40551 3.56865 4.37643 4.54313 4.29882 5.79403L4.10706 8.88448C4.01908 10.3023 3.54686 11.6688 2.7418 12.8348C2.6981 12.898 2.737 12.9855 2.81295 12.9947L6.05597 13.387C7.34744 13.5432 8.65283 13.5432 9.94435 13.387L13.1874 12.9947C13.2633 12.9855 13.3023 12.898 13.2586 12.8348C12.4534 11.6688 11.9813 10.3023 11.8933 8.88448L11.7015 5.79403C11.6239 4.54313 10.5948 3.56865 9.35147 3.56865H6.64888ZM8.00018 16.6881C7.40115 16.6881 6.9156 16.1985 6.9156 15.5948V14.9388H9.08475V15.5948C9.08475 16.1985 8.59921 16.6881 8.00018 16.6881Z" fill="white"/>
<path d="M12.8963 0.161759C12.6255 0.399972 12.5976 0.814352 12.8339 1.0873L13.9548 2.3819C14.3898 2.88435 14.6357 3.52496 14.6495 4.19171L14.6987 6.56864C14.7062 6.93084 15.0035 7.21834 15.3628 7.21079C15.7222 7.20324 16.0074 6.90349 15.9999 6.54129L15.9507 4.16435C15.9305 3.18989 15.5711 2.25358 14.9353 1.51925L13.8145 0.224653C13.5781 -0.0483002 13.1671 -0.0764544 12.8963 0.161759Z" fill="white"/>
</svg>
