<svg width="18" height="18" viewBox="0 0 18 18" fill="none" xmlns="http://www.w3.org/2000/svg">
<path d="M12.5625 8.25C12.5625 8.56065 12.3106 8.8125 12 8.8125H6C5.68934 8.8125 5.4375 8.56065 5.4375 8.25C5.4375 7.93935 5.68934 7.6875 6 7.6875H12C12.3106 7.6875 12.5625 7.93935 12.5625 8.25Z" fill="#8FA0A0"/>
<path fill-rule="evenodd" clip-rule="evenodd" d="M3.28919 6.11002L4.18073 3.67432C4.40542 3.06049 4.95036 2.62064 5.59778 2.53054C7.85505 2.21642 10.145 2.21642 12.4023 2.53054C13.0497 2.62064 13.5947 3.0605 13.8194 3.67434L14.7109 6.11025C14.8777 6.37042 14.9925 6.66781 15.0407 6.98842L15.1172 7.4968C15.4171 9.4908 15.389 11.5204 15.0342 13.5052C14.8769 14.3852 14.1542 15.0537 13.2647 15.142L12.3419 15.2335C10.1194 15.4541 7.88055 15.4541 5.65813 15.2335L4.73528 15.142C3.84572 15.0537 3.12305 14.3852 2.96576 13.5052C2.61095 11.5204 2.58292 9.4908 2.88277 7.4968L2.95922 6.98842C3.00744 6.66772 3.12236 6.37024 3.28919 6.11002ZM5.75285 3.6448C7.90725 3.345 10.0928 3.345 12.2472 3.6448C12.4828 3.67759 12.6811 3.83765 12.7629 4.06102L13.1426 5.09827C13.1085 5.09331 13.0742 5.08912 13.0398 5.08569L12.3062 5.01287C10.1075 4.79464 7.89255 4.79464 5.69384 5.01288L4.9602 5.08569C4.92574 5.08911 4.89151 5.0933 4.85753 5.09825L5.23718 4.06102C5.31895 3.83765 5.51725 3.67759 5.75285 3.6448ZM4.26425 6.67573L4.27824 6.68086L4.2956 6.63342C4.47991 6.39652 4.75675 6.23641 5.07131 6.20519L5.80496 6.13237C7.92975 5.92148 10.0702 5.92148 12.195 6.13237L12.9286 6.20519C13.2433 6.23642 13.5202 6.39659 13.7045 6.63357L13.7218 6.68085L13.7357 6.67575C13.8341 6.81517 13.9016 6.97833 13.9283 7.15571L14.0047 7.6641C14.2863 9.53685 14.26 11.443 13.9268 13.3073C13.8581 13.6918 13.5422 13.9839 13.1536 14.0224L12.2307 14.1141C10.0822 14.3273 7.91783 14.3273 5.76924 14.1141L4.8464 14.0224C4.4577 13.9839 4.14194 13.6918 4.07321 13.3073C3.73997 11.443 3.71364 9.53685 3.99526 7.6641L4.07171 7.15571C4.09838 6.97832 4.1659 6.81516 4.26425 6.67573Z" fill="#8FA0A0"/>
</svg>
