<svg width="58" height="16" viewBox="0 0 58 16" fill="none" xmlns="http://www.w3.org/2000/svg">
<path d="M9.48227 1.58076C9.29058 1.26525 9.03254 0.993775 8.73764 0.780994C8.43536 0.57555 8.11097 0.41413 7.76446 0.311408C7.38846 0.186674 6.99771 0.105963 6.59959 0.0692761C6.13512 0.0252524 5.67064 0.00324096 5.20617 0.00324096H1.18812C0.804743 -0.0334455 0.465606 0.245372 0.428743 0.634248C0.428743 0.641586 0.428743 0.648922 0.428743 0.656259C0.428743 0.656259 0.428743 0.678271 0.428743 0.692946V7.18645C0.989059 8.37509 1.91063 9.35828 3.06812 9.98929V8.68325C3.03126 8.25769 3.34828 7.89083 3.76852 7.85414H4.97762C6.62171 7.85414 7.87505 7.50929 8.74501 6.82692C9.61497 6.14455 10.05 5.12467 10.0647 3.78194C10.0647 3.39307 10.0205 3.00419 9.92462 2.62999C9.82878 2.24845 9.68133 1.9036 9.48227 1.58076ZM7.12304 4.91922C6.98296 5.16135 6.77653 5.35213 6.52586 5.47686C6.25308 5.60893 5.95818 5.6823 5.66327 5.70432C5.33151 5.74834 4.99974 5.76301 4.66798 5.76301H3.51048C3.23032 5.76301 3.06075 5.53556 3.06075 5.21272V2.53461C3.04601 2.31449 3.21558 2.12372 3.43675 2.10904C3.45887 2.10904 3.48836 2.10904 3.51048 2.10904H4.66798C5.04398 2.10904 5.39786 2.11638 5.72963 2.13839C6.02453 2.15307 6.31943 2.22644 6.58485 2.34384C6.83551 2.45389 7.04195 2.63733 7.17465 2.87212C7.32948 3.18762 7.39583 3.53248 7.38108 3.87733C7.38846 4.24419 7.29998 4.60372 7.12304 4.91922ZM3.06812 10.3708C2.0802 10.0113 1.17337 9.44633 0.42137 8.7126V11.853C0.384507 12.0951 0.561448 12.3226 0.804743 12.3592C0.812116 12.3592 0.819489 12.3592 0.826861 12.3592H2.64052C3.11973 12.3592 3.06812 11.8456 3.06812 11.8456V10.3708ZM28.039 3.42242H26.4687C26.159 3.40041 25.8789 3.60585 25.8125 3.90668L23.9915 8.89604C23.9915 8.89604 22.3843 4.34692 22.2663 3.99473C22.2 3.65721 21.9051 3.42242 21.5586 3.41508H20.1135C19.5974 3.41508 19.5974 3.81863 19.6638 3.97271C19.7302 4.1268 21.706 9.51237 22.4801 11.5741C22.5981 11.831 22.6866 12.0951 22.7308 12.3739C22.6792 12.6454 22.576 12.9095 22.4285 13.1443C22.3695 13.2397 22.3032 13.3351 22.2295 13.4231C23.7187 12.9829 25.4439 11.376 26.3139 9.64444C27.1912 7.24515 28.3413 4.04609 28.3929 3.87733C28.4445 3.62786 28.4445 3.42242 28.039 3.42242ZM21.0498 13.9074C20.9171 13.9074 20.7844 13.8927 20.6444 13.8781C20.4822 13.856 20.1651 13.8781 20.1651 14.1569V15.3602C20.1651 15.8224 20.3937 15.8518 20.5043 15.8811C20.8729 15.9618 21.2563 16.0059 21.6396 15.9985C22.0894 16.0132 22.5391 15.9178 22.9446 15.727C23.3206 15.5363 23.6524 15.2795 23.9178 14.9566C24.2274 14.6044 24.4855 14.2229 24.6919 13.8047C24.9131 13.3644 25.1269 12.8728 25.3259 12.3372L25.5619 11.6989C25.1048 12.1685 23.0478 14.1055 21.0498 13.9074ZM18.6832 4.86053C18.5948 4.65508 18.4842 4.47165 18.3367 4.30289C18.1893 4.14881 18.0271 4.01674 17.8428 3.89934C17.6511 3.76727 17.4373 3.65721 17.2235 3.56183C17.0023 3.47378 16.7737 3.40774 16.5452 3.35638C16.2798 3.29768 16.0144 3.261 15.7416 3.23899C15.4541 3.20964 15.1297 3.19496 14.7684 3.19496C12.3723 3.19496 11.0084 3.94337 10.6766 5.44751C10.625 5.66029 10.7504 5.88041 10.9715 5.93177C10.9936 5.93911 11.0158 5.93911 11.0305 5.93911H12.505C12.9105 5.93911 12.9105 5.81437 13.058 5.46952C13.1243 5.27875 13.2423 5.11733 13.4045 4.99994C13.7805 4.7578 14.2302 4.64775 14.6726 4.67709C15.0928 4.63307 15.5057 4.73579 15.8595 4.97059C16.125 5.22005 16.2798 5.55757 16.2945 5.92443C16.2945 6.42337 16.1397 6.74621 15.5204 6.74621C14.0533 6.69485 12.4755 6.85627 11.5908 7.36988C10.6987 7.91284 10.1679 8.88136 10.1974 9.92326C10.19 10.3195 10.2711 10.7157 10.4333 11.0752C10.5882 11.3907 10.8167 11.6622 11.0969 11.875C11.3918 12.1098 11.7309 12.2932 12.0922 12.3959C12.505 12.506 12.9253 12.5573 13.3529 12.5573C13.9279 12.5647 14.4956 12.484 15.0486 12.3152C15.5352 12.1171 15.9923 11.8603 16.4125 11.5521V11.831C16.4125 12.1098 16.4936 12.3519 16.818 12.3519H18.5284C18.8749 12.3519 18.956 12.1098 18.956 11.8016V6.56278C18.956 6.2326 18.9339 5.90976 18.8897 5.58692C18.8528 5.34479 18.7791 5.09532 18.6832 4.86053ZM16.3461 10.004C16.3461 10.004 15.9038 10.9211 14.3334 10.9211C13.9574 10.9358 13.5888 10.8331 13.2718 10.6276C12.9916 10.4075 12.8368 10.07 12.8663 9.71781C12.8294 9.24089 13.0948 8.79331 13.5298 8.58787C14.1639 8.34574 14.8421 8.23568 15.5204 8.25769C15.9185 8.19899 16.2872 8.47047 16.3461 8.86668C16.3535 8.90337 16.3535 8.94006 16.3535 8.97674L16.3461 10.004Z" fill="#333333"/>
<path d="M57.4363 5.69427C57.8548 6.32812 57.8548 7.13484 57.4363 7.7687C57.0177 8.36654 54.7576 10.6499 54.0118 11.3845C53.365 12.0184 52.4899 12.6667 51.6224 12.6667H33.6632C31.2357 12.6667 31.0835 11.8815 31.0835 10.1312V2.98598C31.0835 1.19247 31.6466 0.666656 33.3056 0.666656H51.6604C52.5203 0.666656 53.2889 1.08442 54.1488 1.91996C54.9098 2.64025 57.1319 5.2693 57.4363 5.69427Z" fill="#33CCCC"/>
<path d="M34.4172 1.89776V1.84868C34.4172 1.58692 34.4172 1.33334 33.9299 1.33334H32.1846C31.7771 1.33334 31.7505 1.53784 31.7505 1.85686V4.00001C32.4415 3.10839 33.354 2.38856 34.4172 1.89776Z" fill="white"/>
<path d="M43.7481 10.8097V10.7003V5.76134C43.7481 3.69822 42.8855 2.66666 41.1676 2.66666C40.6884 2.67447 40.2239 2.82295 39.8184 3.09647C39.376 3.39344 38.9779 3.76074 38.6387 4.19055C38.4839 3.72948 38.189 3.33092 37.8056 3.07303C37.3632 2.81514 36.8619 2.6901 36.3532 2.71355C35.6085 2.71355 34.886 2.97925 34.2962 3.46377C34.1708 3.59662 31.7526 5.59723 31.7526 7.67598V10.8332C31.7526 10.9348 31.7009 11.3177 32.1138 11.3177H33.6326C34.1045 11.3177 34.0602 10.9895 34.0602 10.8566V5.74571C34.3109 5.38622 34.8344 4.51878 35.6896 4.51878C35.9698 4.49533 36.2426 4.62818 36.3974 4.87045C36.567 5.23774 36.6407 5.64411 36.6112 6.04267V10.0282V10.8488C36.6112 10.9504 36.5596 11.3333 36.9725 11.3333H38.4618C38.9336 11.3333 38.8894 11.0051 38.8894 10.8723V10.7628V5.73789C39.1622 5.37841 39.693 4.51096 40.5188 4.51096C40.799 4.48752 41.0717 4.62037 41.2413 4.86263C41.4183 5.22211 41.492 5.6363 41.4625 6.03486V10.0204V10.841C41.4625 10.9426 41.4109 11.3255 41.8238 11.3255H43.3426C43.8071 11.263 43.7481 10.9348 43.7481 10.8097Z" fill="white"/>
<path d="M52.229 8.58368C51.7088 9.89457 50.3505 10.7368 48.8621 10.6621C46.5935 10.6621 45.0835 9.20856 45.0835 7.03507C45.0835 4.86158 46.6585 3.33334 48.7827 3.33334C50.9068 3.33334 52.3301 4.71894 52.4168 6.95356C52.4168 7.23883 52.3446 7.49014 51.9617 7.49014H47.1498C47.1787 8.68556 47.7929 9.3444 48.8766 9.3444C49.469 9.35798 50.0109 9.05234 50.271 8.54972C50.3722 8.40709 50.5456 8.32558 50.7262 8.33237H51.9689C52.1062 8.32558 52.2218 8.42746 52.229 8.55651C52.229 8.57689 52.229 8.59047 52.229 8.61085V8.58368ZM48.7899 4.70536C47.8868 4.70536 47.2799 5.29628 47.1426 6.26755H50.3722C50.2927 5.41853 49.8086 4.70536 48.7899 4.70536Z" fill="white"/>
</svg>
