<svg width="16" height="16" viewBox="0 0 16 16" fill="none" xmlns="http://www.w3.org/2000/svg">
<path fill-rule="evenodd" clip-rule="evenodd" d="M2.86693 6.21362C4.35637 9.45682 7.00679 12.0353 10.3015 13.4325L10.312 13.4369L10.9485 13.7206C11.759 14.0817 12.7117 13.8252 13.2314 13.106L14.2934 11.6362C14.3582 11.5465 14.3415 11.4217 14.2553 11.3521L12.4014 9.85641C12.3092 9.78207 12.1736 9.79941 12.1031 9.89449L11.3816 10.8682C11.2064 11.1047 10.8899 11.1868 10.6218 11.0655C8.15812 9.95049 6.17834 7.97074 5.0634 5.50708C4.94205 5.23894 5.02422 4.92248 5.26067 4.74725L6.23432 4.0257C6.32947 3.95519 6.34679 3.81967 6.27242 3.72751L4.77656 1.87331C4.70703 1.78712 4.58225 1.77039 4.49247 1.8352L3.01472 2.902C2.29073 3.42466 2.03577 4.38536 2.40532 5.19823L2.86644 6.21253C2.86661 6.2129 2.86677 6.21326 2.86693 6.21362ZM9.80829 14.5811C6.2283 13.0614 3.34882 10.2589 1.73046 6.73407L1.72948 6.73199L1.2674 5.71556C0.651483 4.36077 1.07642 2.75959 2.28307 1.8885L3.76082 0.821699C4.38925 0.368024 5.26277 0.485199 5.74943 1.08844L7.24529 2.94265C7.76579 3.58779 7.64454 4.53645 6.97854 5.02998L6.42062 5.44345C7.36312 7.27207 8.85671 8.76574 10.6854 9.70816L11.0989 9.15024C11.5924 8.48432 12.541 8.36307 13.1862 8.88357L15.0401 10.3792C15.6435 10.866 15.7606 11.7399 15.3065 12.3683L14.2445 13.8381C13.3785 15.0368 11.7906 15.4643 10.4398 14.8624L9.80829 14.5811Z" fill="white"/>
</svg>
