<svg width="18" height="18" viewBox="0 0 18 18" fill="none" xmlns="http://www.w3.org/2000/svg">
<path fill-rule="evenodd" clip-rule="evenodd" d="M8.4375 2.83772C5.28385 3.12191 2.8125 5.77235 2.8125 9C2.8125 12.4172 5.58274 15.1875 9 15.1875C10.741 15.1875 12.3139 14.4689 13.4389 13.3107L8.64645 9.43747C8.5143 9.33067 8.4375 9.16988 8.4375 9V2.83772ZM9.5625 2.83772V8.4375H15.1623C14.8948 5.46911 12.5309 3.10522 9.5625 2.83772ZM15.1623 9.5625H10.5909L14.1466 12.4361C14.7062 11.5998 15.0671 10.6198 15.1623 9.5625ZM1.6875 9C1.6875 4.96142 4.96142 1.6875 9 1.6875C13.0386 1.6875 16.3125 4.96142 16.3125 9C16.3125 10.7409 15.7034 12.3411 14.6873 13.5968C13.3476 15.2524 11.2974 16.3125 9 16.3125C4.96142 16.3125 1.6875 13.0386 1.6875 9Z" fill="#8FA0A0"/>
</svg>
