<svg width="18" height="18" viewBox="0 0 18 18" fill="none" xmlns="http://www.w3.org/2000/svg">
<path fill-rule="evenodd" clip-rule="evenodd" d="M8.4375 4.34125C5.69875 4.62272 3.5625 6.93689 3.5625 9.74998C3.5625 12.7531 5.99696 15.1875 9 15.1875C11.8131 15.1875 14.1273 13.0513 14.4088 10.3125H9C8.68935 10.3125 8.4375 10.0606 8.4375 9.74998V4.34125ZM2.4375 9.74998C2.4375 6.12563 5.37563 3.1875 9 3.1875C9.31065 3.1875 9.5625 3.43934 9.5625 3.75V9.18748H15C15.3106 9.18748 15.5625 9.43933 15.5625 9.74998C15.5625 13.3744 12.6244 16.3125 9 16.3125C5.37563 16.3125 2.4375 13.3744 2.4375 9.74998Z" fill="#8FA0A0"/>
<path fill-rule="evenodd" clip-rule="evenodd" d="M11.625 3.50524V7.125H15.2448C14.8225 5.3367 13.4133 3.92751 11.625 3.50524ZM11.2485 2.29624C13.9637 2.63414 16.1158 4.78625 16.4538 7.50148C16.505 7.91256 16.1642 8.24999 15.75 8.24999H10.875C10.6679 8.24999 10.5 8.08214 10.5 7.87499V3C10.5 2.58579 10.8375 2.24509 11.2485 2.29624Z" fill="#8FA0A0"/>
</svg>
