<svg width="24" height="24" viewBox="0 0 24 24" fill="none" xmlns="http://www.w3.org/2000/svg">
<g clip-path="url(#clip0_557_8113)">
<rect width="24" height="24" rx="8" fill="white" fill-opacity="0.1"/>
<path fill-rule="evenodd" clip-rule="evenodd" d="M10.9908 7.04699C8.25627 7.32803 6.12328 9.63867 6.12328 12.4475C6.12328 15.446 8.55402 17.8767 11.5525 17.8767C14.3613 17.8767 16.672 15.7437 16.953 13.0091H11.5525C11.2423 13.0091 10.9908 12.7577 10.9908 12.4475V7.04699ZM5 12.4475C5 8.82866 7.93365 5.895 11.5525 5.895C11.8627 5.895 12.1141 6.14646 12.1141 6.45664V11.8858H17.5433C17.8535 11.8858 18.105 12.1373 18.105 12.4475C18.105 16.0663 15.1713 19 11.5525 19C7.93365 19 5 16.0663 5 12.4475Z" fill="white"/>
<path fill-rule="evenodd" clip-rule="evenodd" d="M14.1735 6.21225V9.8265H17.7878C17.3661 8.04093 15.959 6.63388 14.1735 6.21225ZM13.7976 5.00509C16.5086 5.34248 18.6575 7.49132 18.9949 10.2024C19.046 10.6129 18.7058 10.9498 18.2922 10.9498H13.4246C13.2179 10.9498 13.0502 10.7822 13.0502 10.5753V5.70778C13.0502 5.2942 13.3872 4.95402 13.7976 5.00509Z" fill="white"/>
</g>
<defs>
<clipPath id="clip0_557_8113">
<rect width="24" height="24" rx="8" fill="white"/>
</clipPath>
</defs>
</svg>
