<svg width="24" height="24" viewBox="0 0 24 24" fill="none" xmlns="http://www.w3.org/2000/svg">
<rect width="24" height="24" rx="8" fill="white" fill-opacity="0.1"/>
<path fill-rule="evenodd" clip-rule="evenodd" d="M11.942 5.88867C8.92313 6.16071 6.55739 8.69788 6.55739 11.7876C6.55739 15.0588 9.20924 17.7107 12.4805 17.7107C14.1471 17.7107 15.6527 17.0228 16.7296 15.9141L12.142 12.2064C12.0155 12.1041 11.942 11.9502 11.942 11.7876V5.88867ZM13.0189 5.88867V11.2491H18.3794C18.1233 8.4076 15.8605 6.14473 13.0189 5.88867ZM18.3794 12.3261H14.0034L17.4071 15.0769C17.9428 14.2763 18.2883 13.3382 18.3794 12.3261ZM5.48047 11.7876C5.48047 7.9216 8.61447 4.7876 12.4805 4.7876C16.3465 4.7876 19.4805 7.9216 19.4805 11.7876C19.4805 13.4541 18.8974 14.9859 17.9247 16.188C16.6423 17.7728 14.6797 18.7876 12.4805 18.7876C8.61447 18.7876 5.48047 15.6536 5.48047 11.7876Z" fill="white"/>
</svg>
