<svg width="19" height="18" viewBox="0 0 19 18" fill="none" xmlns="http://www.w3.org/2000/svg">
<path fill-rule="evenodd" clip-rule="evenodd" d="M13.0893 2.79376C12.4327 2.13717 11.3206 2.35135 10.9548 3.20482L9.76038 5.99184C8.63605 5.77136 7.42476 6.09616 6.55257 6.96833L5.27001 8.25091C5.05033 8.47059 5.05033 8.82676 5.27001 9.04636L7.14148 10.9179L3.10225 14.9571C2.88258 15.1768 2.88258 15.533 3.10225 15.7526C3.32193 15.9722 3.67808 15.9722 3.89775 15.7526L7.93698 11.7134L9.80853 13.5849C9.91398 13.6904 10.0571 13.7497 10.2063 13.7497C10.3554 13.7497 10.4985 13.6904 10.6041 13.5849L11.8866 12.3023C12.7588 11.4302 13.0836 10.2188 12.8631 9.09451L15.6501 7.90006C16.5036 7.53429 16.7178 6.42223 16.0611 5.76565L13.0893 2.79376ZM11.9889 3.64797C12.0411 3.52605 12.2 3.49545 12.2938 3.58925L15.2657 6.56114C15.3594 6.65494 15.3288 6.81381 15.2069 6.86606L11.9704 8.25316C11.6972 8.37024 11.5623 8.67976 11.6625 8.95974C11.9707 9.82096 11.7792 10.8188 11.0911 11.5069L10.2063 12.3917L6.46325 8.64864L7.34807 7.76386C8.03613 7.07577 9.034 6.88424 9.89523 7.19249C10.1751 7.29268 10.4847 7.15775 10.6018 6.88448L11.9889 3.64797Z" fill="#8FA0A0"/>
</svg>
