<svg width="18" height="18" viewBox="0 0 18 18" fill="none" xmlns="http://www.w3.org/2000/svg">
<path fill-rule="evenodd" clip-rule="evenodd" d="M5.41075 2.79374C6.0673 2.13715 7.1794 2.35133 7.54517 3.2048L8.73962 5.99182C9.86395 5.77135 11.0752 6.09614 11.9474 6.96832L13.23 8.2509C13.4497 8.47057 13.4497 8.82675 13.23 9.04635L11.3585 10.9179L15.3977 14.9571C15.6174 15.1768 15.6174 15.533 15.3977 15.7526C15.1781 15.9722 14.8219 15.9722 14.6022 15.7526L10.563 11.7133L8.69147 13.5849C8.58602 13.6904 8.44292 13.7497 8.29375 13.7497C8.14457 13.7497 8.00147 13.6904 7.89595 13.5849L6.61345 12.3023C5.7412 11.4301 5.41645 10.2188 5.63695 9.0945L2.84987 7.90005C1.99645 7.53427 1.78225 6.42221 2.43888 5.76563L5.41075 2.79374ZM6.51115 3.64795C6.45887 3.52603 6.30002 3.49543 6.2062 3.58924L3.23433 6.56113C3.14058 6.65492 3.17118 6.81379 3.29305 6.86605L6.5296 8.25315C6.80282 8.37022 6.93775 8.67975 6.83755 8.95972C6.5293 9.82095 6.72085 10.8187 7.4089 11.5069L8.29375 12.3916L12.0368 8.64862L11.1519 7.76385C10.4639 7.07575 9.466 6.88423 8.60477 7.19248C8.32487 7.29267 8.01535 7.15773 7.8982 6.88446L6.51115 3.64795Z" fill="#8FA0A0"/>
</svg>
