<svg width="28" height="28" viewBox="0 0 28 28" fill="none" xmlns="http://www.w3.org/2000/svg">
<rect width="28" height="28" rx="4" fill="#299B9B"/>
<path fill-rule="evenodd" clip-rule="evenodd" d="M18.0242 6.45573C17.2466 5.67803 15.9293 5.93172 15.4961 6.94261L14.0813 10.2437C12.7496 9.98257 11.3149 10.3673 10.2819 11.4003L8.76273 12.9195C8.50254 13.1797 8.50254 13.6015 8.76273 13.8617L10.9794 16.0784L6.19514 20.8627C5.93495 21.1229 5.93495 21.5447 6.19514 21.8049C6.45533 22.065 6.87718 22.065 7.13737 21.8049L11.9216 17.0206L14.1384 19.2374C14.2633 19.3623 14.4328 19.4325 14.6095 19.4325C14.7861 19.4325 14.9556 19.3623 15.0806 19.2374L16.5997 17.7182C17.6328 16.6852 18.0175 15.2504 17.7563 13.9187L21.0574 12.5039C22.0683 12.0707 22.322 10.7535 21.5442 9.9758L18.0242 6.45573ZM16.7208 7.46751C16.7828 7.3231 16.9709 7.28685 17.082 7.39796L20.6021 10.918C20.7131 11.0291 20.6769 11.2173 20.5325 11.2792L16.699 12.9221C16.3754 13.0608 16.2156 13.4274 16.3342 13.759C16.6993 14.7791 16.4725 15.961 15.6575 16.776L14.6095 17.824L10.1761 13.3906L11.2241 12.3426C12.0391 11.5276 13.221 11.3007 14.2411 11.6658C14.5726 11.7845 14.9392 11.6247 15.078 11.301L16.7208 7.46751Z" fill="white"/>
</svg>
