<svg width="16" height="16" viewBox="0 0 16 16" fill="none" xmlns="http://www.w3.org/2000/svg">
<path fill-rule="evenodd" clip-rule="evenodd" d="M12.0242 0.455731C11.2466 -0.321966 9.92934 -0.068283 9.4961 0.942612L8.08134 4.24371C6.74963 3.98257 5.31492 4.36727 4.28186 5.40032L2.76273 6.91948C2.50254 7.17967 2.50254 7.60155 2.76273 7.86165L4.97939 10.0784L0.195138 14.8627C-0.0650461 15.1229 -0.0650461 15.5447 0.195138 15.8049C0.455332 16.065 0.877176 16.065 1.13737 15.8049L5.92162 11.0206L8.13837 13.2374C8.26327 13.3623 8.43276 13.4325 8.60945 13.4325C8.78614 13.4325 8.95564 13.3623 9.08062 13.2374L10.5997 11.7182C11.6328 10.6852 12.0175 9.25039 11.7563 7.91868L15.0574 6.50391C16.0683 6.07067 16.322 4.75348 15.5442 3.9758L12.0242 0.455731ZM10.7208 1.46751C10.7828 1.3231 10.9709 1.28685 11.082 1.39796L14.6021 4.91802C14.7131 5.02912 14.6769 5.2173 14.5325 5.27919L10.699 6.92214C10.3754 7.06081 10.2156 7.42743 10.3342 7.75905C10.6993 8.77913 10.4725 9.96098 9.65751 10.776L8.60945 11.824L4.17606 7.39057L5.22408 6.34259C6.03905 5.52757 7.22098 5.30072 8.24106 5.66583C8.57259 5.7845 8.9392 5.62467 9.07796 5.30099L10.7208 1.46751Z" fill="white"/>
</svg>
