<svg width="24" height="24" viewBox="0 0 24 24" fill="none" xmlns="http://www.w3.org/2000/svg">
<rect width="24" height="24" rx="8" fill="white" fill-opacity="0.1"/>
<path fill-rule="evenodd" clip-rule="evenodd" d="M15.2885 5.36962C14.6319 4.71304 13.5198 4.92721 13.154 5.78068L11.9596 8.56771C10.8353 8.34723 9.62397 8.67202 8.75179 9.5442L7.46922 10.8268C7.24955 11.0465 7.24955 11.4026 7.46922 11.6222L9.3407 13.4938L5.30147 17.533C5.0818 17.7527 5.0818 18.1088 5.30147 18.3285C5.52114 18.5481 5.8773 18.5481 6.09697 18.3285L10.1362 14.2892L12.0077 16.1608C12.1132 16.2663 12.2563 16.3256 12.4055 16.3256C12.5546 16.3256 12.6977 16.2663 12.8033 16.1608L14.0858 14.8782C14.958 14.006 15.2828 12.7947 15.0623 11.6704L17.8493 10.4759C18.7028 10.1102 18.917 8.99809 18.2603 8.34151L15.2885 5.36962ZM14.1881 6.22384C14.2403 6.10192 14.3992 6.07132 14.493 6.16512L17.4649 9.13701C17.5586 9.2308 17.528 9.38968 17.4062 9.44193L14.1696 10.829C13.8964 10.9461 13.7615 11.2556 13.8617 11.5356C14.1699 12.3968 13.9784 13.3946 13.2903 14.0828L12.4055 14.9675L8.66247 11.2245L9.54729 10.3397C10.2353 9.65164 11.2332 9.46011 12.0944 9.76836C12.3743 9.86855 12.6839 9.73361 12.801 9.46034L14.1881 6.22384Z" fill="white"/>
</svg>
