









<svg width="24" height="24" viewBox="0 0 24 24" fill="none" xmlns="http://www.w3.org/2000/svg">
<path d="M4.96145 1.94942L4.96145 1.94942C4.97642 1.94442 4.99373 1.94286 5.00045 1.94225L5.00137 1.94217C5.01226 1.94116 5.02592 1.94027 5.0417 1.93943C5.07345 1.93776 5.11722 1.93617 5.17177 1.93465C5.28105 1.9316 5.43607 1.92875 5.63003 1.92611C6.01809 1.92081 6.5635 1.9163 7.21379 1.91259C8.51444 1.90517 10.2355 1.90095 11.958 1.90014C13.6806 1.89933 15.4048 1.90193 16.712 1.90812C17.3656 1.91122 17.9151 1.91522 18.308 1.92014C18.5044 1.9226 18.6621 1.9253 18.7742 1.92825C18.8302 1.92972 18.8753 1.93126 18.9085 1.9329C18.925 1.93371 18.9393 1.93458 18.9507 1.93554C18.9594 1.93627 18.974 1.93757 18.9866 1.94073L4.96145 1.94942ZM4.96145 1.94942C4.8858 1.97471 4.78515 2.02597 4.73249 2.07004L4.73245 2.07007M4.96145 1.94942L4.73245 2.07007M4.73245 2.07007C4.72051 2.08008 4.71193 2.09225 4.70963 2.0955L4.70933 2.09593C4.70518 2.10176 4.70077 2.1085 4.69635 2.11548C4.6874 2.12963 4.67605 2.14858 4.66267 2.17154C4.6358 2.21766 4.599 2.28299 4.5536 2.36503C4.46269 2.52926 4.3362 2.7624 4.18343 3.0471C3.87784 3.61659 3.4665 4.39347 3.02315 5.2403L3.11174 5.28669M4.73245 2.07007L3.11174 5.28669M3.11174 5.28669L3.02315 5.24031L1.41141 8.31893L1.39958 8.34152M3.11174 5.28669L1.39958 8.34152M1.39958 8.34152L1.40001 8.36702L1.40614 8.72465M1.39958 8.34152L1.40614 8.72465M1.40614 8.72465C1.40614 8.72465 1.40614 8.72465 1.40614 8.72465C1.41704 9.36411 1.63844 10.0467 2.0084 10.5837M1.40614 8.72465L2.0084 10.5837M2.0084 10.5837C2.11982 10.7455 2.28999 10.9329 2.46897 11.1011C2.64771 11.2691 2.84116 11.4235 3.0012 11.5163L3.18767 11.6245V16.5532C3.18767 16.8496 3.18763 17.1292 3.18758 17.3929C3.18723 19.5739 3.18705 20.6685 3.21418 21.2332C3.22914 21.5447 3.25256 21.713 3.29878 21.8144C3.34213 21.9096 3.41129 21.9497 3.4614 21.9787C3.472 21.9849 3.48175 21.9905 3.49022 21.9961L3.54518 21.9126L3.49023 21.9961C3.51357 22.0115 3.54011 22.0263 3.58539 22.0379C3.62625 22.0484 3.68127 22.056 3.76247 22.0622C3.92548 22.0747 4.21403 22.083 4.7505 22.0885C5.82516 22.0996 7.90691 22.1 12 22.1C16.0931 22.1 18.1748 22.0996 19.2495 22.0885C19.786 22.083 20.0745 22.0747 20.2375 22.0622C20.3187 22.056 20.3738 22.0484 20.4146 22.0379C20.4599 22.0263 20.4864 22.0115 20.5098 21.9961L20.4548 21.9126L20.5098 21.9961C20.5183 21.9905 20.528 21.9849 20.5386 21.9787C20.5887 21.9497 20.6579 21.9096 20.7012 21.8144C20.7474 21.713 20.7709 21.5447 20.7858 21.2332C20.813 20.6685 20.8128 19.5738 20.8124 17.3927C20.8124 17.1291 20.8123 16.8496 20.8123 16.5532V11.6245L21.0063 11.5121L20.9561 11.4256L21.0063 11.5121C21.9321 10.9753 22.5794 9.83571 22.595 8.72434L22.6 8.36671L22.6003 8.34139L22.5886 8.31896L21.0101 5.30144C20.5759 4.47139 20.1687 3.70251 19.8624 3.13235C19.7093 2.84731 19.5813 2.61168 19.4877 2.44281C19.4409 2.35844 19.4025 2.29031 19.3737 2.24086C19.3593 2.21619 19.347 2.19563 19.3371 2.17979C19.3288 2.16646 19.3182 2.14988 19.3082 2.13849C19.2693 2.09389 19.2149 2.0517 19.1604 2.01819C19.106 1.9847 19.0438 1.95517 18.9866 1.94074L2.0084 10.5837ZM11.6215 10.8612L11.695 10.9291C11.2417 11.4192 10.8222 11.6801 10.2208 11.843C9.71185 11.9809 9.02154 11.9519 8.53384 11.7717C8.07988 11.604 7.67961 11.3399 7.35221 10.9915M11.6215 10.8612L11.1781 18.8927V20.7601H11.2781M11.6215 10.8612L11.695 10.9291L12.0032 10.5959M11.6215 10.8612L11.9353 10.522L12.0032 10.5959M11.6215 10.8612C11.18 11.3386 10.7765 11.5889 10.1947 11.7465C9.70541 11.879 9.03637 11.8508 8.56849 11.6779L11.6215 10.8612ZM7.35221 10.9915L7.42508 10.923L7.35222 10.9915C7.35222 10.9915 7.35221 10.9915 7.35221 10.9915ZM7.35221 10.9915C7.20887 10.839 7.04922 10.6511 6.99946 10.5729L6.99942 10.5728L6.9976 10.57L6.88145 10.7275L6.80096 10.6681L6.88144 10.7275C6.3558 11.4404 5.43376 11.9267 4.59274 11.9291L4.41507 11.9296V20.7601H6.01949L6.03377 18.7855C6.03377 18.7855 6.03377 18.7854 6.03377 18.7854L6.03377 18.7853L6.13377 18.786C6.14721 15.9379 6.15612 15.5776 6.2183 15.3811L6.12296 15.3509C6.34155 14.6602 6.84433 14.1435 7.47514 13.9816C7.57607 13.9557 7.75625 13.9383 7.96585 13.9271C8.17867 13.9157 8.431 13.9103 8.68187 13.9107C8.93272 13.9111 9.18324 13.9174 9.39239 13.9295C9.59764 13.9414 9.77357 13.9593 9.86829 13.9862C10.5778 14.1872 11.102 14.7955 11.2352 15.5595M11.2352 15.5595L11.1367 15.5767L11.2352 15.5595C11.2352 15.5595 11.2352 15.5595 11.2352 15.5595ZM11.2352 15.5595C11.243 15.6047 11.2488 15.7215 11.2538 15.8886C11.2589 16.0601 11.2633 16.2944 11.2669 16.5825C11.2741 17.1588 11.2781 17.952 11.2781 18.8927V20.7601M11.2781 20.7601V20.8601H19.5849V20.7601M11.2781 20.7601H19.5849M19.5849 20.7601H19.6849V11.8299M19.5849 20.7601V11.9296M19.5849 11.9296L19.6847 11.9299L19.6849 11.8299M19.5849 11.9296V11.8299H19.6849M19.5849 11.9296L19.4073 11.9291C18.5662 11.9267 17.6442 11.4404 17.1186 10.7275L17.199 10.6681M19.6849 11.8299L19.4075 11.8291C18.6004 11.8268 17.7072 11.3573 17.199 10.6681M17.199 10.6681L17.1186 10.7275L17.0024 10.57M17.199 10.6681L17.0599 10.4794L17.0024 10.57M17.0024 10.57L17.0006 10.5728L17.0006 10.5729C16.917 10.7042 16.7592 10.8814 16.5914 11.0454C16.4232 11.2099 16.2365 11.3694 16.0911 11.4628L16.0911 11.4628C15.9327 11.5646 15.6539 11.7038 15.467 11.7748C15.3143 11.8328 15.2113 11.8674 15.0745 11.8857C14.9416 11.9035 14.7789 11.9056 14.5067 11.9051C14.2397 11.9047 14.076 11.9016 13.9414 11.8839C13.8034 11.8659 13.6982 11.8329 13.5479 11.778C13.0478 11.5953 12.6995 11.3527 12.2877 10.9051L12.0032 10.5959M17.0024 10.57L16.9388 10.4836L16.9162 10.5192C16.7617 10.762 16.3113 11.2024 16.0371 11.3787C15.8848 11.4764 15.6123 11.6126 15.4315 11.6813C15.1293 11.7961 15.0546 11.8061 14.5069 11.8051C13.9706 11.8042 13.878 11.7921 13.5822 11.684C13.0993 11.5076 12.764 11.2751 12.3613 10.8374L12.0713 10.5222L12.0032 10.5959M2.95848 9.73801L2.95847 9.738C2.90759 9.65756 2.82895 9.48589 2.76171 9.31599C2.72855 9.23222 2.6992 9.15151 2.67833 9.08601C2.67428 9.07331 2.6706 9.06134 2.66731 9.05016C2.67275 9.04978 2.67845 9.04941 2.6844 9.04903C2.76821 9.04377 2.89406 9.03921 3.06006 9.03549C3.39165 9.02808 3.87899 9.02411 4.50078 9.02411H6.32907L6.32878 9.02542C6.0369 10.3434 4.72322 10.9857 3.62368 10.3785C3.40164 10.2559 3.10764 9.9739 2.95848 9.73801ZM8.14319 9.95937L8.14319 9.95936C7.9223 9.69989 7.72357 9.3083 7.6764 9.05134L7.57804 9.0694L7.6764 9.05134L7.6714 9.02411H11.3194L11.3087 9.09682C11.2903 9.22169 11.2301 9.3846 11.1401 9.55364C11.0506 9.72158 10.9352 9.88898 10.8124 10.023C10.0743 10.8277 8.85887 10.8003 8.14319 9.95937ZM9.67447 15.305L9.67449 15.305C9.76529 15.3504 9.82399 15.3927 9.86961 15.4446C9.91569 15.497 9.95371 15.5652 9.99413 15.6704C10.0025 15.6922 10.0125 15.7342 10.0208 15.8346C10.029 15.9337 10.0352 16.082 10.0397 16.3118C10.0486 16.7709 10.0507 17.5468 10.0507 18.8852V20.7601H7.29178V18.8671C7.29178 17.8222 7.29536 17.0365 7.30262 16.5016C7.30625 16.234 7.31079 16.0299 7.31624 15.8876C7.31897 15.8164 7.32189 15.7616 7.32496 15.7225C7.32649 15.7029 7.328 15.6882 7.32938 15.6779C7.33019 15.6719 7.33078 15.6687 7.331 15.6675C7.38409 15.5174 7.49908 15.3902 7.66816 15.3053L7.66817 15.3053C7.72529 15.2766 7.78074 15.2582 7.9194 15.2473C8.06216 15.2361 8.28393 15.2334 8.67123 15.2334C9.05756 15.2334 9.27946 15.2361 9.42254 15.2473C9.56166 15.2582 9.61758 15.2766 9.67447 15.305ZM20.8332 7.68458L16.4988 7.69551C14.0245 7.70177 9.9755 7.70177 7.5012 7.69551L3.16629 7.68457L5.4648 3.2611L18.5334 3.27957L20.8332 7.68458ZM16.3236 9.05134C16.2644 9.37364 16.0853 9.70328 15.8364 9.97706C15.5875 10.2508 15.275 10.462 14.9571 10.5541C14.2696 10.7532 13.4318 10.4357 13.0072 9.80642C12.9274 9.68821 12.8438 9.52513 12.7799 9.3713C12.7481 9.29469 12.7218 9.22195 12.7036 9.15978C12.6848 9.09587 12.6767 9.05003 12.6763 9.02411H16.3286L16.3236 9.05134ZM21.3307 9.07193C21.276 9.34265 21.0579 9.74832 20.8255 10.0019C20.1835 10.7022 19.2409 10.8124 18.4857 10.2815C18.0995 10.0099 17.8446 9.63893 17.7017 9.13168L17.684 9.06881H21.3314L21.3307 9.07193Z" fill="#B0CCCC" stroke="#B0CCCC" stroke-width="0.2"/>
</svg>
