<svg width="21" height="19" viewBox="0 0 21 19" fill="none" xmlns="http://www.w3.org/2000/svg">
<path d="M20.0966 4.22732C20.2763 4.55998 20.036 4.96405 19.6579 4.96497L15.4966 4.975C12.7481 4.98182 8.25025 4.98182 5.50179 4.975L1.3386 4.96496C0.960942 4.96405 0.720587 4.56084 0.89942 4.2282L3.03085 0.263644C3.11812 0.101314 3.28762 0.000156387 3.47192 0.000406955L17.5259 0.0195141C17.7093 0.0197635 17.8779 0.120457 17.9651 0.281862L20.0966 4.22732Z" fill="#36E5E5"/>
<path d="M4.30831 6.31848C3.96987 7.79458 2.43551 8.53262 1.14142 7.84228C0.877011 7.70075 0.536946 7.38519 0.362303 7.11786C0.237287 6.92653 0 6.34784 0 6.23356C0 6.20369 0.787249 6.18691 2.16921 6.18691H4.33841L4.30831 6.31848Z" fill="#36E5E5"/>
<path d="M9.26177 7.43866C9.54896 7.1362 9.79519 6.6896 9.84129 6.38767L9.87167 6.18691H5.55766L5.58749 6.34259C5.64417 6.64138 5.87576 7.07854 6.13067 7.36789C6.96809 8.31876 8.39615 8.35126 9.26177 7.43866Z" fill="#36E5E5"/>
<path d="M15.4109 6.34259C15.2707 7.08221 14.568 7.82865 13.8147 8.03937C13.0017 8.26739 12.0227 7.9057 11.5259 7.19386C11.3382 6.92496 11.1411 6.46682 11.1395 6.29489L11.1384 6.18691H15.4407L15.4109 6.34259Z" fill="#36E5E5"/>
<path d="M20.3841 7.41612C20.6532 7.13253 20.907 6.68017 20.9723 6.36671L21 6.23461H16.6662L16.7256 6.43852C16.8905 7.00463 17.1874 7.4245 17.6395 7.73167C18.5257 8.33396 19.6349 8.20658 20.3841 7.41612Z" fill="#36E5E5"/>
<path d="M5.41746 8.33239C5.76918 8.69407 6.19928 8.96874 6.68769 9.14277C7.20728 9.32833 7.95032 9.35873 8.49378 9.21668C9.14028 9.04737 9.58828 8.77846 10.0789 8.26634L10.503 7.82288L10.9005 8.24065C11.3477 8.71032 11.7203 8.96035 12.2567 9.14958C12.5851 9.26543 12.6882 9.27853 13.2837 9.27958C13.8922 9.28063 13.9752 9.26962 14.3107 9.14644C14.5116 9.07305 14.8143 8.92681 14.9835 8.82197C15.1275 8.73234 15.3152 8.5798 15.4912 8.41625C15.6875 8.23332 15.8695 8.03675 15.96 7.89889L16.049 7.76365L16.2741 8.05876C16.8387 8.79891 17.8307 9.30265 18.7272 9.30527L19.0353 9.30631V18C19.0353 18.5523 18.5876 19 18.0353 19H9.58611V16.8881C9.58611 14.8689 9.56821 13.484 9.54028 13.3284C9.39899 12.5458 8.84496 11.9277 8.1011 11.7244C7.91886 11.6746 7.37351 11.6489 6.82219 11.6478C6.26491 11.6463 5.70166 11.6704 5.50071 11.7202C4.84282 11.8832 4.31021 12.4063 4.07699 13.1182C4.00784 13.3294 3.99808 13.7163 3.98316 16.7738L3.96635 19H2.96311C2.41082 19 1.96311 18.5523 1.96311 18V9.30631L2.27117 9.30527C3.16771 9.30265 4.1597 8.79891 4.72431 8.05876L4.94939 7.76365L5.03834 7.89889C5.08742 7.97332 5.258 8.16832 5.41746 8.33239Z" fill="#36E5E5"/>
<path d="M8.37473 13.3907C8.28035 13.1528 8.183 13.0453 7.96578 12.9405C7.80659 12.8639 7.65744 12.8524 6.80158 12.8524C5.94383 12.8524 5.79712 12.8639 5.63766 12.941C5.42641 13.0437 5.27617 13.2015 5.20702 13.3934C5.1742 13.4846 5.15848 14.6168 5.15848 16.8608V19H8.44496V16.8802C8.44496 14.0072 8.43574 13.5438 8.37473 13.3907Z" fill="#36E5E5"/>
</svg>
