<svg width="15" height="16" viewBox="0 0 15 16" fill="none" xmlns="http://www.w3.org/2000/svg">
<path fill-rule="evenodd" clip-rule="evenodd" d="M3.3871 4.00494C3.3871 1.79307 5.22851 0 7.5 0C9.77148 0 11.6129 1.79307 11.6129 4.00494C11.6129 6.2168 9.77148 8.00987 7.5 8.00987C5.22851 8.00987 3.3871 6.2168 3.3871 4.00494ZM7.5 1.41351C6.03019 1.41351 4.83871 2.57373 4.83871 4.00494C4.83871 5.43614 6.03019 6.59636 7.5 6.59636C8.96981 6.59636 10.1613 5.43614 10.1613 4.00494C10.1613 2.57373 8.96981 1.41351 7.5 1.41351Z" fill="#8E8E93"/>
<path fill-rule="evenodd" clip-rule="evenodd" d="M3.62903 10.8369C2.42648 10.8369 1.45161 11.7862 1.45161 12.9571V14.0769C1.45161 14.094 1.4643 14.1085 1.48158 14.1112C5.46747 14.7449 9.53255 14.7449 13.5184 14.1112C13.5357 14.1085 13.5484 14.094 13.5484 14.0769V12.9571C13.5484 11.7862 12.5735 10.8369 11.371 10.8369H11.0411C11.0156 10.8369 10.9903 10.8408 10.966 10.8485L10.1284 11.1149C8.42052 11.6578 6.57948 11.6578 4.87159 11.1149L4.034 10.8485C4.00976 10.8408 3.98441 10.8369 3.95891 10.8369H3.62903ZM0 12.9571C0 11.0055 1.62477 9.42338 3.62903 9.42338H3.95891C4.13744 9.42338 4.31486 9.45089 4.48458 9.5048L5.32218 9.77119C6.73732 10.2211 8.26268 10.2211 9.67781 9.77119L10.5154 9.5048C10.6851 9.45089 10.8625 9.42338 11.0411 9.42338H11.371C13.3753 9.42338 15 11.0055 15 12.9571V14.0769C15 14.7867 14.4717 15.3919 13.7523 15.5063C9.61152 16.1646 5.38848 16.1646 1.24768 15.5063C0.528271 15.3919 0 14.7867 0 14.0769V12.9571Z" fill="#8E8E93"/>
</svg>
