<svg width="13" height="14" viewBox="0 0 13 14" fill="none" xmlns="http://www.w3.org/2000/svg">
<path d="M2.40913 4.12205C2.24772 4.07947 2.11356 3.96739 2.04294 3.81612C1.97232 3.66485 1.97253 3.49004 2.04353 3.33895L3.28909 0.688156C3.38191 0.490613 3.58062 0.364599 3.79889 0.364869C4.01715 0.365139 4.21554 0.491649 4.30788 0.689416L4.85735 1.86634C4.87699 1.85862 4.89728 1.85192 4.91815 1.84633C8.17863 0.972683 11.5301 2.90761 12.4037 6.16811C13.2773 9.42866 11.3424 12.78 8.08195 13.6537C4.82141 14.5273 1.47001 12.5924 0.596358 9.33191C0.318535 8.29503 0.32479 7.24743 0.568113 6.27333C0.643405 5.97198 0.948775 5.78868 1.25017 5.86398C1.55157 5.93921 1.73487 6.24461 1.65957 6.54603C1.46136 7.33953 1.45589 8.19303 1.68303 9.04076C2.39586 11.7011 5.1304 13.2798 7.79072 12.567C10.4511 11.8542 12.0299 9.11966 11.3171 6.45933C10.6158 3.84243 7.95858 2.27207 5.33988 2.89986L5.89428 4.08734C5.9866 4.2851 5.95615 4.51844 5.81628 4.68593C5.67633 4.85343 5.45215 4.92486 5.2411 4.86919L2.40913 4.12205Z" fill="#8FA0A0"/>
</svg>
