<svg width="25" height="25" viewBox="0 0 25 25" fill="none" xmlns="http://www.w3.org/2000/svg">
<path d="M6.62209 8.61903C6.40687 8.56225 6.22799 8.41281 6.13383 8.21112C6.03967 8.00943 6.03996 7.77634 6.13462 7.57489L7.79537 4.0405C7.91913 3.77711 8.18408 3.60909 8.4751 3.60945C8.76611 3.60981 9.03064 3.77849 9.15375 4.04218L9.88638 5.61141C9.91257 5.60112 9.93962 5.59219 9.96745 5.58473C14.3147 4.41987 18.7833 6.99977 19.9481 11.3471C21.113 15.6945 18.5331 20.163 14.1858 21.3279C9.83846 22.4927 5.36993 19.9128 4.20506 15.5655C3.83463 14.183 3.84297 12.7862 4.1674 11.4874C4.26779 11.0856 4.67495 10.8412 5.07681 10.9416C5.47868 11.0419 5.72307 11.4491 5.62268 11.851C5.35839 12.909 5.3511 14.047 5.65395 15.1773C6.6044 18.7244 10.2504 20.8294 13.7975 19.879C17.3447 18.9285 19.4497 15.2825 18.4993 11.7354C17.5643 8.2462 14.0213 6.15239 10.5297 6.98944L11.2689 8.57274C11.392 8.83643 11.3514 9.14754 11.1649 9.37087C10.9783 9.5942 10.6794 9.68944 10.398 9.61521L6.62209 8.61903Z" fill="white"/>
</svg>
