<svg width="25" height="25" viewBox="0 0 25 25" fill="none" xmlns="http://www.w3.org/2000/svg">
<path fill-rule="evenodd" clip-rule="evenodd" d="M13.9636 15.0241C11.3133 17.1468 7.43382 16.9797 4.97703 14.5229C2.34099 11.8869 2.34099 7.61307 4.97703 4.97703C7.61307 2.34099 11.887 2.34099 14.523 4.97703C16.9797 7.43381 17.1468 11.3132 15.0241 13.9635L20.1798 19.1191C20.4727 19.412 20.4727 19.8869 20.1798 20.1798C19.8869 20.4727 19.4121 20.4727 19.1192 20.1798L13.9636 15.0241ZM6.03769 13.4623C3.98744 11.412 3.98744 8.08794 6.03769 6.03769C8.08795 3.98744 11.4121 3.98744 13.4623 6.03769C15.5111 8.08644 15.5126 11.4071 13.4669 13.4578C13.4654 13.4593 13.4639 13.4607 13.4622 13.4623C13.4607 13.4638 13.4593 13.4653 13.4579 13.4668C11.4072 15.5125 8.08644 15.511 6.03769 13.4623Z" fill="white"/>
</svg>
