<svg width="28" height="28" viewBox="0 0 28 28" fill="none" xmlns="http://www.w3.org/2000/svg">
<rect width="28" height="28" rx="4" fill="white" fill-opacity="0.1"/>
<path fill-rule="evenodd" clip-rule="evenodd" d="M15.9636 17.0241C13.3133 19.1468 9.43382 18.9797 6.97703 16.5229C4.34099 13.8869 4.34099 9.61307 6.97703 6.97703C9.61307 4.34099 13.887 4.34099 16.523 6.97703C18.9797 9.43381 19.1468 13.3132 17.0241 15.9635L22.1798 21.1191C22.4727 21.412 22.4727 21.8869 22.1798 22.1798C21.8869 22.4727 21.4121 22.4727 21.1192 22.1798L15.9636 17.0241ZM8.03769 15.4623C5.98744 13.412 5.98744 10.0879 8.03769 8.03769C10.0879 5.98744 13.4121 5.98744 15.4623 8.03769C17.5111 10.0864 17.5126 13.4071 15.4669 15.4578C15.4654 15.4593 15.4639 15.4607 15.4622 15.4623C15.4607 15.4638 15.4593 15.4653 15.4579 15.4668C13.4072 17.5125 10.0864 17.511 8.03769 15.4623Z" fill="white"/>
</svg>
