<svg width="18" height="18" viewBox="0 0 18 18" fill="none" xmlns="http://www.w3.org/2000/svg">
<path fill-rule="evenodd" clip-rule="evenodd" d="M15.433 0.301877C16.5582 -0.102339 17.5399 1.01656 17.1858 2.06009L17.0713 2.39764C15.3247 7.54472 13.1282 12.5123 10.5084 17.2402C9.85579 18.418 8.209 17.9749 8.02122 16.7738L7.20296 11.5409C7.11963 11.0081 6.71336 10.6054 6.2269 10.5251L1.13902 9.68467C-0.089782 9.48169 -0.426162 7.81868 0.668828 7.17646C5.26665 4.4798 10.0982 2.2184 15.1049 0.419768L15.433 0.301877ZM15.6888 1.80385L15.612 1.83143C10.818 3.55367 6.18715 5.70784 1.77282 8.269L6.4714 9.04515C7.61971 9.23481 8.50529 10.1606 8.68488 11.3091L9.43176 16.0856C11.9044 11.5647 13.9854 6.82338 15.6509 1.91562L15.6888 1.80385Z" fill="white"/>
</svg>
