<svg width="24" height="24" viewBox="0 0 24 24" fill="none" xmlns="http://www.w3.org/2000/svg">
<rect width="24" height="24" rx="8" fill="white" fill-opacity="0.1"/>
<path fill-rule="evenodd" clip-rule="evenodd" d="M11.3368 4.93868C11.6994 4.73724 12.1404 4.73724 12.5029 4.93868L17.7418 7.84915C18.1229 8.06089 18.3593 8.46263 18.3593 8.89864V14.6765C18.3593 15.1126 18.1229 15.5143 17.7418 15.726L12.5029 18.6365C12.1404 18.8379 11.6994 18.838 11.3368 18.6365L6.09799 15.726C5.71685 15.5143 5.48047 15.1126 5.48047 14.6765V8.89864C5.48047 8.46263 5.71685 8.06089 6.09799 7.84915L11.3368 4.93868ZM11.9729 5.89276C11.9399 5.87445 11.8999 5.87445 11.8669 5.89276L6.62803 8.80323C6.59338 8.82248 6.5719 8.859 6.5719 8.89864V14.6765C6.5719 14.7162 6.59338 14.7527 6.62803 14.772L11.8669 17.6825C11.8999 17.7007 11.9399 17.7007 11.9729 17.6825L17.2117 14.772C17.2464 14.7527 17.2679 14.7162 17.2679 14.6765V8.89864C17.2679 8.859 17.2464 8.82248 17.2117 8.80323L11.9729 5.89276Z" fill="white"/>
<path fill-rule="evenodd" clip-rule="evenodd" d="M8.4637 11.7876C8.4637 9.8788 10.0111 8.33141 11.9199 8.33141C13.8287 8.33141 15.3761 9.8788 15.3761 11.7876C15.3761 13.6964 13.8287 15.2438 11.9199 15.2438C10.0111 15.2438 8.4637 13.6964 8.4637 11.7876ZM11.9199 9.42284C10.6139 9.42284 9.55513 10.4816 9.55513 11.7876C9.55513 13.0936 10.6139 14.1524 11.9199 14.1524C13.2259 14.1524 14.2846 13.0936 14.2846 11.7876C14.2846 10.4816 13.2259 9.42284 11.9199 9.42284Z" fill="white"/>
</svg>
