<svg width="24" height="24" viewBox="0 0 24 24" fill="none" xmlns="http://www.w3.org/2000/svg">
<rect width="24" height="24" rx="8" fill="white" fill-opacity="0.1"/>
<path fill-rule="evenodd" clip-rule="evenodd" d="M13.3779 7.12093C13.3779 5.83226 14.4226 4.7876 15.7112 4.7876C16.9999 4.7876 18.0446 5.83226 18.0446 7.12093C18.0446 8.4096 16.9999 9.45426 15.7112 9.45426C15.0223 9.45426 14.4031 9.15566 13.976 8.68082L12.0251 9.74494L9.84211 10.9923C10.0362 11.3327 10.1471 11.7267 10.1471 12.1466C10.1471 12.3593 10.1187 12.5654 10.0653 12.7613L13.976 14.8944C14.4031 14.4195 15.0223 14.1209 15.7112 14.1209C16.9999 14.1209 18.0446 15.1656 18.0446 16.4543C18.0446 17.7429 16.9999 18.7876 15.7112 18.7876C14.4226 18.7876 13.3779 17.7429 13.3779 16.4543C13.3779 16.2415 13.4064 16.0354 13.4598 15.8396L9.54911 13.7065C9.12199 14.1813 8.50277 14.4799 7.8138 14.4799C6.52513 14.4799 5.48047 13.4352 5.48047 12.1466C5.48047 10.8579 6.52513 9.81324 7.8138 9.81324C8.28096 9.81324 8.71605 9.95053 9.08092 10.1869L11.5 8.80462L13.4598 7.73567C13.4064 7.53981 13.3779 7.3337 13.3779 7.12093ZM15.7112 5.86452C15.0173 5.86452 14.4548 6.42703 14.4548 7.12093C14.4548 7.81483 15.0173 8.37734 15.7112 8.37734C16.4051 8.37734 16.9676 7.81483 16.9676 7.12093C16.9676 6.42703 16.4051 5.86452 15.7112 5.86452ZM7.8138 10.8902C7.1199 10.8902 6.55739 11.4527 6.55739 12.1466C6.55739 12.8405 7.1199 13.403 7.8138 13.403C8.5077 13.403 9.07021 12.8405 9.07021 12.1466C9.07021 11.4527 8.5077 10.8902 7.8138 10.8902ZM14.4548 16.4543C14.4548 15.7604 15.0173 15.1979 15.7112 15.1979C16.4051 15.1979 16.9676 15.7604 16.9676 16.4543C16.9676 17.1482 16.4051 17.7107 15.7112 17.7107C15.0173 17.7107 14.4548 17.1482 14.4548 16.4543Z" fill="white"/>
</svg>
