<svg width="25" height="24" viewBox="0 0 25 24" fill="none" xmlns="http://www.w3.org/2000/svg">
<path fill-rule="evenodd" clip-rule="evenodd" d="M19.9348 5.25H6.12225L4.94208 3.1346C4.80961 2.89715 4.55901 2.75 4.28711 2.75H2.78711C2.3729 2.75 2.03711 3.08579 2.03711 3.5C2.03711 3.91421 2.3729 4.25 2.78711 4.25H3.84671L5.0114 6.33765L7.69748 12.2809L7.70023 12.2869L7.93682 12.8104L5.23998 15.687C5.04606 15.8939 4.98536 16.1924 5.0831 16.4585C5.18083 16.7247 5.42028 16.913 5.70197 16.9452L8.1601 17.2261C11.2348 17.5775 14.3395 17.5775 17.4141 17.2261L19.8723 16.9452C20.2838 16.8981 20.5793 16.5264 20.5323 16.1148C20.4852 15.7033 20.1135 15.4078 19.702 15.4549L17.2438 15.7358C14.2823 16.0742 11.2919 16.0742 8.33042 15.7358L7.3549 15.6243L9.33428 13.513C9.35343 13.4925 9.37121 13.4713 9.38763 13.4494L10.1404 13.5474C11.1954 13.6847 12.2617 13.7116 13.3222 13.6277C15.7957 13.4321 18.0881 12.2551 19.6886 10.3591L20.2666 9.67425C20.2861 9.65125 20.3041 9.62711 20.3206 9.60194L21.398 7.96009C22.1616 6.79633 21.3268 5.25 19.9348 5.25ZM9.44338 11.944C9.27797 11.9225 9.13534 11.8175 9.06569 11.666L9.06436 11.6631L6.84385 6.75H19.9348C20.1337 6.75 20.2529 6.9709 20.1438 7.13716L19.0913 8.74123L18.5423 9.39152C17.2003 10.9814 15.278 11.9683 13.204 12.1324C12.2474 12.208 11.2855 12.1837 10.334 12.0599L9.44338 11.944Z" fill="#299B9B"/>
<path d="M7.28711 18.5C6.45868 18.5 5.78711 19.1716 5.78711 20C5.78711 20.8284 6.45868 21.5 7.28711 21.5C8.11554 21.5 8.78711 20.8284 8.78711 20C8.78711 19.1716 8.11554 18.5 7.28711 18.5Z" fill="#299B9B"/>
<path d="M16.7871 20C16.7871 19.1716 17.4587 18.5 18.2871 18.5C19.1155 18.5 19.7871 19.1716 19.7871 20C19.7871 20.8284 19.1155 21.5 18.2871 21.5C17.4587 21.5 16.7871 20.8284 16.7871 20Z" fill="#299B9B"/>
</svg>
