<svg width="24" height="24" viewBox="0 0 24 24" fill="none" xmlns="http://www.w3.org/2000/svg">
<rect width="24" height="24" rx="8" fill="white" fill-opacity="0.1"/>
<path fill-rule="evenodd" clip-rule="evenodd" d="M17.3608 6.9375H7.00136L6.11623 5.35095C6.01688 5.17286 5.82893 5.0625 5.625 5.0625H4.5C4.18934 5.0625 3.9375 5.31434 3.9375 5.625C3.9375 5.93566 4.18934 6.1875 4.5 6.1875H5.2947L6.16822 7.75324L8.18278 12.2107L8.18484 12.2152L8.36228 12.6078L6.33965 14.7653C6.19421 14.9204 6.14869 15.1443 6.22199 15.3439C6.29529 15.5435 6.47488 15.6847 6.68614 15.7089L8.52974 15.9196C10.8358 16.1831 13.1643 16.1831 15.4703 15.9196L17.3139 15.7089C17.6225 15.6736 17.8441 15.3948 17.8089 15.0861C17.7736 14.7775 17.4948 14.5559 17.1862 14.5912L15.3425 14.8018C13.1214 15.0556 10.8786 15.0556 8.65748 14.8018L7.92584 14.7182L9.41038 13.1347C9.42474 13.1194 9.43808 13.1035 9.45039 13.087L10.015 13.1606C10.8062 13.2635 11.6059 13.2837 12.4013 13.2208C14.2564 13.0741 15.9758 12.1913 17.1761 10.7693L17.6096 10.2557C17.6242 10.2384 17.6378 10.2203 17.6501 10.2015L18.4582 8.97007C19.0309 8.09725 18.4048 6.9375 17.3608 6.9375ZM9.4922 11.958C9.36814 11.9419 9.26117 11.8631 9.20893 11.7495L9.20794 11.7473L7.54255 8.0625H17.3608C17.5099 8.0625 17.5994 8.22817 17.5175 8.35287L16.7281 9.55592L16.3164 10.0436C15.3099 11.236 13.8682 11.9762 12.3127 12.0993C11.5952 12.156 10.8738 12.1378 10.1602 12.0449L9.4922 11.958Z" fill="white"/>
<path d="M7.875 16.875C7.25368 16.875 6.75 17.3787 6.75 18C6.75 18.6213 7.25368 19.125 7.875 19.125C8.49632 19.125 9 18.6213 9 18C9 17.3787 8.49632 16.875 7.875 16.875Z" fill="white"/>
<path d="M15 18C15 17.3787 15.5037 16.875 16.125 16.875C16.7463 16.875 17.25 17.3787 17.25 18C17.25 18.6213 16.7463 19.125 16.125 19.125C15.5037 19.125 15 18.6213 15 18Z" fill="white"/>
</svg>
