<svg width="18" height="18" viewBox="0 0 18 18" fill="none" xmlns="http://www.w3.org/2000/svg">
<path fill-rule="evenodd" clip-rule="evenodd" d="M14.0629 7.87508L14.058 8.05718L14.0629 8.25008L14.0583 8.43249L14.0629 8.62508L14.0585 8.80876L14.0629 9.00008L13.9411 14.3273C13.9122 15.5913 12.9509 16.638 11.6939 16.7741C9.90338 16.968 8.09708 16.968 6.30651 16.7741C5.04958 16.638 4.08825 15.5913 4.05936 14.3273L3.93757 9.00008L3.94197 8.80749L3.93758 8.62508L3.9422 8.43323L3.93755 8.25008L3.94243 8.05801L3.9375 7.87508L4.06051 3.30161C4.06223 3.23781 4.06671 3.17466 4.07385 3.11229L4.07665 3.08592L4.07887 3.06467C4.13932 2.44659 4.48183 1.90752 4.98097 1.58402C5.01822 1.55926 5.05633 1.53567 5.09527 1.51332C5.13335 1.49078 5.17222 1.46941 5.21184 1.44924C5.45679 1.31997 5.73016 1.23618 6.02116 1.20939C8.00303 1.02696 9.99743 1.02696 11.9792 1.2094C12.2698 1.23614 12.5428 1.3197 12.7874 1.44863C12.827 1.46876 12.8659 1.49011 12.904 1.51262C12.9442 1.53563 12.9835 1.55997 13.0218 1.58555C13.5183 1.90833 13.8593 2.4446 13.9211 3.05957L13.9269 3.11529C13.9339 3.17669 13.9382 3.23883 13.9399 3.30161L14.0629 7.87508ZM12.8059 3.24058L12.9236 8.39056L12.8282 11.9383C12.8068 12.7358 12.1925 13.3913 11.398 13.4645C9.80281 13.6113 8.19758 13.6113 6.60242 13.4645C5.80797 13.3913 5.19364 12.7358 5.17219 11.9383L5.07679 8.39101L5.19453 3.24058C5.19479 3.22949 5.19524 3.21846 5.19591 3.20748C5.24052 2.90577 5.41537 2.64534 5.66328 2.48719C5.7572 2.43823 5.8614 2.40576 5.97225 2.39376C7.98503 2.17579 10.0154 2.17579 12.0282 2.39376C12.139 2.40576 12.2432 2.43821 12.3371 2.48713C12.5851 2.64532 12.76 2.90588 12.8045 3.20773C12.8052 3.21863 12.8057 3.22958 12.8059 3.24058ZM9.00023 16.2751C9.62153 16.2751 10.1252 15.7714 10.1252 15.1501C10.1252 14.5287 9.62153 14.0251 9.00023 14.0251C8.37893 14.0251 7.87523 14.5287 7.87523 15.1501C7.87523 15.7714 8.37893 16.2751 9.00023 16.2751Z" fill="#8FA0A0"/>
</svg>
