<svg width="24" height="24" viewBox="0 0 24 24" fill="none" xmlns="http://www.w3.org/2000/svg">
<path fill-rule="evenodd" clip-rule="evenodd" d="M13.1544 3.36032C12.4833 3.01005 11.5739 3.00465 10.8975 3.35402C8.3045 4.69316 5.95263 6.22859 3.89166 7.9316C3.57295 8.19495 3.34677 8.57764 3.35063 9.02808C3.35447 9.47668 3.58525 9.85425 3.90203 10.1133C5.94588 11.7844 8.29969 13.3213 10.8452 14.6498C11.5163 15.0001 12.4257 15.0055 13.1022 14.6561C15.6951 13.317 18.047 11.7815 20.108 10.0785C20.4267 9.81517 20.6529 9.43248 20.649 8.98203C20.6451 8.53344 20.4144 8.15586 20.0976 7.89685C18.0537 6.22568 15.6999 4.68886 13.1544 3.36032ZM11.5858 4.68677C11.8254 4.563 12.2191 4.56417 12.4604 4.6901C14.8897 5.95802 17.1281 7.41672 19.0674 8.99229C17.1166 10.5932 14.8848 12.0472 12.4139 13.3233C12.1742 13.4471 11.7805 13.4459 11.5392 13.32C9.10989 12.0521 6.87147 10.5934 4.93224 9.01783C6.88305 7.4169 9.11481 5.96291 11.5858 4.68677Z" fill="#299B9B"/>
<path d="M21.1973 12.6981C21.4167 13.0494 21.3097 13.5121 20.9583 13.7315L14.8511 17.5444C14.0224 18.0618 12.9942 18.301 12.0002 18.301C11.0063 18.3011 9.97807 18.062 9.14921 17.5447L3.10888 13.775C2.75748 13.5557 2.6504 13.093 2.86971 12.7416C3.08901 12.3902 3.55166 12.2831 3.90305 12.5024L9.94338 16.2722C10.4875 16.6118 11.2267 16.8011 12.0001 16.801C12.7736 16.801 13.5127 16.6116 14.0567 16.272L20.164 12.4591C20.5153 12.2397 20.978 12.3467 21.1973 12.6981Z" fill="#299B9B"/>
<path d="M21.1973 16.4527C21.4167 16.8041 21.3097 17.2667 20.9584 17.4861L15.6695 20.789C14.6119 21.4495 13.2889 21.7602 12.0002 21.7603C10.7115 21.7604 9.38844 21.4498 8.33066 20.7895L3.10879 17.5296C2.75742 17.3103 2.6504 16.8476 2.86975 16.4963C3.08909 16.1449 3.55175 16.0379 3.90312 16.2572L9.12498 19.517C9.898 19.9996 10.9319 20.2604 12.0001 20.2603C13.0683 20.2602 14.1021 19.9994 14.875 19.5167L20.1639 16.2139C20.5152 15.9945 20.9779 16.1014 21.1973 16.4527Z" fill="#299B9B"/>
</svg>
