<svg width="12" height="15" viewBox="0 0 12 15" fill="none" xmlns="http://www.w3.org/2000/svg">
<path d="M4.45161 0C4.13093 0 3.87097 0.248811 3.87097 0.55573V1.11146H0.580645C0.259966 1.11146 0 1.36027 0 1.66719C0 1.97411 0.259966 2.22292 0.580645 2.22292H11.4194C11.74 2.22292 12 1.97411 12 1.66719C12 1.36027 11.74 1.11146 11.4194 1.11146H8.12903V0.55573C8.12903 0.248811 7.86906 0 7.54839 0H4.45161Z" fill="white"/>
<path d="M4.45161 6.22417C4.77228 6.22417 5.03226 6.47299 5.03226 6.7799V11.9667C5.03226 12.2736 4.77228 12.5224 4.45161 12.5224C4.13093 12.5224 3.87097 12.2736 3.87097 11.9667V6.7799C3.87097 6.47299 4.13093 6.22417 4.45161 6.22417Z" fill="white"/>
<path d="M8.12903 6.7799C8.12903 6.47299 7.86906 6.22417 7.54839 6.22417C7.22772 6.22417 6.96774 6.47299 6.96774 6.7799V11.9667C6.96774 12.2736 7.22772 12.5224 7.54839 12.5224C7.86906 12.5224 8.12903 12.2736 8.12903 11.9667V6.7799Z" fill="white"/>
<path fill-rule="evenodd" clip-rule="evenodd" d="M1.3482 4.19923C1.38087 3.91778 1.62943 3.70487 1.9253 3.70487H10.0747C10.3706 3.70487 10.6191 3.91778 10.6518 4.19923L10.8067 5.53397C11.0876 7.95346 11.0876 10.3953 10.8067 12.8148L10.7915 12.9463C10.68 13.9067 9.90224 14.6725 8.90237 14.8065C6.97688 15.0645 5.02312 15.0645 3.09761 14.8065C2.09771 14.6725 1.32 13.9067 1.2085 12.9463L1.19325 12.8148C0.912356 10.3953 0.912356 7.95346 1.19325 5.53397L1.3482 4.19923ZM2.445 4.81632L2.34743 5.65671C2.07602 7.99465 2.07602 10.3542 2.34743 12.6921L2.36268 12.8235C2.41557 13.279 2.7844 13.6422 3.25862 13.7058C5.07732 13.9494 6.92268 13.9494 8.74134 13.7058C9.21561 13.6422 9.58444 13.279 9.63732 12.8235L9.65257 12.6921C9.924 10.3542 9.924 7.99465 9.65257 5.65671L9.55502 4.81632H2.445Z" fill="white"/>
</svg>
