<svg width="18" height="18" viewBox="0 0 18 18" fill="none" xmlns="http://www.w3.org/2000/svg">
<path d="M7.5 1.6875C7.18934 1.6875 6.9375 1.93934 6.9375 2.25V2.8125H3.75C3.43934 2.8125 3.1875 3.06434 3.1875 3.375C3.1875 3.68566 3.43934 3.9375 3.75 3.9375H14.25C14.5607 3.9375 14.8125 3.68566 14.8125 3.375C14.8125 3.06434 14.5607 2.8125 14.25 2.8125H11.0625V2.25C11.0625 1.93934 10.8107 1.6875 10.5 1.6875H7.5Z" fill="#D10505"/>
<path d="M7.5 7.9875C7.81065 7.9875 8.0625 8.23935 8.0625 8.55V13.8C8.0625 14.1107 7.81065 14.3625 7.5 14.3625C7.18934 14.3625 6.9375 14.1107 6.9375 13.8V8.55C6.9375 8.23935 7.18934 7.9875 7.5 7.9875Z" fill="#D10505"/>
<path d="M11.0625 8.55C11.0625 8.23935 10.8107 7.9875 10.5 7.9875C10.1893 7.9875 9.9375 8.23935 9.9375 8.55V13.8C9.9375 14.1107 10.1893 14.3625 10.5 14.3625C10.8107 14.3625 11.0625 14.1107 11.0625 13.8V8.55Z" fill="#D10505"/>
<path fill-rule="evenodd" clip-rule="evenodd" d="M4.49335 5.93789C4.52501 5.65301 4.7658 5.4375 5.05242 5.4375H12.9472C13.2338 5.4375 13.4746 5.65301 13.5062 5.93789L13.6563 7.28889C13.9284 9.73785 13.9284 12.2095 13.6563 14.6584L13.6415 14.7915C13.5335 15.7636 12.7801 16.5388 11.8115 16.6744C9.94614 16.9355 8.05344 16.9355 6.1881 16.6744C5.21944 16.5388 4.46604 15.7636 4.35802 14.7915L4.34325 14.6584C4.07113 12.2095 4.07113 9.73785 4.34325 7.28889L4.49335 5.93789ZM5.55588 6.5625L5.46136 7.41313C5.19843 9.77955 5.19843 12.1678 5.46136 14.5342L5.47614 14.6672C5.52737 15.1282 5.88468 15.4959 6.34407 15.5602C8.10594 15.8068 9.89364 15.8068 11.6555 15.5602C12.1149 15.4959 12.4722 15.1282 12.5234 14.6672L12.5382 14.5342C12.8012 12.1678 12.8012 9.77955 12.5382 7.41313L12.4437 6.5625H5.55588Z" fill="#D10505"/>
</svg>
