<svg width="43" height="37" viewBox="0 0 43 37" fill="none" xmlns="http://www.w3.org/2000/svg">
<path fill-rule="evenodd" clip-rule="evenodd" d="M6.75034 0.271524C6.83279 0.209146 7.01379 0.123819 7.15265 0.0819487C7.48679 -0.0190035 35.3147 -0.0308443 35.7558 0.0697417C35.9369 0.111001 36.1864 0.249795 36.3103 0.377969C36.4342 0.506143 37.9901 3.12309 39.7678 6.19352L43 11.7759L42.9897 12.4375C42.9588 14.4319 41.669 16.4786 39.8387 17.4373L39.3395 17.6988V26.9234C39.3395 35.696 39.3631 36.465 39.0115 36.7229C38.9553 36.7642 38.8894 36.7924 38.8123 36.8383C38.5445 36.9974 38.2637 37 21.5 37C4.7363 37 4.45551 36.9974 4.18774 36.8383C4.11063 36.7924 4.04474 36.7642 3.98846 36.7229C3.63693 36.465 3.66046 35.696 3.66046 26.9234V17.6988L3.17661 17.4452C2.55905 17.1216 1.64368 16.3443 1.20963 15.7749C0.474426 14.8107 0.0341492 13.5833 0.0125427 12.4375L0 11.7759L3.30023 6.08036C5.11539 2.94792 6.66794 0.333902 6.75034 0.271524ZM30.7123 10.7217L39.9245 10.7007L35.002 2.18241L7.99414 2.14787L3.07523 10.7007L12.2877 10.7217C17.3544 10.7333 25.6455 10.7333 30.7123 10.7217ZM4.24951 15.6623C6.63547 16.8526 9.46396 15.5806 10.0874 13.037L10.1431 12.8096H6.14447C3.59702 12.8096 2.14578 12.839 2.14578 12.8904C2.14578 13.0874 2.58276 14.0849 2.81335 14.4142C3.13562 14.8747 3.76221 15.4191 4.24951 15.6623ZM19.2191 14.9676C19.7485 14.446 20.2024 13.6761 20.2871 13.156L20.3435 12.8096H12.3909L12.4455 13.0784C12.55 13.5928 12.977 14.3461 13.4468 14.8448C14.9907 16.4837 17.6232 16.5397 19.2191 14.9676ZM27.6119 16.0027C29.0008 15.6393 30.2957 14.3525 30.5545 13.0784L30.6091 12.8096H22.6781L22.6801 12.9958C22.6833 13.2919 23.0466 14.0821 23.3926 14.5454C24.3085 15.7716 26.1132 16.3949 27.6119 16.0027ZM39.7222 14.9285C40.2181 14.4397 40.6857 13.6597 40.8065 13.1198L40.8574 12.8924H32.8682L32.9778 13.2438C33.2819 14.2188 33.8292 14.9427 34.6625 15.4721C36.2961 16.5097 38.3407 16.2901 39.7222 14.9285ZM14.4736 17.9042C13.5734 17.6037 12.7807 17.1309 12.1323 16.5076C11.8382 16.2249 11.5238 15.8887 11.4335 15.7605L11.2695 15.5273L10.8543 16.0361C9.81375 17.3111 7.98495 18.1796 6.33218 18.1839L5.76419 18.1853V34.8912H9.45749L9.48819 31.0541C9.51572 25.7851 9.53397 25.1186 9.66129 24.755C10.091 23.5281 11.073 22.6264 12.2857 22.3453C13.0226 22.1744 16.4034 22.1795 17.0793 22.3525C18.4504 22.7034 19.4719 23.768 19.7322 25.117C19.784 25.3854 19.817 27.7718 19.817 31.2515V34.8912H37.2358V18.1853L36.6678 18.1839C35.015 18.1796 33.1862 17.3111 32.1457 16.0361L31.7305 15.5273L31.5665 15.7605C31.2502 16.2098 30.3279 17.0246 29.7664 17.3506C29.4547 17.5314 28.8967 17.7835 28.5264 17.9104C27.9077 18.1227 27.7546 18.1413 26.6331 18.1396C25.535 18.1379 25.3455 18.1155 24.7397 17.9156C23.751 17.5892 23.0644 17.159 22.2397 16.3492L21.5069 15.6296L20.7251 16.3934C19.8209 17.2765 18.9948 17.7395 17.8033 18.031C16.8015 18.2762 15.4316 18.224 14.4736 17.9042ZM17.5839 25.224C17.4095 24.8139 17.2301 24.6296 16.8297 24.4488C16.5363 24.3163 16.2613 24.2969 14.684 24.2969C13.1027 24.2969 12.8323 24.3161 12.5381 24.4495C12.1487 24.6263 11.8719 24.898 11.7444 25.229C11.6839 25.3858 11.6546 27.3376 11.6546 31.2043V34.8912H17.7133V31.2376C17.7133 26.2869 17.6961 25.4881 17.5839 25.224Z" fill="#D9D9D9"/>
</svg>
