<svg width="18" height="18" viewBox="0 0 18 18" fill="none" xmlns="http://www.w3.org/2000/svg">
<path fill-rule="evenodd" clip-rule="evenodd" d="M3.1875 3.75C3.1875 2.61092 4.11092 1.6875 5.25 1.6875H11.2401C11.663 1.6875 12.0599 1.89118 12.3064 2.23466L14.5663 5.38309C14.7264 5.60616 14.8125 5.87383 14.8125 6.14842V14.25C14.8125 15.3891 13.8891 16.3125 12.75 16.3125H5.25C4.11092 16.3125 3.1875 15.3891 3.1875 14.25V3.75ZM5.25 2.8125C4.73223 2.8125 4.3125 3.23223 4.3125 3.75V14.25C4.3125 14.7678 4.73223 15.1875 5.25 15.1875H12.75C13.2678 15.1875 13.6875 14.7678 13.6875 14.25V6.67279H11.25C10.9393 6.67279 10.6875 6.42094 10.6875 6.11029V2.8125H5.25Z" fill="#8FA0A0"/>
<path d="M11.3143 9.91388C11.1202 10.1565 10.7662 10.1958 10.5236 10.0018L9.56257 9.23288V11.8125C9.56257 12.1232 9.31072 12.375 9.00007 12.375C8.68935 12.375 8.43757 12.1232 8.43757 11.8125V9.2328L7.47641 10.0018C7.23382 10.1958 6.87985 10.1565 6.68578 9.91388C6.49171 9.67133 6.53104 9.31732 6.77363 9.12322L8.6466 7.62488C8.74207 7.5477 8.86327 7.50113 8.99527 7.5C8.99685 7.5 8.99842 7.5 9.00007 7.5H9.00187C9.1362 7.50045 9.25942 7.54792 9.35595 7.6269L11.2264 9.12322C11.469 9.31732 11.5083 9.67133 11.3143 9.91388Z" fill="#8FA0A0"/>
</svg>
