<svg width="24" height="24" viewBox="0 0 24 24" fill="none" xmlns="http://www.w3.org/2000/svg">
<rect width="24" height="24" rx="8" fill="white" fill-opacity="0.1"/>
<path fill-rule="evenodd" clip-rule="evenodd" d="M10.6955 5C8.97055 5 7.57218 6.39838 7.57218 8.12336C7.57218 9.84834 8.97055 11.2467 10.6955 11.2467C12.4205 11.2467 13.8189 9.84834 13.8189 8.12336C13.8189 6.39838 12.4205 5 10.6955 5ZM8.67454 8.12336C8.67454 7.0072 9.57937 6.10236 10.6955 6.10236C11.8117 6.10236 12.7165 7.0072 12.7165 8.12336C12.7165 9.23952 11.8117 10.1444 10.6955 10.1444C9.57937 10.1444 8.67454 9.23952 8.67454 8.12336Z" fill="white"/>
<path d="M6.10236 15.105C6.10236 14.1918 6.84268 13.4514 7.75591 13.4514H8.00641C8.02578 13.4514 8.04503 13.4545 8.06344 13.4605L8.69951 13.6682C9.1989 13.8313 9.71328 13.9316 10.2311 13.969C10.3401 13.977 10.4357 13.9004 10.4603 13.794C10.5159 13.5539 10.5882 13.3202 10.6761 13.0943C10.7149 12.9946 10.642 12.8843 10.535 12.8811C10.0304 12.8659 9.5275 12.7789 9.04169 12.6203L8.40562 12.4126C8.27673 12.3705 8.142 12.3491 8.00641 12.3491H7.75591C6.23386 12.3491 5 13.5829 5 15.105V15.9783C5 16.5318 5.40117 17.0038 5.94749 17.093C7.53354 17.352 9.13546 17.4803 10.7373 17.478C10.849 17.4779 10.9192 17.3571 10.8692 17.2572C10.7613 17.0415 10.6681 16.8172 10.5909 16.5856C10.5496 16.4618 10.436 16.3748 10.3055 16.373C8.90711 16.3537 7.50983 16.2311 6.12512 16.005C6.112 16.0029 6.10236 15.9916 6.10236 15.9783V15.105Z" fill="white"/>
<path d="M16.0236 13.8556C16.0236 13.5512 15.7768 13.3045 15.4724 13.3045C15.168 13.3045 14.9213 13.5512 14.9213 13.8556V15.1584C14.9213 15.3347 15.0056 15.5004 15.1483 15.6041L15.8832 16.1386C16.1294 16.3177 16.474 16.2633 16.6531 16.0171C16.8322 15.7709 16.7777 15.4261 16.5315 15.2471L16.0236 14.8778V13.8556Z" fill="white"/>
<path fill-rule="evenodd" clip-rule="evenodd" d="M15.4724 19C17.7048 19 19.5144 17.1903 19.5144 14.958C19.5144 12.7256 17.7048 10.916 15.4724 10.916C13.2401 10.916 11.4304 12.7256 11.4304 14.958C11.4304 17.1903 13.2401 19 15.4724 19ZM15.4724 17.8976C17.0959 17.8976 18.4121 16.5815 18.4121 14.958C18.4121 13.3344 17.0959 12.0184 15.4724 12.0184C13.849 12.0184 12.5328 13.3344 12.5328 14.958C12.5328 16.5815 13.849 17.8976 15.4724 17.8976Z" fill="white"/>
</svg>
