<svg width="24" height="24" viewBox="0 0 24 24" fill="none" xmlns="http://www.w3.org/2000/svg">
<rect width="24" height="24" rx="8" fill="white" fill-opacity="0.1"/>
<path fill-rule="evenodd" clip-rule="evenodd" d="M8.88591 8.50432C8.88591 6.56894 10.4548 5 12.3902 5C14.3256 5 15.8945 6.56894 15.8945 8.50432C15.8945 10.4397 14.3256 12.0086 12.3902 12.0086C10.4548 12.0086 8.88591 10.4397 8.88591 8.50432ZM12.3902 6.23682C11.1379 6.23682 10.1227 7.25202 10.1227 8.50432C10.1227 9.75662 11.1379 10.7718 12.3902 10.7718C13.6425 10.7718 14.6577 9.75662 14.6577 8.50432C14.6577 7.25202 13.6425 6.23682 12.3902 6.23682Z" fill="white"/>
<path fill-rule="evenodd" clip-rule="evenodd" d="M9.09205 14.4823C8.06743 14.4823 7.23682 15.3129 7.23682 16.3375V17.3173C7.23682 17.3322 7.24763 17.3449 7.26235 17.3473C10.6585 17.9018 14.122 17.9018 17.5181 17.3473C17.5328 17.3449 17.5436 17.3322 17.5436 17.3173V16.3375C17.5436 15.3129 16.713 14.4823 15.6884 14.4823H15.4073C15.3856 14.4823 15.364 14.4857 15.3433 14.4924L14.6297 14.7255C13.1745 15.2006 11.6059 15.2006 10.1507 14.7255L9.43709 14.4924C9.41644 14.4857 9.39484 14.4823 9.37311 14.4823H9.09205ZM6 16.3375C6 14.6298 7.38435 13.2455 9.09205 13.2455H9.37311C9.52523 13.2455 9.67639 13.2695 9.821 13.3167L10.5347 13.5498C11.7404 13.9434 13.0401 13.9434 14.2458 13.5498L14.9594 13.3167C15.1041 13.2695 15.2552 13.2455 15.4073 13.2455H15.6884C17.3961 13.2455 18.7805 14.6298 18.7805 16.3375V17.3173C18.7805 17.9384 18.3303 18.4679 17.7174 18.568C14.1893 19.144 10.5912 19.144 7.06306 18.568C6.4501 18.4679 6 17.9384 6 17.3173V16.3375Z" fill="white"/>
</svg>
