<svg width="512" height="512" viewBox="0 0 512 512" fill="none" xmlns="http://www.w3.org/2000/svg">
<g clip-path="url(#clip0_1007_1422)">
<path d="M360 513C240.438 513 120.876 513 1 513C1 466.313 1 419.625 1.28787 372.302C34.4216 338.894 67.2674 306.123 100.901 272.565C97.2218 269.221 93.7405 266.404 90.6637 263.2C76.0365 247.964 61.2104 232.902 47.0664 217.226C36.77 205.815 32.4632 191.741 32.0423 176.41C31.4816 155.987 39.6729 139.175 53.5507 124.93C77.2442 100.609 101.179 76.5233 125.048 52.3733C142.002 35.2193 159.014 18.1224 176 1C288.235 1 400.47 1 513 1C513 55.0205 513 109.042 512.668 163.597C477.888 198.66 443.441 233.189 408.262 268.449C411.051 270.903 413.853 273.023 416.248 275.53C431.772 291.78 447.905 307.519 462.479 324.586C477.541 342.223 479.891 363.289 473.982 385.36C470.182 399.554 460.924 410.392 450.984 420.514C422.973 449.041 394.67 477.282 366.515 505.668C364.216 507.986 362.166 510.55 360 513ZM200.702 235.709C199.674 226.637 197.953 217.58 197.757 208.49C197.293 186.843 197.549 165.18 197.514 143.523C197.512 141.779 197.514 140.035 197.514 137.216C184.891 140.542 173.157 143.5 161.547 146.881C160.26 147.256 158.9 150.037 158.886 151.713C158.725 170.703 158.534 189.7 158.899 208.685C160.092 270.654 218.933 316.056 279.276 301.752C319.2 292.289 349.512 260.283 353.884 219.583C356.345 196.674 354.936 173.346 355.125 150.206C355.134 149.117 353.933 147.305 352.958 147.03C341.168 143.709 329.314 140.613 316.699 137.252C316.699 140.254 316.732 142.209 316.694 144.162C316.148 171.789 316.263 199.451 314.775 227.027C313.955 242.227 308.258 256.547 296.513 266.988C278.085 283.37 256.388 284.526 234.155 277.134C214.965 270.754 205.688 255.216 200.702 235.709ZM239.773 146.5C239.773 157.924 239.773 169.348 239.773 180.867C251.52 180.867 262.603 180.867 273.839 180.867C273.839 153.918 273.839 127.218 273.839 100.091C262.437 100.091 251.378 100.091 239.773 100.091C239.773 115.605 239.773 130.552 239.773 146.5ZM123.963 401.474C133.517 412.274 145.907 413.172 158.84 410.876C173.138 408.338 181.606 397.306 181.228 382.75C180.862 368.689 171.839 358.192 158.11 356.289C149.733 355.128 141.59 355.969 133.618 362.055C133.618 354.004 133.618 347.142 133.618 340.359C128.172 340.359 123.407 340.359 118.674 340.359C118.674 356.246 118.317 371.858 118.896 387.435C119.065 391.973 121.904 396.412 123.963 401.474ZM233.564 363.172C223.227 353.122 206.403 353.223 196.329 363.396C185.709 374.12 185.763 393.283 196.443 404.103C207.273 415.076 222.584 414.457 235.165 402.176C239.879 411.875 248.294 411.136 256.968 410.232C256.968 405.912 256.968 401.987 256.968 397.791C251.149 398.176 250.256 394.653 250.29 390.137C250.374 379.182 250.318 368.225 250.318 357.285C244.979 357.285 240.102 357.285 235.632 357.285C235.072 359.714 234.621 361.671 233.564 363.172ZM374.961 387.557C373.667 386.087 372.373 384.616 370.923 382.968C378.443 374.382 385.791 365.993 393.778 356.874C388.802 356.874 385.113 357.159 381.487 356.8C377.258 356.381 374.421 357.857 371.731 361.135C366.182 367.898 360.19 374.297 354.38 380.846C354.01 380.727 353.639 380.607 353.269 380.488C353.269 367.15 353.269 353.812 353.269 340.423C347.828 340.423 343.092 340.423 338.315 340.423C338.315 363.952 338.315 387.164 338.315 410.435C343.431 410.435 348.175 410.435 353.489 410.435C353.489 402.052 353.489 393.986 353.489 385.92C354.067 385.544 354.645 385.169 355.223 384.794C355.838 385.984 356.236 387.368 357.102 388.333C362.995 394.904 368.952 401.419 374.978 407.869C376.055 409.022 377.5 410.522 378.852 410.605C384.083 410.924 389.345 410.734 395.826 410.734C388.453 402.57 381.925 395.34 374.961 387.557ZM283.982 362.941C283.982 361.017 283.982 359.094 283.982 357.235C278.434 357.235 273.545 357.235 268.275 357.235C268.275 366.393 268.275 375.187 268.275 383.981C268.275 392.727 268.275 401.472 268.275 410.219C273.951 410.219 278.828 410.219 283.946 410.219C283.946 401.656 283.915 393.509 283.954 385.363C284.001 375.685 288.73 370.535 297.5 370.519C306.539 370.502 311.067 375.292 311.133 385.077C311.19 393.368 311.145 401.66 311.145 410.214C316.592 410.214 321.608 410.214 326.833 410.214C326.833 398.982 327.201 388.157 326.738 377.367C326.196 364.744 318.122 357.341 305.534 356.772C297.08 356.391 289.997 359.046 284.192 366.603C284.073 364.978 284.029 364.374 283.982 362.941Z" fill="#7001FF"/>
<path d="M175.531 1C159.014 18.1224 142.002 35.2193 125.048 52.3733C101.179 76.5233 77.2442 100.609 53.5507 124.93C39.6729 139.175 31.4816 155.987 32.0423 176.41C32.4632 191.741 36.77 205.815 47.0664 217.226C61.2104 232.902 76.0365 247.964 90.6637 263.2C93.7405 266.404 97.2218 269.221 100.901 272.565C67.2674 306.123 34.4216 338.894 1.28787 371.833C1 248.432 1 124.865 1 1C59.0206 1 117.042 1 175.531 1Z" fill="#A6FB6F"/>
<path d="M360.469 513C362.166 510.55 364.216 507.986 366.515 505.668C394.67 477.282 422.973 449.041 450.984 420.514C460.923 410.392 470.182 399.554 473.982 385.36C479.891 363.289 477.541 342.223 462.479 324.586C447.905 307.519 431.772 291.78 416.248 275.53C413.853 273.023 411.051 270.903 408.262 268.45C443.441 233.189 477.888 198.66 512.668 164.066C513 280.232 513 396.464 513 513C462.313 513 411.625 513 360.469 513Z" fill="#A6FC6F"/>
<path d="M200.791 236.113C205.688 255.216 214.965 270.754 234.155 277.134C256.388 284.526 278.085 283.37 296.513 266.988C308.259 256.547 313.955 242.227 314.775 227.027C316.263 199.451 316.148 171.789 316.694 144.162C316.732 142.209 316.699 140.254 316.699 137.252C329.314 140.613 341.168 143.709 352.958 147.03C353.933 147.305 355.134 149.117 355.125 150.206C354.936 173.346 356.345 196.674 353.884 219.582C349.512 260.283 319.2 292.289 279.277 301.752C218.933 316.056 160.092 270.654 158.899 208.685C158.534 189.7 158.725 170.703 158.886 151.713C158.9 150.037 160.26 147.256 161.547 146.881C173.157 143.5 184.891 140.542 197.514 137.216C197.514 140.035 197.512 141.779 197.514 143.523C197.549 165.18 197.293 186.843 197.757 208.49C197.953 217.58 199.674 226.637 200.791 236.113Z" fill="#FEFDFF"/>
<path d="M239.773 146C239.773 130.552 239.773 115.605 239.773 100.091C251.378 100.091 262.437 100.091 273.839 100.091C273.839 127.218 273.839 153.918 273.839 180.867C262.603 180.867 251.52 180.867 239.773 180.867C239.773 169.348 239.773 157.924 239.773 146Z" fill="white"/>
<path d="M123.741 401.185C121.904 396.412 119.065 391.973 118.896 387.435C118.317 371.858 118.674 356.246 118.674 340.359C123.407 340.359 128.172 340.359 133.618 340.359C133.618 347.142 133.618 354.004 133.618 362.055C141.59 355.969 149.733 355.128 158.11 356.289C171.839 358.192 180.862 368.689 181.228 382.75C181.606 397.306 173.138 408.338 158.84 410.876C145.907 413.172 133.517 412.274 123.741 401.185ZM138.843 373.314C133.527 379.534 132.858 386.812 137.085 392.439C141.188 397.902 150.314 399.86 157.09 396.731C163.393 393.822 166.443 387.666 165.055 380.656C162.927 369.915 149.916 365.942 138.843 373.314Z" fill="#FCF9FF"/>
<path d="M233.867 363.4C234.621 361.671 235.072 359.714 235.632 357.285C240.102 357.285 244.979 357.285 250.318 357.285C250.318 368.225 250.374 379.182 250.29 390.137C250.256 394.653 251.149 398.176 256.968 397.791C256.968 401.987 256.968 405.912 256.968 410.232C248.294 411.136 239.879 411.875 235.165 402.176C222.584 414.457 207.273 415.076 196.443 404.103C185.763 393.283 185.709 374.12 196.329 363.396C206.403 353.223 223.227 353.122 233.867 363.4ZM206.481 392.872C210.731 397.783 216.235 398.902 222.33 397.955C228.787 396.951 233.506 391.99 234.238 385.641C235.026 378.809 231.564 372.909 225.372 370.528C218.892 368.036 211.136 369.612 206.928 374.274C202.539 379.137 202.239 385.163 206.481 392.872Z" fill="#FCFAFF"/>
<path d="M375.179 387.834C381.925 395.34 388.453 402.57 395.826 410.734C389.345 410.734 384.083 410.924 378.852 410.605C377.5 410.522 376.055 409.022 374.978 407.869C368.952 401.419 362.995 394.904 357.102 388.333C356.236 387.368 355.838 385.984 355.223 384.794C354.645 385.169 354.067 385.544 353.489 385.92C353.489 393.986 353.489 402.052 353.489 410.435C348.175 410.435 343.431 410.435 338.315 410.435C338.315 387.164 338.315 363.952 338.315 340.422C343.092 340.422 347.828 340.422 353.269 340.422C353.269 353.812 353.269 367.15 353.269 380.488C353.639 380.607 354.01 380.727 354.38 380.846C360.19 374.297 366.182 367.898 371.731 361.135C374.421 357.857 377.258 356.381 381.487 356.8C385.113 357.159 388.802 356.874 393.778 356.874C385.791 365.993 378.443 374.382 370.923 382.968C372.373 384.616 373.667 386.086 375.179 387.834Z" fill="#FCFAFF"/>
<path d="M283.984 363.356C284.029 364.374 284.073 364.979 284.192 366.603C289.997 359.046 297.08 356.391 305.534 356.773C318.122 357.341 326.196 364.744 326.738 377.367C327.201 388.157 326.833 398.982 326.833 410.214C321.608 410.214 316.592 410.214 311.145 410.214C311.145 401.66 311.19 393.368 311.133 385.077C311.067 375.292 306.539 370.502 297.5 370.519C288.73 370.535 284.001 375.685 283.954 385.363C283.915 393.509 283.946 401.656 283.946 410.219C278.828 410.219 273.951 410.219 268.275 410.219C268.275 401.472 268.275 392.727 268.275 383.981C268.275 375.187 268.275 366.393 268.275 357.235C273.545 357.235 278.434 357.235 283.983 357.235C283.983 359.094 283.983 361.018 283.984 363.356Z" fill="#FAF7FF"/>
<path d="M139.122 373.069C149.916 365.942 162.927 369.914 165.054 380.656C166.443 387.666 163.393 393.822 157.09 396.731C150.314 399.86 141.188 397.902 137.085 392.439C132.858 386.812 133.527 379.534 139.122 373.069Z" fill="#7305FF"/>
<path d="M206.257 392.572C202.239 385.163 202.539 379.137 206.928 374.274C211.136 369.612 218.892 368.036 225.372 370.528C231.564 372.909 235.026 378.809 234.238 385.641C233.506 391.99 228.787 396.951 222.33 397.955C216.235 398.902 210.731 397.783 206.257 392.572Z" fill="#7305FF"/>
</g>
<defs>
<clipPath id="clip0_1007_1422">
<rect width="512" height="512" fill="white"/>
</clipPath>
</defs>
</svg>
