<svg width="18" height="18" viewBox="0 0 18 18" fill="none" xmlns="http://www.w3.org/2000/svg">
<path d="M11.625 9C11.625 8.3787 12.1287 7.875 12.75 7.875C13.3713 7.875 13.875 8.3787 13.875 9C13.875 9.6213 13.3713 10.125 12.75 10.125C12.1287 10.125 11.625 9.6213 11.625 9Z" fill="#8FA0A0"/>
<path fill-rule="evenodd" clip-rule="evenodd" d="M15.331 5.00552C14.8378 3.84627 13.7477 3.01292 12.4506 2.87642L11.9617 2.82498C9.49245 2.56514 7.00189 2.58227 4.53646 2.87606L4.2125 2.91467C2.9609 3.06381 1.96921 4.04167 1.8025 5.29105C1.47403 7.75275 1.47403 10.2472 1.8025 12.709C1.96921 13.9583 2.9609 14.9362 4.2125 15.0854L4.53646 15.124C7.00189 15.4178 9.49245 15.4349 11.9617 15.1751L12.4506 15.1236C13.7477 14.9871 14.8378 14.1538 15.331 12.9945C16.1105 12.7625 16.7054 12.0867 16.8031 11.2518C16.978 9.7557 16.978 8.2443 16.8031 6.74823C16.7054 5.91332 16.1105 5.23758 15.331 5.00552ZM11.8439 3.9438C9.4581 3.69274 7.05171 3.7093 4.66957 3.99316L4.34562 4.03176C3.60401 4.12013 3.0164 4.69955 2.91763 5.43984C2.60233 7.80285 2.60233 10.1972 2.91763 12.5602C3.0164 13.3005 3.60401 13.8799 4.34562 13.9682L4.66957 14.0069C7.05171 14.2907 9.4581 14.3073 11.8439 14.0562L12.3329 14.0048C12.9707 13.9376 13.5352 13.6232 13.9263 13.1565C12.7952 13.2224 11.6491 13.193 10.5314 13.0681C9.57938 12.9617 8.80942 12.212 8.69715 11.2518C8.52217 9.7557 8.52217 8.2443 8.69715 6.74823C8.80942 5.78804 9.57938 5.03838 10.5314 4.93198C11.6491 4.80707 12.7952 4.77759 13.9263 4.84355C13.5352 4.37681 12.9707 4.06238 12.3329 3.99525L11.8439 3.9438ZM14.4581 6.01103C14.4586 6.01391 14.459 6.01679 14.4595 6.01967L14.464 6.04883L14.613 6.0257C14.6901 6.03333 14.767 6.04143 14.8439 6.05002C15.2844 6.09926 15.6352 6.44736 15.6856 6.87892C15.8505 8.28818 15.8505 9.71183 15.6856 11.1211C15.6352 11.5526 15.2844 11.9008 14.8439 11.95C14.767 11.9586 14.69 11.9667 14.613 11.9743L14.464 11.9512L14.4595 11.9803C14.459 11.9832 14.4586 11.9861 14.4581 11.989C13.1991 12.1029 11.908 12.0899 10.6564 11.95C10.2158 11.9008 9.86497 11.5526 9.8145 11.1211C9.64965 9.71183 9.64965 8.28818 9.8145 6.87892C9.86497 6.44736 10.2158 6.09926 10.6564 6.05002C11.908 5.91013 13.1991 5.89714 14.4581 6.01103Z" fill="#8FA0A0"/>
</svg>
