<svg width="15" height="14" viewBox="0 0 15 14" fill="none" xmlns="http://www.w3.org/2000/svg">
<path fill-rule="evenodd" clip-rule="evenodd" d="M11.0893 0.793742C10.4327 0.137154 9.3206 0.351332 8.95483 1.2048L7.76038 3.99182C6.63605 3.77135 5.42476 4.09614 4.55257 4.96832L3.27001 6.2509C3.05033 6.47057 3.05033 6.82675 3.27001 7.04635L5.14148 8.9179L1.10225 12.9571C0.882583 13.1768 0.882583 13.533 1.10225 13.7526C1.32193 13.9722 1.67808 13.9722 1.89775 13.7526L5.93698 9.71335L7.80853 11.5849C7.91398 11.6904 8.05708 11.7497 8.20625 11.7497C8.35543 11.7497 8.49853 11.6904 8.60405 11.5849L9.88655 10.3023C10.7588 9.43015 11.0836 8.21882 10.8631 7.0945L13.6501 5.90005C14.5035 5.53427 14.7178 4.42221 14.0611 3.76563L11.0893 0.793742ZM9.98885 1.64795C10.0411 1.52603 10.2 1.49543 10.2938 1.58924L13.2657 4.56113C13.3594 4.65492 13.3288 4.81379 13.2069 4.86605L9.9704 6.25315C9.69718 6.37022 9.56225 6.67975 9.66245 6.95972C9.9707 7.82095 9.77915 8.81875 9.0911 9.50687L8.20625 10.3916L4.46325 6.64862L5.34807 5.76385C6.03613 5.07575 7.034 4.88423 7.89523 5.19248C8.17513 5.29267 8.48465 5.15773 8.6018 4.88446L9.98885 1.64795Z" fill="#8FA0A0"/>
</svg>
